<svg width="45" height="45" viewBox="0 0 45 45" fill="none" xmlns="http://www.w3.org/2000/svg">
<path d="M42.1875 38.6719H40.9872C40.2395 38.1512 35.86 34.4642 35.8594 19.6875C35.8594 17.6729 35.6733 16.3669 34.7463 16.0812C33.6388 15.7393 32.6823 17.1428 30.9464 19.6889C30.3032 20.633 29.5895 21.6767 28.8255 22.6851C28.7975 11.2072 28.392 4.92188 22.5 4.92188C16.608 4.92188 16.2025 11.2072 16.1745 22.6851C15.4105 21.6767 14.6968 20.633 14.0536 19.6889C12.317 17.1428 11.3612 15.7516 10.2537 16.0812C9.32671 16.3669 9.14062 17.6729 9.14062 19.6875C9.14002 34.4902 4.74446 38.1646 4.01525 38.6719H2.8125C2.42386 38.6719 2.10938 38.9864 2.10938 39.375C2.10938 39.7636 2.42386 40.0781 2.8125 40.0781H19.6875C20.0761 40.0781 20.3906 39.7636 20.3906 39.375C20.3906 38.9864 20.0761 38.6719 19.6875 38.6719H9.87465C13.1368 37.0375 17.1502 33.5516 17.519 26.3567C19.0299 27.802 20.6971 28.8281 22.5 28.8281C24.3029 28.8281 25.9701 27.802 27.481 26.3567C27.8498 33.5516 31.8632 37.0375 35.1254 38.6719H25.3125C24.9239 38.6719 24.6094 38.9864 24.6094 39.375C24.6094 39.7636 24.9239 40.0781 25.3125 40.0781H42.1875C42.5761 40.0781 42.8906 39.7636 42.8906 39.375C42.8906 38.9864 42.5761 38.6719 42.1875 38.6719ZM6.12934 38.5709C7.91307 36.4054 10.5464 31.2534 10.5469 19.6875C10.5469 18.4598 10.6396 17.861 10.7137 17.5781C11.2212 18.0313 12.1358 19.373 12.8911 20.4813C13.8484 21.8857 14.949 23.4938 16.1721 24.9239C16.1721 25.056 16.1719 25.1792 16.1719 25.3125C16.1719 35.6786 8.38566 38.0896 6.12934 38.5709ZM22.5 27.4219C20.785 27.4219 19.1095 26.1154 17.5794 24.403C17.5911 11.8939 17.8899 6.32812 22.5 6.32812C27.1101 6.32812 27.4089 11.8939 27.4206 24.403C25.8905 26.1154 24.215 27.4219 22.5 27.4219ZM28.8281 25.3125C28.8281 25.1792 28.8279 25.056 28.8279 24.9239C30.051 23.4938 31.1516 21.8857 32.1089 20.4813C32.8642 19.373 33.7788 18.0313 34.2863 17.5781C34.3604 17.861 34.4531 18.4598 34.4531 19.6875C34.4536 31.2534 37.0869 36.4054 38.8707 38.5709C36.6143 38.0896 28.8281 35.6786 28.8281 25.3125Z" fill="#E85123" fill-opacity="0.9"/>
<path d="M22.5 40.0781C22.8883 40.0781 23.2031 39.7633 23.2031 39.375C23.2031 38.9867 22.8883 38.6719 22.5 38.6719C22.1117 38.6719 21.7969 38.9867 21.7969 39.375C21.7969 39.7633 22.1117 40.0781 22.5 40.0781Z" fill="#E85123" fill-opacity="0.9"/>
</svg>
