<svg width="30" height="30" viewBox="0 0 30 30" fill="none" xmlns="http://www.w3.org/2000/svg">
<path d="M2.40728 1.55039e-06C2.24757 0.0305248 2.12135 0.186078 2.12421 0.348839V2.44178C2.12423 2.62442 2.29019 2.79058 2.4726 2.79059H2.79921C2.34971 11.6274 1.87204 20.4656 1.42744 29.301C1.06078 29.301 0.678041 29.301 0.316959 29.301C0.13458 29.3181 -0.0157703 29.5 0.00132805 29.6825C0.0184267 29.8652 0.199893 30.0157 0.382282 29.9987H29.6467C29.8307 30.0022 30 29.8342 30 29.6498C30 29.4656 29.8307 29.2985 29.6467 29.301H28.6015V14.9993H29.6467C29.8291 14.9992 29.9951 14.8331 29.9951 14.6504V11.511C29.9951 11.3284 29.8291 11.1622 29.6467 11.1622H28.4927L27.1862 7.89197C27.1341 7.76302 26.9986 7.67265 26.8596 7.67412C20.9168 7.67412 14.9647 7.67412 9.02661 7.67412C8.91019 7.69592 8.80772 7.78142 8.76532 7.89214L7.45887 11.1624H7.35C7.23908 8.37366 7.12528 5.58077 7.0125 2.79059H7.35C7.53241 2.79058 7.69837 2.62442 7.69839 2.44178V0.348839C7.69837 0.166202 7.53241 1.89922e-05 7.35 1.55039e-06C5.70471 -1.93798e-06 4.04748 1.55039e-06 2.40728 1.55039e-06ZM2.82098 0.697655H7.00162V2.09294H2.82098V0.697655ZM3.49598 2.79059H6.31573L6.65323 11.1624C6.40246 11.1623 6.13643 11.1624 5.89113 11.1624C5.73143 11.1929 5.60521 11.3484 5.60807 11.5112V14.6506C5.60809 14.8332 5.77405 14.9994 5.95646 14.9994H7.00162V19.5341H2.62502L3.49598 2.79059ZM9.33145 8.37177H26.6201L27.7415 11.1624H8.21008L9.33145 8.37177ZM6.30484 11.86H29.2983V14.3018H6.30484V11.86ZM7.69839 14.9994H27.9048V29.3012H20.9371V20.2318C20.937 20.0492 20.7711 19.883 20.5887 19.883C18.711 19.883 16.8218 19.883 14.9492 19.883C14.7895 19.9133 14.6632 20.069 14.6661 20.2318V29.3012H7.69839C7.69929 24.3187 7.69842 19.2612 7.69839 14.9994ZM10.0718 17.0924C9.8893 17.1095 9.73881 17.2912 9.75591 17.4739C9.77302 17.6566 9.95464 17.8072 10.1371 17.79H12.2274C12.4114 17.7935 12.5807 17.6255 12.5807 17.4412C12.5807 17.2569 12.4114 17.0898 12.2274 17.0924C11.512 17.0924 10.7817 17.0924 10.0718 17.0924ZM16.6911 17.0924C16.5087 17.1095 16.3582 17.2912 16.3753 17.4739C16.3924 17.6566 16.574 17.8072 16.7564 17.79H18.8467C19.0308 17.7935 19.2 17.6255 19.2 17.4412C19.2 17.2569 19.0308 17.0898 18.8467 17.0924C18.1313 17.0924 17.4011 17.0924 16.6911 17.0924ZM23.3104 17.0924C23.1281 17.1095 22.9777 17.2913 22.9948 17.4739C23.0119 17.6565 23.1934 17.8071 23.3758 17.79H25.4661C25.6501 17.7935 25.8194 17.6255 25.8194 17.4412C25.8194 17.2569 25.6501 17.0898 25.4661 17.0924C24.7507 17.0924 24.0204 17.0924 23.3104 17.0924ZM2.59236 20.2318H7.00162V23.3712C5.47945 23.3677 3.94717 23.375 2.42971 23.3677L2.59236 20.2302V20.2318ZM15.3629 20.5806H20.2403V29.3012H15.3629V20.5806ZM10.0718 21.6271C9.8893 21.6442 9.73881 21.8259 9.75591 22.0086C9.77302 22.1913 9.95464 22.3419 10.1371 22.3247H12.2274C12.4114 22.3282 12.5807 22.1602 12.5807 21.9759C12.5807 21.7916 12.4114 21.6245 12.2274 21.6271C11.512 21.6271 10.7817 21.6271 10.0718 21.6271ZM23.3104 21.6271C23.1281 21.6442 22.9777 21.826 22.9948 22.0086C23.0119 22.1912 23.1934 22.3418 23.3758 22.3247H25.4661C25.6501 22.3282 25.8194 22.1602 25.8194 21.9759C25.8194 21.7916 25.6501 21.6245 25.4661 21.6271C24.7507 21.6271 24.0204 21.6271 23.3104 21.6271ZM7.00162 24.0687V29.3011H2.12421L2.39585 24.0682C3.91754 24.0679 5.47061 24.0682 7.00162 24.0682V24.0687ZM10.0718 26.5106C9.8893 26.5277 9.73881 26.7095 9.75591 26.8921C9.77302 27.0748 9.95464 27.2255 10.1371 27.2083H12.2274C12.4114 27.2118 12.5807 27.0438 12.5807 26.8594C12.5807 26.6752 12.4114 26.508 12.2274 26.5106C11.512 26.5106 10.7817 26.5106 10.0718 26.5106ZM23.3104 26.5106C23.1281 26.5277 22.9777 26.7095 22.9948 26.8921C23.0119 27.0747 23.1934 27.2253 23.3758 27.2083H25.4661C25.6501 27.2118 25.8194 27.0438 25.8194 26.8594C25.8194 26.6752 25.6501 26.508 25.4661 26.5106C24.7507 26.5106 24.0204 26.5106 23.3104 26.5106Z" fill="#E85123"/>
</svg>
