<svg width="45" height="33" viewBox="0 0 45 33" fill="none" xmlns="http://www.w3.org/2000/svg">
<path d="M43.8075 27.2609H42.3225V3.58696C42.3213 2.63599 41.9298 1.72429 41.2338 1.05185C40.5379 0.379415 39.5943 0.00113912 38.61 0H5.94C4.95575 0.00113912 4.01214 0.379415 3.31617 1.05185C2.62019 1.72429 2.22868 2.63599 2.2275 3.58696V27.2609H0.7425C0.545577 27.2609 0.356719 27.3365 0.217473 27.471C0.0782274 27.6055 0 27.788 0 27.9783V30.8478C0 31.4186 0.234682 31.966 0.65242 32.3696C1.07016 32.7733 1.63673 33 2.2275 33H42.3225C42.9133 33 43.4798 32.7733 43.8976 32.3696C44.3153 31.966 44.55 31.4186 44.55 30.8478V27.9783C44.55 27.788 44.4718 27.6055 44.3325 27.471C44.1933 27.3365 44.0044 27.2609 43.8075 27.2609ZM5.94 1.43478H38.61C39.2008 1.43478 39.7673 1.66153 40.1851 2.06514C40.6028 2.46875 40.8375 3.01616 40.8375 3.58696V5.73913H3.7125V3.58696C3.7125 3.01616 3.94718 2.46875 4.36492 2.06514C4.78266 1.66153 5.34923 1.43478 5.94 1.43478ZM3.7125 7.17391H40.8375V27.2609H34.3258C34.3674 27.131 34.4119 27.0019 34.449 26.8713L37.2171 26.5377C37.3966 26.5161 37.5618 26.4318 37.6816 26.3007C37.8013 26.1697 37.8675 26.0009 37.8675 25.8261V21.5217C37.8675 21.3469 37.8013 21.1781 37.6816 21.0471C37.5618 20.916 37.3966 20.8318 37.2171 20.8101L34.452 20.4765C34.1729 19.4769 33.7597 18.5168 33.2232 17.6206L34.9369 15.4913C35.048 15.3533 35.1031 15.1809 35.0919 15.0064C35.0807 14.8319 35.0039 14.6673 34.876 14.5437L31.7278 11.5019C31.5998 11.3783 31.4295 11.3041 31.2489 11.2933C31.0682 11.2825 30.8898 11.3357 30.7469 11.4431L28.5432 13.0988C27.6148 12.5792 26.6201 12.1791 25.5843 11.9087L25.2391 9.23426C25.216 9.06131 25.1284 8.90241 24.9929 8.78727C24.8573 8.67214 24.683 8.60866 24.5025 8.6087H20.0475C19.8666 8.60874 19.6919 8.67263 19.5562 8.78835C19.4206 8.90407 19.3334 9.06366 19.3109 9.23713L18.9657 11.9087C17.9311 12.1784 16.9374 12.5775 16.0098 13.096L13.806 11.4402C13.6632 11.3329 13.4847 11.2796 13.3041 11.2904C13.1235 11.3013 12.9532 11.3755 12.8252 11.4991L9.677 14.5408C9.54907 14.6645 9.47229 14.829 9.46107 15.0035C9.44986 15.178 9.505 15.3505 9.61612 15.4885L11.3298 17.6177C10.792 18.5147 10.3778 19.4757 10.098 20.4765L7.32996 20.8101C7.15095 20.8324 6.98649 20.917 6.86733 21.0479C6.74816 21.1789 6.68246 21.3474 6.6825 21.5217V25.8261C6.68255 26.0009 6.74867 26.1697 6.86844 26.3007C6.98821 26.4318 7.15339 26.5161 7.33293 26.5377L10.101 26.8713C10.1381 27.0019 10.1826 27.131 10.2242 27.2609H3.7125V7.17391ZM19.305 28.6957H25.245V29.413H19.305V28.6957ZM15.0126 27.2609C14.5394 26.3662 14.2485 25.392 14.1558 24.3913H14.85V22.9565H14.1454C14.2308 22.0619 14.4752 21.1883 14.8678 20.3739L15.4737 20.7118L16.2162 19.4693L15.6103 19.1314C16.1482 18.398 16.8107 17.7579 17.5698 17.2382L17.9195 17.8236L19.2055 17.1062L18.8558 16.5208C19.6996 16.1399 20.6051 15.9025 21.5325 15.8192V16.5H23.0175V15.8192C23.9434 15.9018 24.8476 16.1379 25.6905 16.5172L25.3408 17.1026L26.6268 17.82L26.9765 17.2346C27.7356 17.7543 28.3981 18.3944 28.936 19.1278L28.3301 19.4657L29.0726 20.7082L29.6785 20.3703C30.071 21.1847 30.3154 22.0584 30.4009 22.9529H29.7V24.3877H30.3942C30.3015 25.3884 30.0106 26.3626 29.5374 27.2573L15.0126 27.2609ZM22.275 14.3478C20.6863 14.3492 19.1226 14.7291 17.7221 15.4539C16.3217 16.1786 15.1279 17.2258 14.2464 18.5028C13.3648 19.7797 12.8228 21.247 12.6683 22.7746C12.5138 24.3023 12.7516 25.8432 13.3605 27.2609H11.7924C11.6436 26.8697 11.5196 26.4701 11.4211 26.0643C11.3877 25.92 11.309 25.7893 11.1958 25.6899C11.0826 25.5905 10.9403 25.5273 10.7885 25.509L8.1675 25.1926V22.1552L10.7915 21.8388C10.9433 21.8205 11.0855 21.7573 11.1988 21.658C11.312 21.5586 11.3907 21.4278 11.4241 21.2836C11.6988 20.1017 12.1834 18.9747 12.8564 17.9527C12.9382 17.828 12.9782 17.6819 12.9709 17.5343C12.9636 17.3868 12.9094 17.2451 12.8155 17.1284L11.191 15.1104L13.4118 12.9647L15.5004 14.5343C15.6211 14.625 15.7678 14.6774 15.9205 14.6845C16.0732 14.6915 16.2245 14.6529 16.3536 14.5738C17.4113 13.9236 18.5777 13.4554 19.801 13.19C19.9503 13.1577 20.0856 13.0817 20.1885 12.9723C20.2914 12.8628 20.3567 12.7254 20.3757 12.5787L20.7031 10.0435H23.8469L24.1743 12.5787C24.1933 12.7254 24.2586 12.8628 24.3615 12.9723C24.4644 13.0817 24.5997 13.1577 24.749 13.19C25.9723 13.4554 27.1387 13.9236 28.1964 14.5738C28.3255 14.6529 28.4768 14.6915 28.6295 14.6845C28.7822 14.6774 28.9289 14.625 29.0496 14.5343L31.1382 12.9647L33.359 15.1104L31.7345 17.1284C31.6407 17.2451 31.5864 17.3868 31.5791 17.5343C31.5718 17.6819 31.6118 17.828 31.6936 17.9527C32.3666 18.9747 32.8512 20.1017 33.1259 21.2836C33.1593 21.4278 33.238 21.5586 33.3512 21.658C33.4645 21.7573 33.6067 21.8205 33.7585 21.8388L36.3825 22.1552V25.1926L33.7585 25.509C33.6067 25.5273 33.4645 25.5905 33.3512 25.6899C33.238 25.7893 33.1593 25.92 33.1259 26.0643C33.0274 26.4701 32.9035 26.8697 32.7546 27.2609H31.1895C31.7984 25.8432 32.0362 24.3023 31.8817 22.7746C31.7272 21.247 31.1852 19.7797 30.3036 18.5028C29.4221 17.2258 28.2283 16.1786 26.8279 15.4539C25.4274 14.7291 23.8637 14.3492 22.275 14.3478ZM43.065 30.8478C43.065 31.0381 42.9868 31.2206 42.8475 31.3551C42.7083 31.4896 42.5194 31.5652 42.3225 31.5652H2.2275C2.03058 31.5652 1.84172 31.4896 1.70247 31.3551C1.56323 31.2206 1.485 31.0381 1.485 30.8478V28.6957H17.82V29.413C17.82 29.7936 17.9765 30.1585 18.2549 30.4276C18.5334 30.6967 18.9112 30.8478 19.305 30.8478H25.245C25.6388 30.8478 26.0166 30.6967 26.2951 30.4276C26.5735 30.1585 26.73 29.7936 26.73 29.413V28.6957H43.065V30.8478Z" fill="#E85123" fill-opacity="0.9"/>
<path d="M8.16859 2.87109H6.68359V4.30588H8.16859V2.87109Z" fill="#E85123" fill-opacity="0.9"/>
<path d="M11.1373 2.87109H9.65234V4.30588H11.1373V2.87109Z" fill="#E85123" fill-opacity="0.9"/>
<path d="M14.108 2.87109H12.623V4.30588H14.108V2.87109Z" fill="#E85123" fill-opacity="0.9"/>
<path d="M25.4639 19.5781L23.2304 21.7353C22.9333 21.5949 22.6071 21.5213 22.2763 21.5201C21.8358 21.5201 21.4051 21.6463 21.0388 21.8828C20.6725 22.1193 20.387 22.4554 20.2184 22.8487C20.0498 23.2419 20.0057 23.6747 20.0916 24.0921C20.1776 24.5096 20.3897 24.8931 20.7012 25.1941C21.0128 25.4951 21.4097 25.7001 21.8418 25.7831C22.2739 25.8661 22.7217 25.8235 23.1288 25.6606C23.5358 25.4977 23.8837 25.2219 24.1284 24.868C24.3732 24.514 24.5038 24.0979 24.5038 23.6723C24.5025 23.3527 24.4264 23.0375 24.2811 22.7504L26.5145 20.5925L25.4639 19.5781ZM22.2763 24.3897C22.1295 24.3897 21.9859 24.3476 21.8638 24.2688C21.7417 24.1899 21.6465 24.0779 21.5903 23.9468C21.5342 23.8157 21.5194 23.6715 21.5481 23.5323C21.5767 23.3932 21.6475 23.2653 21.7513 23.165C21.8551 23.0647 21.9874 22.9964 22.1315 22.9687C22.2755 22.941 22.4248 22.9552 22.5605 23.0095C22.6961 23.0638 22.8121 23.1557 22.8937 23.2737C22.9753 23.3917 23.0188 23.5304 23.0188 23.6723C23.0188 23.8625 22.9406 24.045 22.8014 24.1796C22.6621 24.3141 22.4733 24.3897 22.2763 24.3897Z" fill="#E85123" fill-opacity="0.9"/>
<path d="M22.2759 17.9336C20.7011 17.9353 19.1913 18.5405 18.0777 19.6164C16.9641 20.6924 16.3377 22.1511 16.3359 23.6727H17.8209C17.8221 22.5315 18.2919 21.4373 19.1271 20.6303C19.9623 19.8234 21.0948 19.3695 22.2759 19.3684V17.9336Z" fill="#E85123" fill-opacity="0.9"/>
</svg>
