<svg width="28" height="28" viewBox="0 0 28 28" fill="none" xmlns="http://www.w3.org/2000/svg">
<path d="M11.6684 0.236401C12.3993 -0.0681194 13.4783 -0.0893035 14.4766 0.236401C15.4869 0.566078 16.4335 1.24794 16.8903 2.34554C17.0479 2.72288 17.1339 3.13464 17.1617 3.56097C17.2213 4.45997 17.0161 5.42649 16.6705 6.21957C16.3726 6.90275 15.9595 7.47207 15.5027 7.78586C15.6855 7.90237 15.8549 8.03875 16.0072 8.19233C16.0707 8.25588 16.1316 8.32208 16.1886 8.39093C16.4309 7.85868 16.926 7.31187 17.4808 6.69886C17.8224 6.32152 18.1918 5.91372 18.536 5.46224C18.9293 4.94588 19.1954 4.45864 19.4099 4.06409C19.5701 3.77016 19.7038 3.5239 19.8494 3.33324C20.2903 2.75598 20.7233 2.62755 21.5018 3.2207C22.132 3.70132 22.6894 4.62547 22.9066 5.65554C23.1263 6.69488 23.0085 7.85339 22.2883 8.7974C22.0407 9.12178 21.7269 9.40247 21.372 9.63947C20.62 10.1426 19.68 10.4484 18.8207 10.5451C18.0819 10.6285 17.3841 10.5544 16.8837 10.3187C16.8824 10.6285 16.8347 10.9277 16.746 11.2084C17.3193 11.1647 18.0236 11.317 18.8101 11.4865C19.3198 11.5963 19.868 11.7142 20.4082 11.7844C21.049 11.8664 21.6064 11.8532 22.0579 11.8413C22.3902 11.8333 22.6682 11.8254 22.9092 11.8572C23.6308 11.9499 23.9578 12.261 23.8334 13.2302C23.7221 14.0934 23.1025 15.15 22.1863 15.8676C21.4263 16.4621 20.4598 16.8367 19.3993 16.7004C18.9915 16.6474 18.5903 16.5163 18.2103 16.3283C17.4014 15.9298 16.6665 15.2691 16.1528 14.574C15.7424 14.0179 15.4657 13.4248 15.3929 12.9018C15.1519 13.0422 14.8884 13.1494 14.6104 13.2182C14.8977 13.6869 15.1029 14.3264 15.3319 15.0374C15.4882 15.5247 15.6577 16.049 15.8748 16.5693C16.1237 17.1651 16.415 17.6404 16.6493 18.0244C16.8241 18.309 16.9697 18.5474 17.0624 18.7711C17.3418 19.4411 17.2359 19.8806 16.3329 20.258C15.5319 20.5929 14.3058 20.5837 13.2268 20.1494C12.3304 19.7893 11.5215 19.1379 11.1097 18.1488C10.9521 17.7715 10.8661 17.3584 10.8383 16.9334C10.7787 16.0344 10.9839 15.0679 11.3295 14.2748C11.5863 13.6869 11.9279 13.1838 12.3079 12.8541C12.1133 12.7323 11.9332 12.5893 11.773 12.4291C11.7439 12.4 11.7161 12.3709 11.6883 12.3404C11.4208 12.7985 10.9919 13.2725 10.5192 13.7955C10.1776 14.1729 9.80821 14.5806 9.46397 15.0321C9.07074 15.5485 8.80462 16.0357 8.59013 16.4303C8.42992 16.7242 8.2962 16.9705 8.15056 17.1611C7.70967 17.7384 7.27672 17.8668 6.4982 17.2737C5.86798 16.7931 5.31057 15.8676 5.09344 14.8388C4.87365 13.7995 4.99149 12.641 5.71175 11.697C5.95933 11.3726 6.27312 11.0919 6.62796 10.8549C7.37999 10.3518 8.32003 10.0459 9.17931 9.94928C9.8188 9.87779 10.4278 9.9228 10.9045 10.0896C10.9243 9.81159 10.9839 9.54546 11.074 9.2939C10.5351 9.2992 9.89559 9.1615 9.18858 9.00924C8.67883 8.89935 8.1307 8.78151 7.59051 8.71134C6.94969 8.62925 6.39228 8.64249 5.9408 8.65441C5.60847 8.66235 5.33043 8.6703 5.08946 8.63852C4.36788 8.54584 4.04085 8.2347 4.16531 7.26553C4.26726 6.47775 4.78759 5.53241 5.56875 4.83069C6.34992 4.12897 7.3972 3.65365 8.55968 3.79002C8.5888 3.79135 8.61661 3.79532 8.64441 3.80062C9.03632 3.85622 9.42292 3.98465 9.78967 4.16604C10.5986 4.56456 11.3335 5.22524 11.8472 5.92034C12.2603 6.4804 12.537 7.07752 12.6085 7.60315C12.8667 7.48134 13.1447 7.39396 13.436 7.35027C13.1248 6.87627 12.909 6.205 12.6681 5.45827C12.5118 4.97103 12.3423 4.44673 12.1252 3.9264C11.8763 3.33059 11.585 2.85528 11.3507 2.47132C11.1759 2.18666 11.0303 1.94834 10.9376 1.72458C10.6582 1.05463 10.7641 0.615066 11.6671 0.237725L11.6684 0.236401ZM13.8901 8.7921C14.3098 8.7921 14.6885 8.96158 14.9639 9.23697C15.2393 9.51236 15.4087 9.89103 15.4087 10.3107C15.4087 10.7304 15.2393 11.1091 14.9639 11.3845C14.6885 11.6599 14.3098 11.8294 13.8901 11.8294C13.4704 11.8294 13.0917 11.6599 12.8163 11.3845C12.5409 11.1091 12.3715 10.7304 12.3715 10.3107C12.3715 9.89103 12.5409 9.51236 12.8163 9.23697C13.0917 8.96158 13.4704 8.7921 13.8901 8.7921ZM14.3403 9.86057C14.2251 9.74539 14.0662 9.67389 13.8901 9.67389C13.714 9.67389 13.5551 9.74539 13.4399 9.86057C13.3248 9.97576 13.2533 10.1346 13.2533 10.3107C13.2533 10.4868 13.3248 10.6457 13.4399 10.7609C13.5551 10.8761 13.714 10.9476 13.8901 10.9476C14.0662 10.9476 14.2251 10.8761 14.3403 10.7609C14.4555 10.6457 14.527 10.4868 14.527 10.3107C14.527 10.1346 14.4555 9.97576 14.3403 9.86057ZM15.3849 8.81594C15.0023 8.4333 14.474 8.19763 13.8914 8.19763C13.3075 8.19763 12.7793 8.43462 12.398 8.81594C12.0153 9.19857 11.7796 9.72685 11.7796 10.3094C11.7796 10.8933 12.0166 11.4216 12.398 11.8029C12.7806 12.1855 13.3089 12.4212 13.8914 12.4212C14.4753 12.4212 15.0036 12.1842 15.3849 11.8029C15.7675 11.4202 16.0032 10.892 16.0032 10.3094C16.0032 9.72553 15.7662 9.19725 15.3849 8.81594ZM20.9907 3.93831C20.9762 3.92904 20.9629 3.91845 20.9484 3.90654C20.7352 3.74898 20.6346 3.7609 20.5512 3.86946C20.4426 4.01246 20.3248 4.22827 20.1844 4.48645C19.954 4.91013 19.6694 5.43443 19.2391 5.99846C18.8856 6.46186 18.4963 6.89084 18.1362 7.28936C17.3391 8.1685 16.7063 8.8689 17.0174 9.33362C17.0426 9.37069 17.077 9.40644 17.122 9.43954C17.4305 9.67521 18.0382 9.74803 18.7267 9.67124C19.4589 9.58915 20.2546 9.33097 20.8848 8.90994C21.1523 8.7312 21.3893 8.52201 21.5733 8.28634C21.5826 8.27177 21.5945 8.25721 21.6064 8.24397C22.1373 7.53298 22.2181 6.64325 22.0473 5.83561C21.8752 5.02267 21.4581 4.30638 20.9907 3.93831ZM5.95536 14.6574C6.13013 15.4823 6.55646 16.2078 7.0331 16.5719C7.26083 16.7454 7.36542 16.7374 7.45148 16.6249C7.56005 16.4819 7.67789 16.2661 7.81823 16.0079C8.04861 15.5842 8.33327 15.0599 8.76357 14.4959C9.11708 14.0325 9.50634 13.6035 9.86646 13.205C10.6635 12.3259 11.2964 11.6255 10.9852 11.1607C10.9601 11.1237 10.9257 11.0879 10.8807 11.0548C10.5722 10.8192 9.96444 10.7463 9.27596 10.8231C8.54379 10.9052 7.74806 11.1634 7.11784 11.5844C6.84112 11.7685 6.59883 11.9843 6.41214 12.2305C5.86665 12.9442 5.78324 13.8432 5.95536 14.6588V14.6574ZM21.6474 15.1751C22.3849 14.5979 22.8788 13.7757 22.9635 13.1203C23.0006 12.8343 22.941 12.7482 22.802 12.7297C22.6272 12.7072 22.3783 12.7138 22.0817 12.7204C21.6024 12.7323 21.0079 12.7482 20.3009 12.6569C19.6998 12.5788 19.1451 12.4596 18.6314 12.3484C17.4702 12.0981 16.5474 11.8995 16.2998 12.4013C16.2786 12.4437 16.2654 12.49 16.2587 12.543C16.2084 12.9296 16.4481 13.491 16.8598 14.0484C17.2981 14.6415 17.919 15.2029 18.5996 15.5379C18.8988 15.6849 19.206 15.7881 19.5092 15.8265C20.3102 15.9298 21.053 15.6372 21.6448 15.1738L21.6474 15.1751ZM6.16058 5.48342C5.53168 6.04877 5.11594 6.78094 5.03915 7.37277C5.00208 7.65876 5.06166 7.74482 5.20068 7.76335C5.37545 7.78586 5.62436 7.77924 5.92094 7.77262C6.40023 7.76071 6.9947 7.74482 7.70172 7.83617C8.30282 7.91429 8.85758 8.03345 9.37129 8.14467C10.5324 8.3949 11.4553 8.5935 11.7029 8.09171C11.724 8.04934 11.7373 8.003 11.7439 7.95004C11.7942 7.56343 11.5546 7.00205 11.1428 6.44465C10.7046 5.8515 10.0836 5.29012 9.40306 4.95515C9.10384 4.80818 8.79667 4.70491 8.49347 4.66651C7.60242 4.55132 6.78154 4.92867 6.16191 5.48475L6.16058 5.48342ZM13.5551 19.3312C14.4237 19.6807 15.3836 19.6979 15.9953 19.4437C16.2587 19.3338 16.3038 19.2385 16.2495 19.1087C16.182 18.9459 16.0522 18.734 15.8986 18.4825C15.6471 18.072 15.3359 17.5636 15.0618 16.9069C14.8368 16.3667 14.6594 15.8159 14.4952 15.3062C14.1324 14.1768 13.8424 13.2791 13.2824 13.3162C13.2387 13.3189 13.1897 13.3321 13.1394 13.3533C12.7806 13.5029 12.4138 13.9915 12.1371 14.6257C11.8432 15.3009 11.6684 16.1191 11.7174 16.8778C11.7399 17.2088 11.8048 17.5265 11.924 17.8112C12.2338 18.5553 12.8587 19.0518 13.5551 19.3325V19.3312ZM14.2065 1.07449C13.4042 0.812342 12.5608 0.818962 12.0074 1.04934C11.7439 1.15923 11.6989 1.25456 11.7532 1.38431C11.8207 1.54716 11.9504 1.759 12.104 2.01056C12.3556 2.42101 12.6667 2.92942 12.9408 3.58613C13.1659 4.12632 13.3433 4.6771 13.5075 5.18685C13.8702 6.31622 14.1602 7.21389 14.7203 7.17682C14.7639 7.17417 14.8129 7.16093 14.8632 7.13975C15.2221 6.99014 15.5888 6.50158 15.8655 5.86738C16.1594 5.19214 16.3342 4.37391 16.2852 3.61526C16.264 3.29352 16.2018 2.98503 16.0893 2.70699C16.0827 2.69243 16.076 2.67654 16.0694 2.66065C15.7199 1.84506 14.9904 1.33003 14.2065 1.07449ZM0.440893 26.3219C0.197276 26.3219 0 26.1246 0 25.881C0 25.6374 0.197276 25.4401 0.440893 25.4401C1.21146 25.4401 1.91186 25.881 2.61226 26.3232C3.20276 26.6953 3.79459 27.0673 4.31492 27.0673C4.83526 27.0673 5.42709 26.6953 6.01759 26.3232C6.71799 25.8823 7.41838 25.4401 8.18895 25.4401C8.95952 25.4401 9.65992 25.881 10.3603 26.3232C10.9508 26.6953 11.5427 27.0673 12.063 27.0673C12.5833 27.0673 13.1751 26.6953 13.7657 26.3232C14.466 25.8823 15.1664 25.4401 15.937 25.4401C16.7076 25.4401 17.408 25.881 18.1084 26.3232C18.6989 26.6953 19.2907 27.0673 19.811 27.0673C20.3314 27.0673 20.9232 26.6953 21.5137 26.3232C22.2141 25.8823 22.9145 25.4401 23.6851 25.4401C24.4556 25.4401 25.156 25.881 25.8564 26.3232C26.4469 26.6953 27.0388 27.0673 27.5591 27.0673C27.8027 27.0673 28 27.2646 28 27.5082C28 27.7518 27.8027 27.9491 27.5591 27.9491C26.7885 27.9491 26.0881 27.5082 25.3877 27.066C24.7972 26.6939 24.2054 26.3219 23.6851 26.3219C23.1647 26.3219 22.5729 26.6939 21.9824 27.066C21.282 27.5069 20.5816 27.9491 19.811 27.9491C19.0405 27.9491 18.3401 27.5082 17.6397 27.066C17.0492 26.6939 16.4573 26.3219 15.937 26.3219C15.4167 26.3219 14.8249 26.6939 14.2343 27.066C13.534 27.5069 12.8336 27.9491 12.063 27.9491C11.2924 27.9491 10.592 27.5082 9.89162 27.066C9.30112 26.6939 8.70929 26.3219 8.18895 26.3219C7.66862 26.3219 7.07679 26.6939 6.48629 27.066C5.78589 27.5069 5.08549 27.9491 4.31492 27.9491C3.54435 27.9491 2.84396 27.5082 2.14356 27.066C1.55305 26.6939 0.961226 26.3219 0.440893 26.3219Z" fill="#E85122"/>
<path d="M0.440893 24.2041C0.197276 24.2041 0 24.0068 0 23.7632C0 23.5195 0.197276 23.3223 0.440893 23.3223C1.21146 23.3223 1.91186 23.7632 2.61226 24.2054C3.20276 24.5774 3.79459 24.9495 4.31492 24.9495C4.83526 24.9495 5.42709 24.5774 6.01759 24.2054C6.71799 23.7645 7.41838 23.3223 8.18895 23.3223C8.95952 23.3223 9.65992 23.7632 10.3603 24.2054C10.9508 24.5774 11.5427 24.9495 12.063 24.9495C12.5833 24.9495 13.1751 24.5774 13.7657 24.2054C14.466 23.7645 15.1664 23.3223 15.937 23.3223C16.7076 23.3223 17.408 23.7632 18.1084 24.2054C18.6989 24.5774 19.2907 24.9495 19.811 24.9495C20.3314 24.9495 20.9232 24.5774 21.5137 24.2054C22.2141 23.7645 22.9145 23.3223 23.6851 23.3223C24.4556 23.3223 25.156 23.7632 25.8564 24.2054C26.4469 24.5774 27.0388 24.9495 27.5591 24.9495C27.8027 24.9495 28 25.1467 28 25.3904C28 25.634 27.8027 25.8312 27.5591 25.8312C26.7885 25.8312 26.0881 25.3904 25.3877 24.9481C24.7972 24.5761 24.2054 24.2041 23.6851 24.2041C23.1647 24.2041 22.5729 24.5761 21.9824 24.9481C21.282 25.389 20.5816 25.8312 19.811 25.8312C19.0405 25.8312 18.3401 25.3904 17.6397 24.9481C17.0492 24.5761 16.4573 24.2041 15.937 24.2041C15.4167 24.2041 14.8249 24.5761 14.2343 24.9481C13.534 25.389 12.8336 25.8312 12.063 25.8312C11.2924 25.8312 10.592 25.3904 9.89162 24.9481C9.30112 24.5761 8.70929 24.2041 8.18895 24.2041C7.66862 24.2041 7.07679 24.5761 6.48629 24.9481C5.78589 25.389 5.08549 25.8312 4.31492 25.8312C3.54435 25.8312 2.84396 25.3904 2.14356 24.9481C1.55305 24.5761 0.961226 24.2041 0.440893 24.2041Z" fill="#E85122"/>
<path d="M0.440893 21.997C0.197276 21.997 0 21.7997 0 21.5561C0 21.3125 0.197276 21.1152 0.440893 21.1152C1.21146 21.1152 1.91186 21.5561 2.61226 21.9983C3.20276 22.3704 3.79459 22.7424 4.31492 22.7424C4.83526 22.7424 5.42709 22.3704 6.01759 21.9983C6.71799 21.5575 7.41838 21.1152 8.18895 21.1152C8.95952 21.1152 9.65992 21.5561 10.3603 21.9983C10.9508 22.3704 11.5427 22.7424 12.063 22.7424C12.5833 22.7424 13.1751 22.3704 13.7657 21.9983C14.466 21.5575 15.1664 21.1152 15.937 21.1152C16.7076 21.1152 17.408 21.5561 18.1084 21.9983C18.6989 22.3704 19.2907 22.7424 19.811 22.7424C20.3314 22.7424 20.9232 22.3704 21.5137 21.9983C22.2141 21.5575 22.9145 21.1152 23.6851 21.1152C24.4556 21.1152 25.156 21.5561 25.8564 21.9983C26.4469 22.3704 27.0388 22.7424 27.5591 22.7424C27.8027 22.7424 28 22.9397 28 23.1833C28 23.4269 27.8027 23.6242 27.5591 23.6242C26.7885 23.6242 26.0881 23.1833 25.3877 22.7411C24.7972 22.3691 24.2054 21.997 23.6851 21.997C23.1647 21.997 22.5729 22.3691 21.9824 22.7411C21.282 23.182 20.5816 23.6242 19.811 23.6242C19.0405 23.6242 18.3401 23.1833 17.6397 22.7411C17.0492 22.3691 16.4573 21.997 15.937 21.997C15.4167 21.997 14.8249 22.3691 14.2343 22.7411C13.534 23.182 12.8336 23.6242 12.063 23.6242C11.2924 23.6242 10.592 23.1833 9.89162 22.7411C9.30112 22.3691 8.70929 21.997 8.18895 21.997C7.66862 21.997 7.07679 22.3691 6.48629 22.7411C5.78589 23.182 5.08549 23.6242 4.31492 23.6242C3.54435 23.6242 2.84396 23.1833 2.14356 22.7411C1.55305 22.3691 0.961226 21.997 0.440893 21.997Z" fill="#E85122"/>
</svg>
