<svg width="29" height="29" viewBox="0 0 29 29" fill="none" xmlns="http://www.w3.org/2000/svg">
<path d="M23.8213 16.053V23.8209C23.8213 24.1014 23.7188 24.3441 23.5139 24.5491C23.3089 24.7541 23.0661 24.8566 22.7856 24.8566H16.5713V18.6423H12.4285V24.8566H6.2142C5.93369 24.8566 5.69095 24.7541 5.48596 24.5491C5.28098 24.3441 5.17849 24.1014 5.17849 23.8209V16.053C5.17849 16.0422 5.18118 16.026 5.18658 16.0045C5.19197 15.9829 5.19467 15.9667 5.19467 15.9559L14.4999 8.28516L23.8052 15.9559C23.8159 15.9775 23.8213 16.0099 23.8213 16.053ZM27.4302 14.9364L26.4268 16.1339C26.3405 16.231 26.2272 16.2904 26.087 16.3119H26.0384C25.8982 16.3119 25.7849 16.2742 25.6986 16.1987L14.4999 6.86105L3.30125 16.1987C3.17179 16.285 3.04233 16.3227 2.91286 16.3119C2.77261 16.2904 2.65933 16.231 2.57302 16.1339L1.56967 14.9364C1.48336 14.8285 1.4456 14.7017 1.45639 14.5561C1.46718 14.4104 1.52651 14.2945 1.6344 14.2081L13.27 4.51451C13.6152 4.234 14.0252 4.09375 14.4999 4.09375C14.9746 4.09375 15.3846 4.234 15.7298 4.51451L19.6785 7.81585V4.66016C19.6785 4.50911 19.727 4.38504 19.8241 4.28795C19.9212 4.19085 20.0453 4.1423 20.1963 4.1423H23.3035C23.4545 4.1423 23.5786 4.19085 23.6757 4.28795C23.7728 4.38504 23.8213 4.50911 23.8213 4.66016V11.2628L27.3654 14.2081C27.4733 14.2945 27.5326 14.4104 27.5434 14.5561C27.5542 14.7017 27.5165 14.8285 27.4302 14.9364Z" fill="#030303" fill-opacity="0.9"/>
</svg>
