<svg width="31" height="27" viewBox="0 0 31 27" fill="none" xmlns="http://www.w3.org/2000/svg">
<path d="M29.842 26.053H29.1314V13.3145C28.8383 13.4879 28.518 13.6108 28.1841 13.6778V26.053H26.763V19.1846C26.763 18.2424 26.3887 17.3388 25.7225 16.6725C25.0562 16.0063 24.1526 15.632 23.2104 15.632C22.2682 15.632 21.3646 16.0063 20.6983 16.6725C20.0321 17.3388 19.6578 18.2424 19.6578 19.1846V26.053H2.13157V13.6778C1.79761 13.6108 1.47733 13.488 1.1842 13.3145V26.053H0.473682C0.348054 26.053 0.227571 26.1029 0.138738 26.1917C0.0499056 26.2806 0 26.4011 0 26.5267C0 26.6523 0.0499056 26.7728 0.138738 26.8616C0.227571 26.9505 0.348054 27.0004 0.473682 27.0004H29.842C29.9676 27.0004 30.0881 26.9505 30.1769 26.8616C30.2657 26.7728 30.3156 26.6523 30.3156 26.5267C30.3156 26.4011 30.2657 26.2806 30.1769 26.1917C30.0881 26.1029 29.9676 26.053 29.842 26.053ZM25.8157 26.053H20.6052V19.1846C20.6052 18.4937 20.8796 17.831 21.3682 17.3424C21.8568 16.8539 22.5195 16.5794 23.2104 16.5794C23.9014 16.5794 24.564 16.8539 25.0526 17.3424C25.5412 17.831 25.8157 18.4937 25.8157 19.1846V26.053Z" fill="#E85123"/>
<path d="M1.22356 3.40165L0.711233 9.37256C0.709884 9.39618 0.710323 9.41987 0.712548 9.44342C0.711899 9.4536 0.7095 9.46329 0.7095 9.47364V10.8947C0.728109 11.4142 0.951754 11.9053 1.3315 12.2604C1.71125 12.6155 2.21619 12.8057 2.73583 12.7894C3.02782 12.7914 3.31697 12.732 3.58448 12.6149C3.85198 12.4978 4.09185 12.3258 4.28848 12.1099C4.48638 12.3242 4.72648 12.4952 4.99368 12.6121C5.26088 12.729 5.5494 12.7894 5.84107 12.7894C6.13274 12.7894 6.42126 12.729 6.68846 12.6121C6.95566 12.4952 7.19576 12.3242 7.39366 12.1099C7.59157 12.3242 7.83169 12.4952 8.0989 12.6121C8.36611 12.729 8.65463 12.7894 8.94631 12.7894C9.23799 12.7894 9.52651 12.729 9.79373 12.6121C10.0609 12.4952 10.3011 12.3242 10.499 12.1099C10.6969 12.3242 10.937 12.4952 11.2042 12.6121C11.4714 12.729 11.7599 12.7894 12.0516 12.7894C12.3432 12.7894 12.6317 12.729 12.8989 12.6121C13.1661 12.4952 13.4062 12.3242 13.6041 12.1099C13.8021 12.3242 14.0422 12.4952 14.3094 12.6121C14.5766 12.729 14.8651 12.7894 15.1568 12.7894C15.4485 12.7894 15.737 12.729 16.0042 12.6121C16.2714 12.4952 16.5115 12.3242 16.7094 12.1099C16.9073 12.3242 17.1474 12.4952 17.4146 12.6121C17.6818 12.729 17.9704 12.7894 18.262 12.7894C18.5537 12.7894 18.8422 12.729 19.1094 12.6121C19.3766 12.4952 19.6167 12.3242 19.8146 12.1099C20.0125 12.3242 20.2527 12.4952 20.5199 12.6121C20.7871 12.729 21.0756 12.7894 21.3673 12.7894C21.659 12.7894 21.9475 12.729 22.2147 12.6121C22.4819 12.4952 22.722 12.3242 22.9199 12.1099C23.1178 12.3242 23.3579 12.4952 23.6251 12.6121C23.8923 12.729 24.1808 12.7894 24.4725 12.7894C24.7642 12.7894 25.0527 12.729 25.3199 12.6121C25.5871 12.4952 25.8272 12.3242 26.0251 12.1099C26.2217 12.3258 26.4616 12.4978 26.7291 12.6149C26.9966 12.732 27.2858 12.7914 27.5778 12.7894C28.0974 12.8057 28.6023 12.6155 28.9821 12.2604C29.3618 11.9053 29.5855 11.4142 29.6041 10.8947V9.47364C29.6041 9.46329 29.6017 9.4536 29.601 9.44343C29.6033 9.41987 29.6037 9.39618 29.6024 9.37257L29.09 3.40166C29.4065 3.16236 29.6397 2.82966 29.7567 2.45059C29.8738 2.07151 29.8687 1.66525 29.7422 1.28921C29.6158 0.91317 29.3744 0.586384 29.0521 0.35504C28.7298 0.123697 28.3429 -0.0005012 27.9462 1.52014e-06H2.36739C1.97066 -0.000501039 1.58381 0.123697 1.26152 0.35504C0.939222 0.586383 0.697789 0.913169 0.571344 1.28921C0.444899 1.66524 0.439837 2.07151 0.556874 2.45058C0.673911 2.82965 0.907127 3.16235 1.22356 3.40165ZM3.8148 10.8947C3.79595 11.1629 3.67206 11.4128 3.47004 11.5901C3.26803 11.7675 3.00419 11.858 2.73583 11.842C2.46747 11.858 2.20364 11.7675 2.00162 11.5901C1.7996 11.4128 1.67572 11.1629 1.65686 10.8947V9.88672H3.8148V10.8947ZM3.8537 8.93936H1.69919L2.14237 3.77483C2.21702 3.78416 2.29216 3.78904 2.36739 3.78946H4.29551L3.8537 8.93936ZM6.91998 10.8947C6.90113 11.1629 6.77724 11.4128 6.57523 11.5901C6.37321 11.7675 6.10938 11.858 5.84102 11.842C5.57267 11.858 5.30886 11.7675 5.10687 11.5901C4.90487 11.4127 4.78101 11.1628 4.76216 10.8947V9.88672H6.91998V10.8947ZM6.95888 8.93936H4.80448L5.24634 3.78946H7.40076L6.95888 8.93936ZM10.0253 10.8947C10.0064 11.1629 9.88254 11.4128 9.68053 11.5901C9.47851 11.7675 9.21467 11.858 8.94631 11.842C8.67795 11.858 8.41412 11.7675 8.2121 11.5901C8.01009 11.4128 7.8862 11.1629 7.86735 10.8947V9.88672H10.0253V10.8947ZM10.0642 8.93936H7.90967L8.35159 3.78946H10.5061L10.0642 8.93936ZM13.1305 10.8947C13.1116 11.1629 12.9877 11.4128 12.7857 11.5901C12.5837 11.7675 12.3199 11.858 12.0515 11.842C11.7832 11.858 11.5193 11.7675 11.3173 11.5901C11.1154 11.4127 10.9915 11.1628 10.9726 10.8947V9.88672H13.1305V10.8947ZM13.1305 8.93936H11.015L11.4569 3.78946H13.1305L13.1305 8.93936ZM16.2358 10.8947C16.2016 11.1567 16.0733 11.3973 15.8747 11.5716C15.6762 11.7459 15.421 11.842 15.1568 11.842C14.8926 11.842 14.6374 11.7459 14.4389 11.5716C14.2403 11.3973 14.112 11.1567 14.0778 10.8947V9.88672H16.2358V10.8947ZM16.2358 8.93936H14.0778V3.78946H16.2358L16.2358 8.93936ZM19.3409 10.8947C19.3068 11.1567 19.1785 11.3973 18.9799 11.5716C18.7814 11.7459 18.5262 11.842 18.262 11.842C17.9978 11.842 17.7427 11.7459 17.5441 11.5716C17.3456 11.3973 17.2173 11.1567 17.1831 10.8947V9.88672H19.3409V10.8947ZM17.1831 8.93936V3.78946H18.8567L19.2986 8.93936H17.1831ZM19.8075 3.78946H21.962L22.4039 8.93936H20.2494L19.8075 3.78946ZM22.4462 10.8947C22.4121 11.1567 22.2837 11.3973 22.0852 11.5716C21.8867 11.7459 21.6315 11.842 21.3673 11.842C21.1031 11.842 20.8479 11.7459 20.6494 11.5716C20.4508 11.3973 20.3225 11.1567 20.2883 10.8947V9.88672H22.4462V10.8947ZM22.9128 3.78946H25.0672L25.5091 8.93936H23.3547L22.9128 3.78946ZM25.5514 10.8947C25.5173 11.1567 25.3889 11.3973 25.1904 11.5716C24.9919 11.7459 24.7367 11.842 24.4725 11.842C24.2083 11.842 23.9531 11.7459 23.7546 11.5716C23.5561 11.3973 23.4278 11.1567 23.3936 10.8947V9.88672H25.5514V10.8947ZM26.0181 3.78946H27.9462C28.0214 3.78904 28.0966 3.78416 28.1712 3.77483L28.6144 8.93936H26.4599L26.0181 3.78946ZM28.6567 10.8947C28.6226 11.1567 28.4942 11.3973 28.2957 11.5716C28.0971 11.7459 27.842 11.842 27.5778 11.842C27.3136 11.842 27.0584 11.7459 26.8598 11.5716C26.6613 11.3973 26.533 11.1567 26.4988 10.8947V9.88672H28.6567V10.8947ZM2.36739 0.947365H27.9462C28.1975 0.947365 28.4384 1.04718 28.6161 1.22484C28.7938 1.40251 28.8936 1.64347 28.8936 1.89473C28.8936 2.14599 28.7938 2.38695 28.6161 2.56462C28.4384 2.74228 28.1975 2.84209 27.9462 2.84209H2.36739C2.11613 2.84209 1.87516 2.74228 1.6975 2.56462C1.51983 2.38695 1.42002 2.14599 1.42002 1.89473C1.42002 1.64347 1.51983 1.40251 1.6975 1.22484C1.87516 1.04718 2.11613 0.947365 2.36739 0.947365Z" fill="#E85123"/>
<path d="M4.5001 15.6309C4.24893 15.6311 4.00813 15.7311 3.83053 15.9087C3.65293 16.0863 3.55302 16.3271 3.55273 16.5782V23.2098C3.55302 23.4609 3.65293 23.7017 3.83053 23.8793C4.00813 24.0569 4.24893 24.1568 4.5001 24.1571H16.8158C17.067 24.1568 17.3078 24.0569 17.4854 23.8793C17.663 23.7017 17.7629 23.4609 17.7632 23.2098V16.5782C17.7629 16.3271 17.663 16.0863 17.4854 15.9087C17.3078 15.7311 17.067 15.6311 16.8158 15.6309H4.5001ZM4.5001 23.2098V16.5782H16.8158L16.8164 23.2098H4.5001Z" fill="#E85123"/>
<path d="M24.3936 19.8945C24.268 19.8945 24.1475 19.9444 24.0587 20.0333C23.9698 20.1221 23.9199 20.2426 23.9199 20.3682V21.3156C23.9199 21.4412 23.9698 21.5617 24.0587 21.6505C24.1475 21.7394 24.268 21.7893 24.3936 21.7893C24.5192 21.7893 24.6397 21.7394 24.7285 21.6505C24.8174 21.5617 24.8673 21.4412 24.8673 21.3156V20.3682C24.8673 20.2426 24.8174 20.1221 24.7285 20.0333C24.6397 19.9444 24.5192 19.8945 24.3936 19.8945Z" fill="#E85123"/>
</svg>
