<svg width="31" height="32" viewBox="0 0 31 32" fill="none" xmlns="http://www.w3.org/2000/svg">
<path d="M23.5 17.0002H7.5C7.23478 17.0002 6.98043 16.8948 6.79289 16.7073C6.60536 16.5198 6.5 16.2654 6.5 16.0002C6.5 15.735 6.60536 15.4806 6.79289 15.2931C6.98043 15.1055 7.23478 15.0002 7.5 15.0002H21.09L19.79 13.7102C19.6968 13.6169 19.6228 13.5063 19.5723 13.3844C19.5219 13.2626 19.4959 13.132 19.4959 13.0002C19.4959 12.7339 19.6017 12.4785 19.79 12.2902C19.9783 12.1019 20.2337 11.9961 20.5 11.9961C20.6319 11.9961 20.7624 12.0221 20.8842 12.0725C21.0061 12.123 21.1168 12.1969 21.21 12.2902L24.21 15.2902C24.3488 15.4308 24.4428 15.6094 24.4801 15.8034C24.5175 15.9974 24.4966 16.1981 24.42 16.3802C24.345 16.5628 24.2176 16.7191 24.0539 16.8295C23.8901 16.9398 23.6974 16.9992 23.5 17.0002Z" fill="white"/>
<path d="M20.4999 20.0002C20.3683 20.0009 20.2379 19.9757 20.116 19.926C19.9942 19.8762 19.8834 19.8029 19.7899 19.7102C19.6962 19.6172 19.6218 19.5066 19.571 19.3848C19.5203 19.2629 19.4941 19.1322 19.4941 19.0002C19.4941 18.8682 19.5203 18.7375 19.571 18.6156C19.6218 18.4937 19.6962 18.3831 19.7899 18.2902L22.7899 15.2902C22.9782 15.1019 23.2336 14.9961 23.4999 14.9961C23.7662 14.9961 24.0216 15.1019 24.2099 15.2902C24.3982 15.4785 24.504 15.7339 24.504 16.0002C24.504 16.2665 24.3982 16.5219 24.2099 16.7102L21.2099 19.7102C21.1165 19.8029 21.0057 19.8762 20.8838 19.926C20.762 19.9757 20.6315 20.0009 20.4999 20.0002Z" fill="white"/>
</svg>
