<svg width="23" height="23" viewBox="0 0 23 23" fill="none" xmlns="http://www.w3.org/2000/svg">
<path d="M12.6269 0.052565C9.90163 -0.207985 7.1722 0.505807 4.9274 2.06611C2.6826 3.62642 1.06905 5.93132 0.375711 8.56806C-0.317628 11.2048 -0.0454698 14.0011 1.14345 16.4563C2.33236 18.9115 4.36038 20.8651 6.86432 21.9674C8.31445 22.6202 9.88314 22.9716 11.4744 23C14.0076 23.0002 16.4703 22.1695 18.4817 20.6364C18.7244 20.4521 18.8838 20.1795 18.9249 19.8783C18.9659 19.5772 18.8853 19.2721 18.7007 19.0301C18.6089 18.9088 18.4939 18.8068 18.3623 18.7301C18.2306 18.6534 18.085 18.6034 17.9339 18.5832C17.7827 18.5629 17.629 18.5727 17.4817 18.612C17.3344 18.6513 17.1963 18.7193 17.0756 18.8121C15.8803 19.7109 14.483 20.3063 13.0046 20.5467C11.5262 20.7871 10.0113 20.6653 8.59079 20.1918C7.17033 19.7183 5.88714 18.9073 4.85225 17.8291C3.81736 16.7509 3.06194 15.4379 2.65134 14.0038C2.24074 12.5696 2.18733 11.0574 2.49573 9.59805C2.80414 8.1387 3.46506 6.77613 4.42132 5.62823C5.37759 4.48033 6.60039 3.58167 7.98394 3.01001C9.36749 2.43834 10.8701 2.21088 12.3618 2.34731C14.6769 2.61406 16.8103 3.72604 18.3495 5.46817C19.8887 7.21029 20.7242 9.45877 20.6945 11.7787V12.5589C20.6932 12.8225 20.6385 13.0831 20.5338 13.3252C20.429 13.5673 20.2764 13.7859 20.0849 13.968C19.8934 14.15 19.6671 14.2918 19.4193 14.3848C19.1716 14.4779 18.9076 14.5202 18.643 14.5094C18.1154 14.4518 17.6294 14.1971 17.2829 13.7969C16.9364 13.3966 16.7553 12.8804 16.776 12.3524V7.39574C16.776 7.09144 16.6545 6.7996 16.4384 6.58443C16.2222 6.36926 15.9291 6.24837 15.6234 6.24837C15.342 6.246 15.0695 6.3462 14.8572 6.53008C14.6449 6.71396 14.5075 6.96881 14.4709 7.24659C13.3983 6.241 11.9796 5.68261 10.5063 5.68616C9.50494 5.69363 8.5222 5.95616 7.65162 6.44873C6.78105 6.94131 6.05162 7.64754 5.53278 8.50019C5.01395 9.35283 4.72299 10.3235 4.68761 11.3198C4.65223 12.316 4.8736 13.3047 5.33065 14.1917C5.78769 15.0787 6.4652 15.8345 7.29866 16.387C8.13212 16.9396 9.09378 17.2705 10.0921 17.3484C11.0904 17.4263 12.0921 17.2484 13.0018 16.8318C13.9115 16.4152 14.699 15.7737 15.2892 14.9684C15.6237 15.4836 16.0693 15.9181 16.5937 16.2405C17.118 16.5628 17.7078 16.7648 18.3203 16.8318C18.9329 16.8989 19.5527 16.8292 20.1348 16.628C20.7169 16.4267 21.2467 16.0989 21.6857 15.6683C22.1081 15.2682 22.4429 14.7854 22.669 14.2503C22.8951 13.7152 23.0077 13.1394 22.9995 12.5589V11.7787C23.0253 8.89533 21.9809 6.10398 20.0667 3.93998C18.1525 1.77599 15.5032 0.391684 12.6269 0.052565ZM10.5293 15.0717C9.82497 15.0717 9.13643 14.8637 8.55079 14.4742C7.96514 14.0846 7.50868 13.5309 7.23914 12.883C6.96959 12.2352 6.89907 11.5224 7.03648 10.8346C7.17389 10.1469 7.51307 9.51515 8.01112 9.01932C8.50917 8.52349 9.14373 8.18583 9.83455 8.04903C10.5254 7.91223 11.2414 7.98244 11.8922 8.25078C12.5429 8.51912 13.0991 8.97354 13.4904 9.55658C13.8817 10.1396 14.0906 10.8251 14.0906 11.5263C14.0876 12.4656 13.7114 13.3657 13.0442 14.0299C12.377 14.6941 11.4729 15.0686 10.5293 15.0717Z" fill="#E85123"/>
</svg>
