<svg width="26" height="34" viewBox="0 0 26 34" fill="none" xmlns="http://www.w3.org/2000/svg">
<path d="M13.312 17.9617C13.312 17.4739 14.0527 17.4739 14.0527 17.9617V20.1199H20.7559C20.9559 20.1199 21.1263 20.2825 21.1263 20.4894V22.618C21.1263 23.1058 20.3856 23.1058 20.3856 22.618V20.8664H6.97913V22.618C6.97913 23.1058 6.23844 23.1058 6.23844 22.618V20.4968C6.23844 20.2973 6.4014 20.1273 6.60879 20.1273H13.312V17.9617ZM22.941 26.4465C23.0743 26.2913 23.3039 26.2765 23.4594 26.4095C23.615 26.5426 23.6298 26.7717 23.4965 26.9269L19.919 31.088C19.7634 31.2654 19.4745 31.2654 19.3264 31.051L17.9784 29.1737C17.8598 29.0111 17.8969 28.7746 18.0598 28.6638C18.2228 28.5455 18.4524 28.5825 18.5709 28.7451L19.6597 30.2528L22.941 26.4465ZM8.03091 26.8234C8.37163 26.4835 8.89751 27.0008 8.5568 27.3482L7.13468 28.7672L8.5568 30.1863C8.89751 30.5263 8.37903 31.051 8.03091 30.711L6.60879 29.292L5.18667 30.711C4.84595 31.051 4.32006 30.5337 4.66078 30.1863L6.0829 28.7672L4.66078 27.3482C4.31266 27.0082 4.83854 26.4835 5.18667 26.8234L6.60879 28.2425L8.03091 26.8234ZM15.8748 23.5271H25.6297C25.8296 23.5271 26 23.6897 26 23.8966V33.6305C26 33.83 25.837 34 25.6297 34H15.8748C15.6748 34 15.5045 33.8374 15.5045 33.6305V23.8966C15.5045 23.6971 15.6748 23.5271 15.8748 23.5271ZM25.2593 24.2662H16.2451V33.2609H25.2593V24.2662ZM1.72766 23.5271H11.4825C11.6825 23.5271 11.8529 23.6897 11.8529 23.8966V33.6305C11.8529 33.83 11.6899 34 11.4825 34H1.72766C1.52767 34 1.35731 33.8374 1.35731 33.6305V23.8966C1.35731 23.6971 1.52767 23.5271 1.72766 23.5271ZM11.1122 24.2662H2.098V33.2609H11.1122V24.2662ZM9.86782 7.511H12.3787C12.5787 7.511 12.7491 7.67361 12.7491 7.88055V11.5982C12.7491 11.8051 12.5861 11.9677 12.3787 11.9677H9.86782C9.66783 11.9677 9.49747 11.8051 9.49747 11.5982V7.88055C9.50488 7.681 9.66783 7.511 9.86782 7.511ZM12.0158 8.2501H10.2456V11.2286H12.0158V8.2501ZM13.8972 5.27156H16.4081C16.6081 5.27156 16.7784 5.43416 16.7784 5.64111V11.5982C16.7784 11.8051 16.6155 11.9677 16.4081 11.9677H13.8972C13.6898 11.9677 13.5268 11.8051 13.5268 11.5982V5.64111C13.5268 5.43416 13.6898 5.27156 13.8972 5.27156ZM16.0377 6.01065H14.2675V11.236H16.0377V6.01065ZM5.91995 17.0231L4.71263 15.8184C4.53486 15.641 4.23859 15.641 4.06082 15.8184L0.875864 19.0039C0.698099 19.1812 0.698099 19.4769 0.875864 19.6543L2.07578 20.859C2.25354 21.0364 2.54982 21.0364 2.72758 20.859L5.91254 17.6735C6.09771 17.4961 6.10512 17.2079 5.91995 17.0231ZM5.50516 15.5597L6.1866 16.2397L7.66797 14.7615C7.8087 14.6211 8.03832 14.6211 8.18645 14.7541C8.87529 15.3084 9.65302 15.7445 10.5048 16.0475C13.3935 17.0748 16.5933 16.321 18.7264 14.1924C21.8077 11.1178 21.8077 6.12891 18.7264 3.05429C15.6452 -0.0203245 10.6455 -0.0203245 7.56428 3.05429C4.69781 5.91457 4.4682 10.4674 7.01617 13.5937C7.13468 13.7415 7.11986 13.9559 6.99395 14.0889L5.50516 15.5597ZM6.66804 16.8014C6.89766 17.2596 6.81618 17.8213 6.44584 18.1909L3.25347 21.3763C2.78684 21.842 2.02393 21.842 1.5573 21.3763L0.349975 20.1716C-0.116658 19.706 -0.116658 18.9447 0.349975 18.4791L3.54234 15.301C3.91268 14.9315 4.48301 14.8502 4.93483 15.0793L6.23104 13.7859C3.65344 10.3639 3.98675 5.55981 7.03098 2.52215C10.4011 -0.840715 15.8674 -0.840715 19.2449 2.52215C22.6225 5.88501 22.6225 11.3395 19.2449 14.7097C16.2007 17.7474 11.3862 18.08 7.95684 15.508L6.66804 16.8014ZM13.1417 2.7217C9.87522 2.7217 7.23097 5.36025 7.23097 8.61964C7.23097 11.879 9.87522 14.5176 13.1417 14.5176C16.4081 14.5176 19.0523 11.879 19.0523 8.61964C19.0523 5.36025 16.4081 2.7217 13.1417 2.7217ZM8.43829 3.92642C11.0381 1.33221 15.2526 1.33221 17.845 3.92642C20.4448 6.52062 20.4448 10.726 17.845 13.3129C15.2452 15.9071 11.0307 15.9071 8.43829 13.3129C5.83847 10.7187 5.83847 6.51323 8.43829 3.92642Z" fill="white"/>
</svg>
