<svg width="26" height="26" viewBox="0 0 26 26" fill="none" xmlns="http://www.w3.org/2000/svg">
<path d="M19.3786 26.0016C18.3103 26.0019 17.2604 25.7232 16.3329 25.1929L16.2021 25.1192C10.1722 21.6699 5.12742 16.732 1.54979 10.7772L0.867781 9.64055C0.169256 8.47847 -0.120199 7.11601 0.0455442 5.77031C0.211288 4.4246 0.822691 3.1731 1.78232 2.21524L3.14115 0.856408C4.28303 -0.285469 6.14014 -0.285469 7.28098 0.856408L10.2748 3.8502C10.7253 4.30289 11.0161 4.89007 11.103 5.52282C11.1899 6.15556 11.0682 6.7994 10.7564 7.3568L9.63117 9.35508C9.60752 9.39713 9.59827 9.44575 9.60483 9.49355C9.61139 9.54134 9.6334 9.58567 9.6675 9.61979L16.3329 16.2852C16.3676 16.3192 16.4123 16.341 16.4605 16.3474C16.5086 16.3537 16.5574 16.3443 16.5997 16.3205L18.5949 15.1963L18.5959 15.1953C19.1534 14.8838 19.7972 14.7623 20.4298 14.8492C21.0625 14.9361 21.6497 15.2267 22.1025 15.6769L25.0974 18.6728C26.2392 19.8147 26.2392 21.6718 25.0974 22.8126L23.6783 24.2306C23.1132 24.7939 22.4426 25.2402 21.7048 25.5441C20.967 25.848 20.1765 26.0034 19.3786 26.0016ZM5.21106 2.07614C4.99307 2.07614 4.77508 2.15918 4.60898 2.32528L3.25015 3.68307C2.61856 4.31353 2.21615 5.13724 2.10703 6.02295C1.99792 6.90866 2.18838 7.8054 2.64807 8.5703L3.33008 9.70699C6.72368 15.3559 11.5089 20.0404 17.2288 23.313L17.3596 23.3867C18.9437 24.2929 20.9368 24.0365 22.2095 22.7618L23.6285 21.3438C23.7076 21.2647 23.7703 21.1708 23.8132 21.0675C23.856 20.9642 23.878 20.8535 23.878 20.7417C23.878 20.6298 23.856 20.5191 23.8132 20.4158C23.7703 20.3125 23.7076 20.2186 23.6285 20.1396L20.6337 17.1437C20.5019 17.0127 20.3309 16.9282 20.1468 16.9031C19.9626 16.878 19.7753 16.9137 19.6132 17.0046L17.6181 18.1289C17.1806 18.3738 16.6752 18.4695 16.1785 18.4015C15.6817 18.3335 15.2207 18.1055 14.8651 17.752L8.19967 11.0866C7.84583 10.7315 7.61756 10.2705 7.54955 9.77385C7.48154 9.27716 7.5775 8.77184 7.82285 8.33466L8.94812 6.33742C9.03852 6.1753 9.07375 5.98818 9.04847 5.8043C9.02319 5.62041 8.93878 5.44973 8.80798 5.31803L5.81315 2.32528C5.73413 2.24615 5.64027 2.18341 5.53695 2.14066C5.43363 2.09791 5.32288 2.07598 5.21106 2.07614Z" fill="#E85123"/>
</svg>
