<svg width="43" height="48" viewBox="0 0 43 48" fill="none" xmlns="http://www.w3.org/2000/svg">
<path d="M42.9016 31.3081C41.9034 29.6407 39.7534 29.0483 38.0422 29.9807L37.8996 30.0575C36.9781 28.9935 35.4205 28.5876 34.2248 29.1909C34.2248 29.1909 34.2138 29.1909 34.2138 29.2019L33.7531 29.4542C32.4587 28.3902 30.6378 28.2476 29.1788 29.0812L26.4035 30.5841H22.7068C21.917 30.5841 21.1382 30.4086 20.4252 30.0575L19.9096 29.8052C16.904 28.3463 13.3389 28.6973 10.6733 30.7047C10.6623 30.7157 10.6404 30.7267 10.6294 30.7376L9.38988 31.8346C8.96207 32.2185 8.45747 32.5037 7.909 32.6902L7.23986 30.4853C7.1521 30.2111 6.8998 30.0246 6.6146 30.0246H0.658169C0.296176 30.0246 0 30.3208 0 30.6828C0 30.7047 0 30.7376 0 30.7596L1.99645 47.0931C2.04032 47.4222 2.31456 47.6745 2.65461 47.6745H11.6167C11.9787 47.6745 12.2748 47.3783 12.2748 47.0163C12.2748 46.9505 12.2639 46.8847 12.2419 46.8299L11.0792 43.0344L14.6772 40.7637C15.1489 40.5114 15.6973 40.4347 16.2129 40.5663C16.2239 40.5663 16.2348 40.5773 16.2568 40.5773L23.716 41.9484C25.7673 42.3104 27.8734 42.0143 29.7383 41.0928C29.7712 41.0819 29.7931 41.0599 29.815 41.0489L42.7152 32.1966C43.0004 31.9991 43.0881 31.6152 42.9016 31.3081ZM34.8391 30.3756C35.4314 30.0795 36.1773 30.2879 36.6929 30.7267L31.9212 33.2935L31.7347 33.3923C31.5921 33.0193 31.4056 32.6683 31.1643 32.3502L34.8391 30.3756ZM29.826 30.233L29.837 30.2221C30.6378 29.7614 31.625 29.7394 32.4477 30.1563L30.177 31.3739C29.7821 31.0887 29.3324 30.8802 28.8607 30.7486L29.826 30.233ZM3.236 46.3582L1.40409 31.3519H6.14291L10.7172 46.3582H3.236ZM29.113 39.941C27.5115 40.7199 25.7015 40.9722 23.9464 40.654L16.5091 39.2829C15.6644 39.0744 14.7759 39.1951 14.019 39.6229C14.008 39.6339 13.9971 39.6339 13.9861 39.6449L10.6733 41.74L8.3039 33.9736C9.02788 33.7433 9.70799 33.3593 10.2784 32.8438L11.496 31.7578C13.7667 30.0575 16.7943 29.7614 19.3502 31.0009L19.8657 31.2532C20.7543 31.681 21.7305 31.9004 22.7178 31.9114H27.676C29.0801 31.9114 30.2977 32.8767 30.6268 34.2479L27.1604 34.0943C25.8441 34.0395 24.5278 34.0943 23.2334 34.2808C22.8714 34.3356 22.6191 34.6647 22.6739 35.0267C22.7288 35.3887 23.0578 35.641 23.4198 35.5861C24.6375 35.4216 25.877 35.3558 27.1166 35.4106L31.3508 35.5971C31.3617 35.5971 31.3727 35.5971 31.3837 35.5971C31.7457 35.5971 32.0419 35.3009 32.0419 34.939C32.0419 34.8731 32.0419 34.7963 32.0419 34.7305L32.5684 34.4563L38.7003 31.1545C39.5889 30.6718 40.6858 30.8254 41.4208 31.5165L29.113 39.941Z" fill="#E85123"/>
<path d="M4.80469 44.1624C4.80469 45.1826 5.63837 46.0163 6.65853 46.0163C7.67869 46.0163 8.51237 45.1826 8.51237 44.1624C8.51237 43.1423 7.67869 42.3086 6.65853 42.3086C5.63837 42.3086 4.80469 43.1313 4.80469 44.1624ZM6.65853 43.6249C6.9547 43.6249 7.19603 43.8663 7.19603 44.1624C7.19603 44.4586 6.9547 44.6999 6.65853 44.6999C6.36235 44.6999 6.12103 44.4586 6.12103 44.1624C6.12103 43.8663 6.36235 43.6249 6.65853 43.6249Z" fill="#E85123"/>
<path d="M17.4433 19.11H28.4128C28.7748 19.11 29.071 18.8139 29.071 18.4519V7.48239C29.071 7.12039 28.7748 6.82422 28.4128 6.82422H17.4433C17.0813 6.82422 16.7852 7.12039 16.7852 7.48239V18.4519C16.7852 18.8139 17.0813 19.11 17.4433 19.11ZM18.1015 8.14056H27.7546V17.7937H18.1015V8.14056Z" fill="#E85123"/>
<path d="M16.8516 21.2278H29.0058C30.2125 21.2278 31.1778 20.2515 31.1778 19.0559V6.89071C31.1778 5.68406 30.2015 4.71875 29.0058 4.71875H16.8516C15.645 4.71875 14.6797 5.69503 14.6797 6.89071V19.0449C14.6797 20.2515 15.656 21.2168 16.8516 21.2278ZM15.996 6.89071C15.996 6.41902 16.38 6.03509 16.8516 6.03509H29.0058C29.4775 6.03509 29.8614 6.41902 29.8614 6.89071V19.0449C29.8614 19.5166 29.4775 19.9005 29.0058 19.9005H16.8516C16.38 19.9005 15.996 19.5166 15.996 19.0449V6.89071Z" fill="#E85123"/>
<path d="M18.4629 3.89417C18.8248 3.89417 19.121 3.59799 19.121 3.236V0.658169C19.121 0.296176 18.8248 0 18.4629 0C18.1009 0 17.8047 0.296176 17.8047 0.658169V3.236C17.8047 3.59799 18.1009 3.89417 18.4629 3.89417Z" fill="#E85123"/>
<path d="M27.3925 3.89417C27.7545 3.89417 28.0507 3.59799 28.0507 3.236V0.658169C28.0507 0.296176 27.7545 0 27.3925 0C27.0306 0 26.7344 0.296176 26.7344 0.658169V3.236C26.7344 3.59799 27.0306 3.89417 27.3925 3.89417Z" fill="#E85123"/>
<path d="M20.6875 3.89417C21.0495 3.89417 21.3456 3.59799 21.3456 3.236V0.658169C21.3456 0.296176 21.0495 0 20.6875 0C20.3255 0 20.0293 0.296176 20.0293 0.658169V3.236C20.0293 3.59799 20.3255 3.89417 20.6875 3.89417Z" fill="#E85123"/>
<path d="M22.9257 3.89417C23.2877 3.89417 23.5839 3.59799 23.5839 3.236V0.658169C23.5839 0.296176 23.2877 0 22.9257 0C22.5638 0 22.2676 0.296176 22.2676 0.658169V3.236C22.2676 3.59799 22.5638 3.89417 22.9257 3.89417Z" fill="#E85123"/>
<path d="M25.164 3.89417C25.526 3.89417 25.8222 3.59799 25.8222 3.236V0.658169C25.8222 0.296176 25.526 0 25.164 0C24.802 0 24.5059 0.296176 24.5059 0.658169V3.236C24.5059 3.59799 24.7911 3.89417 25.164 3.89417Z" fill="#E85123"/>
<path d="M17.8047 22.705V25.2829C17.8047 25.6449 18.1009 25.941 18.4629 25.941C18.8248 25.941 19.121 25.6449 19.121 25.2829V22.705C19.121 22.3431 18.8248 22.0469 18.4629 22.0469C18.1009 22.0469 17.8047 22.3431 17.8047 22.705Z" fill="#E85123"/>
<path d="M26.7344 22.705V25.2829C26.7344 25.6449 27.0306 25.941 27.3925 25.941C27.7545 25.941 28.0507 25.6449 28.0507 25.2829V22.705C28.0507 22.3431 27.7545 22.0469 27.3925 22.0469C27.0306 22.0469 26.7344 22.3431 26.7344 22.705Z" fill="#E85123"/>
<path d="M20.0293 22.705V25.2829C20.0293 25.6449 20.3255 25.941 20.6875 25.941C21.0495 25.941 21.3456 25.6449 21.3456 25.2829V22.705C21.3456 22.3431 21.0495 22.0469 20.6875 22.0469C20.3255 22.0469 20.0293 22.3431 20.0293 22.705Z" fill="#E85123"/>
<path d="M22.2676 22.705V25.2829C22.2676 25.6449 22.5638 25.941 22.9257 25.941C23.2877 25.941 23.5839 25.6449 23.5839 25.2829V22.705C23.5839 22.3431 23.2877 22.0469 22.9257 22.0469C22.5638 22.0469 22.2676 22.3431 22.2676 22.705Z" fill="#E85123"/>
<path d="M24.5059 22.705V25.2829C24.5059 25.6449 24.802 25.941 25.164 25.941C25.526 25.941 25.8222 25.6449 25.8222 25.2829V22.705C25.8222 22.3431 25.526 22.0469 25.164 22.0469C24.802 22.0469 24.5059 22.3431 24.5059 22.705Z" fill="#E85123"/>
<path d="M32.6679 9.40228H35.2458C35.6078 9.40228 35.9039 9.1061 35.9039 8.74411C35.9039 8.38211 35.6078 8.08594 35.2458 8.08594H32.6679C32.3059 8.08594 32.0098 8.38211 32.0098 8.74411C32.0098 9.11707 32.295 9.40228 32.6679 9.40228Z" fill="#E85123"/>
<path d="M32.6679 18.3398H35.2458C35.6078 18.3398 35.9039 18.0436 35.9039 17.6816C35.9039 17.3196 35.6078 17.0234 35.2458 17.0234H32.6679C32.3059 17.0234 32.0098 17.3196 32.0098 17.6816C32.0098 18.0436 32.295 18.3398 32.6679 18.3398Z" fill="#E85123"/>
<path d="M32.6679 11.6367H35.2458C35.6078 11.6367 35.9039 11.3405 35.9039 10.9785C35.9039 10.6165 35.6078 10.3203 35.2458 10.3203H32.6679C32.3059 10.3203 32.0098 10.6165 32.0098 10.9785C32.0098 11.3405 32.295 11.6367 32.6679 11.6367Z" fill="#E85123"/>
<path d="M32.6679 13.8749H35.2458C35.6078 13.8749 35.9039 13.5788 35.9039 13.2168C35.9039 12.8548 35.6078 12.5586 35.2458 12.5586H32.6679C32.3059 12.5586 32.0098 12.8548 32.0098 13.2168C32.0098 13.5788 32.295 13.8749 32.6679 13.8749Z" fill="#E85123"/>
<path d="M32.6679 16.1015H35.2458C35.6078 16.1015 35.9039 15.8053 35.9039 15.4433C35.9039 15.0813 35.6078 14.7852 35.2458 14.7852H32.6679C32.3059 14.7852 32.0098 15.0813 32.0098 15.4433C32.0098 15.8053 32.295 16.1015 32.6679 16.1015Z" fill="#E85123"/>
<path d="M10.6172 9.40228H13.195C13.557 9.40228 13.8531 9.1061 13.8531 8.74411C13.8531 8.38211 13.557 8.08594 13.195 8.08594H10.6172C10.2552 8.08594 9.95898 8.38211 9.95898 8.74411C9.95898 9.11707 10.2442 9.40228 10.6172 9.40228Z" fill="#E85123"/>
<path d="M10.6172 18.3398H13.195C13.557 18.3398 13.8531 18.0436 13.8531 17.6816C13.8531 17.3196 13.557 17.0234 13.195 17.0234H10.6172C10.2552 17.0234 9.95898 17.3196 9.95898 17.6816C9.95898 18.0436 10.2442 18.3398 10.6172 18.3398Z" fill="#E85123"/>
<path d="M10.6172 11.6367H13.195C13.557 11.6367 13.8531 11.3405 13.8531 10.9785C13.8531 10.6165 13.557 10.3203 13.195 10.3203H10.6172C10.2552 10.3203 9.95898 10.6165 9.95898 10.9785C9.95898 11.3405 10.2442 11.6367 10.6172 11.6367Z" fill="#E85123"/>
<path d="M10.6172 13.8749H13.195C13.557 13.8749 13.8531 13.5788 13.8531 13.2168C13.8531 12.8548 13.557 12.5586 13.195 12.5586H10.6172C10.2552 12.5586 9.95898 12.8548 9.95898 13.2168C9.95898 13.5788 10.2442 13.8749 10.6172 13.8749Z" fill="#E85123"/>
<path d="M10.6172 16.1015H13.195C13.557 16.1015 13.8531 15.8053 13.8531 15.4433C13.8531 15.0813 13.557 14.7852 13.195 14.7852H10.6172C10.2552 14.7852 9.95898 15.0813 9.95898 15.4433C9.95898 15.8053 10.2442 16.1015 10.6172 16.1015Z" fill="#E85123"/>
</svg>
