<svg width="44" height="39" viewBox="0 0 44 39" fill="none" xmlns="http://www.w3.org/2000/svg">
<path d="M40.6107 30.5037C40.1607 30.5037 39.7959 30.8685 39.7959 31.3185V34.3008C39.7959 35.6508 38.7015 36.7452 37.3514 36.7452H4.07411C2.72407 36.7452 1.62964 35.6508 1.62964 34.3008V8.22645C1.62964 6.87641 2.72407 5.78199 4.07411 5.78199H12.0757C12.5257 5.78199 12.8905 5.41718 12.8905 4.96717C12.8905 4.51715 12.5257 4.15234 12.0757 4.15234H4.07411C1.82404 4.15234 0 5.97638 0 8.22645V34.3008C0 36.5508 1.82404 38.3749 4.07411 38.3749H37.3514C39.5978 38.3659 41.4166 36.5471 41.4256 34.3008V31.3185C41.4256 30.8685 41.0607 30.5037 40.6107 30.5037Z" fill="#E85123"/>
<path d="M41.5546 16.8797H41.4242V8.22628C41.4153 5.97992 39.5964 4.1611 37.3501 4.15217C36.9001 4.15217 36.5353 4.51698 36.5353 4.96699C36.5353 5.41701 36.9001 5.78181 37.3501 5.78181C38.7001 5.78181 39.7945 6.87624 39.7945 8.22628V8.68258H38.8819L33.993 3.79365L30.4404 0.241023C30.2874 0.086767 30.0791 0 29.8619 0C29.6446 0 29.4363 0.086767 29.2833 0.241023L24.9811 4.54328L20.6625 0.241023C20.3402 -0.0715154 19.8278 -0.0715154 19.5055 0.241023L11.0639 8.68258H8.14685C7.69684 8.68258 7.33203 9.04739 7.33203 9.4974C7.33203 9.94742 7.69684 10.3122 8.14685 10.3122H39.7945V16.8308H35.036C31.8859 16.8308 29.3322 19.3845 29.3322 22.5346V23.1538C29.3322 26.3039 31.8859 28.8576 35.036 28.8576H41.5546C42.9046 28.8576 43.999 27.7632 43.999 26.4131V19.3242C43.999 17.9741 42.9046 16.8797 41.5546 16.8797ZM29.87 1.96845L32.233 4.33143C30.804 5.29156 28.9361 5.29156 27.507 4.33143L29.87 1.96845ZM26.35 5.48848C28.4285 7.07501 31.3115 7.07501 33.39 5.48848L36.6493 8.74777H29.1041L26.1218 5.70033L26.35 5.48848ZM16.898 8.74777L21.787 3.85883L22.9277 4.99958L19.1795 8.68258L16.898 8.74777ZM24.15 6.09145L26.8878 8.68258H21.4773L24.15 6.09145ZM20.0921 1.96845L20.6951 2.57141L14.5839 8.68258H13.378L20.0921 1.96845ZM42.3694 26.4131C42.3694 26.8631 42.0046 27.2279 41.5546 27.2279H35.036C33.9555 27.2279 32.9192 26.7987 32.1552 26.0347C31.3911 25.2706 30.9619 24.2343 30.9619 23.1538V22.5346C30.9619 20.2845 32.7859 18.4604 35.036 18.4604H41.5546C42.0046 18.4604 42.3694 18.8253 42.3694 19.2753V26.4131Z" fill="#E85123"/>
<path d="M35.1668 24.521C36.0668 24.521 36.7964 23.7914 36.7964 22.8914C36.7964 21.9913 36.0668 21.2617 35.1668 21.2617C34.2667 21.2617 33.5371 21.9913 33.5371 22.8914C33.5371 23.7914 34.2667 24.521 35.1668 24.521Z" fill="#E85123"/>
</svg>
