<svg width="40" height="41" viewBox="0 0 40 41" fill="none" xmlns="http://www.w3.org/2000/svg">
<path d="M11.2405 18.6934C7.86301 18.6934 5.11523 21.4412 5.11523 24.8186C5.11523 28.1961 7.86301 30.9439 11.2405 30.9439C14.618 30.9439 17.3658 28.1961 17.3658 24.8186C17.3658 21.4412 14.618 18.6934 11.2405 18.6934ZM11.2405 29.8272C8.47879 29.8272 6.23197 27.5803 6.23197 24.8186C6.23197 22.057 8.47879 19.8101 11.2405 19.8101C14.0023 19.8101 16.2491 22.057 16.2491 24.8186C16.2491 27.5803 14.0023 29.8272 11.2405 29.8272Z" fill="white"/>
<path d="M12.2496 20.881C12.181 20.381 11.7486 20.0039 11.2439 20.0039H11.2358C10.7311 20.0039 10.2987 20.381 10.23 20.8811L9.30401 27.6317C9.30054 27.6569 9.29883 27.6822 9.29883 27.7076C9.29883 28.7703 10.1634 29.6348 11.226 29.6348H11.2537C12.3163 29.6348 13.1809 28.7703 13.1809 27.7076C13.1809 27.6822 13.1792 27.6569 13.1757 27.6317L12.2496 20.881ZM11.2537 28.518H11.226C10.7902 28.518 10.4337 28.1723 10.4162 27.7409L11.2399 21.7369L12.0635 27.7409C12.046 28.1723 11.6894 28.518 11.2537 28.518Z" fill="white"/>
<path d="M19.1502 4.99104C19.1502 4.52428 18.7705 4.14453 18.3037 4.14453H4.1785C3.71174 4.14453 3.33203 4.52428 3.33203 4.99104V14.6708C3.33203 15.1375 3.71174 15.5172 4.1785 15.5172H18.3037C18.7705 15.5172 19.1502 15.1375 19.1502 14.6708V4.99104ZM18.0335 14.4005H4.44876V5.26126H18.0335L18.0335 14.4005Z" fill="white"/>
<path d="M38.6528 6.50105H38.3932L37.4993 2.90883C37.4643 2.76821 37.3767 2.65282 37.2618 2.5777V0.558366C37.2618 0.249971 37.0118 0 36.7034 0C36.395 0 36.145 0.249971 36.145 0.558366V2.5797C36.0316 2.65487 35.9452 2.76942 35.9105 2.90875L35.016 6.50105H34.754C34.4456 6.50105 34.1957 6.75102 34.1957 7.05942C34.1957 7.36781 34.4456 7.61778 34.754 7.61778H34.8831V15.6487C34.8817 15.6941 34.8858 15.7403 34.896 15.7862C34.9081 15.8414 34.9284 15.8936 34.9555 15.9414C35.0034 16.0261 35.0715 16.0947 35.1511 16.1431C35.204 16.1753 35.2626 16.199 35.3252 16.2122C35.3631 16.2203 35.402 16.2245 35.4413 16.2245C35.4477 16.2245 35.454 16.2244 35.4604 16.2242H36.1453V37.2229C36.1453 38.6898 34.9519 39.8833 33.485 39.8833H9.5728C8.10585 39.8833 6.91242 38.6898 6.91242 37.2229V34.8358H15.7139V35.4473C15.7139 36.605 16.6557 37.5468 17.8134 37.5468H27.2805C28.4381 37.5468 29.38 36.605 29.38 35.4473V16.2242H30.0737C30.1198 16.2254 30.1654 16.2204 30.2099 16.2104C30.2378 16.2041 30.2649 16.1956 30.2911 16.1853C30.361 16.1577 30.4259 16.1159 30.4811 16.0606C30.5917 15.9501 30.6485 15.801 30.6444 15.6504V7.61778H30.7711C31.0795 7.61778 31.3294 7.36781 31.3294 7.05942C31.3294 6.75102 31.0795 6.50105 30.7711 6.50105H30.5115L29.6176 2.90883C29.5826 2.76822 29.495 2.65284 29.3801 2.57773V0.558366C29.3801 0.249971 29.1301 0 28.8217 0C28.5133 0 28.2634 0.249971 28.2634 0.558366V2.5797C28.15 2.65487 28.0636 2.76942 28.0289 2.90875L27.1344 6.50105H26.8724C26.564 6.50105 26.314 6.75102 26.314 7.05942C26.314 7.36781 26.564 7.61778 26.8724 7.61778H27.0014V15.6487C27 15.6941 27.0042 15.7403 27.0144 15.7862C27.0265 15.8414 27.0468 15.8936 27.0739 15.9414C27.1218 16.0261 27.1898 16.0947 27.2695 16.1431C27.3223 16.1753 27.381 16.199 27.4435 16.2122C27.4814 16.2203 27.5204 16.2245 27.5597 16.2245C27.566 16.2245 27.5724 16.2244 27.5787 16.2242H28.2633V35.4473C28.2633 35.9893 27.8224 36.4301 27.2805 36.4301H17.8134C17.2714 36.4301 16.8306 35.9893 16.8306 35.4473V34.8358H18.979C20.9096 34.8358 22.4803 33.2651 22.4803 31.3345V3.50124C22.4803 1.57064 20.9096 0 18.979 0H3.50131C1.57068 0 0 1.57064 0 3.50124V31.3345C0 33.2651 1.57068 34.8358 3.50131 34.8358H5.79569V37.2229C5.79569 39.3056 7.49011 41 9.5728 41H33.485C35.5677 41 37.262 39.3056 37.262 37.2229V16.2242H37.9561C38.003 16.2252 38.0493 16.2202 38.0946 16.2097C38.1157 16.2048 38.1365 16.1986 38.1567 16.1914C38.2223 16.1678 38.2842 16.1317 38.3383 16.0837C38.4645 15.9719 38.5307 15.8119 38.526 15.6496V7.61778H38.6528C38.9612 7.61778 39.2111 7.36781 39.2111 7.05942C39.2111 6.75102 38.9612 6.50105 38.6528 6.50105ZM28.8231 4.34073L29.3607 6.50105H28.2852L28.8231 4.34073ZM28.1181 7.61778H29.5276V15.1074H28.8262C28.8247 15.1074 28.8232 15.1072 28.8216 15.1072C28.8201 15.1072 28.8185 15.1074 28.817 15.1074H28.1181V7.61778ZM1.11673 31.3345V3.50124C1.11673 2.18641 2.18645 1.11673 3.50131 1.11673H18.979C20.2939 1.11673 21.3636 2.18641 21.3636 3.50124V31.3345C21.3636 32.6494 20.2939 33.719 18.979 33.719H3.50131C2.18645 33.719 1.11673 32.6494 1.11673 31.3345ZM36.7048 4.34066L37.2424 6.50105H36.1668L36.7048 4.34066ZM37.4093 15.1074H36.7083C36.7067 15.1074 36.7052 15.1072 36.7037 15.1072C36.7021 15.1072 36.7006 15.1074 36.699 15.1074H35.9998V7.61778H37.4093V15.1074Z" fill="white"/>
</svg>
