<svg width="28" height="28" viewBox="0 0 28 28" fill="none" xmlns="http://www.w3.org/2000/svg">
<g clip-path="url(#clip0_1_670)">
<path d="M9.73482 13.9918L5.46866 13.9856L5.47357 10.5727C5.47628 8.69025 7.00895 7.16199 8.89141 7.1647L9.318 7.16532C9.48619 7.16596 9.65285 7.13337 9.80841 7.06942C9.96396 7.00547 10.1054 6.91141 10.2245 6.79265C10.3435 6.6739 10.438 6.53278 10.5024 6.37741C10.5668 6.22204 10.5999 6.05547 10.5997 5.88728L10.6034 3.32759C10.6041 3.1594 10.5715 2.99274 10.5075 2.83718C10.4436 2.68163 10.3495 2.54024 10.2307 2.42114C10.112 2.30204 9.97087 2.20758 9.8155 2.14318C9.66013 2.07878 9.49356 2.04571 9.32537 2.04587L8.89878 2.04526C4.18468 2.03847 0.360968 5.85119 0.354182 10.5653L0.335757 23.3638C0.333723 24.777 1.4786 25.9252 2.89177 25.9272L9.71762 25.937C11.1308 25.9391 12.279 24.7942 12.281 23.381L12.2908 16.5552C12.2929 15.142 11.148 13.9938 9.73482 13.9918ZM25.093 14.0139L20.8268 14.0078L20.8317 10.5948C20.8345 8.71236 22.3671 7.1841 24.2496 7.18681L24.6762 7.18742C24.8444 7.18807 25.011 7.15548 25.1666 7.09153C25.3221 7.02757 25.4635 6.93352 25.5826 6.81476C25.7017 6.69601 25.7962 6.55489 25.8606 6.39952C25.925 6.24415 25.9581 6.07758 25.9579 5.90939L25.9616 3.3497C25.9622 3.18151 25.9296 3.01485 25.8657 2.85929C25.8017 2.70374 25.7077 2.56235 25.5889 2.44325C25.4702 2.32415 25.329 2.22969 25.1737 2.16529C25.0183 2.10089 24.8517 2.06782 24.6835 2.06798L24.257 2.06736C19.5429 2.06058 15.7191 5.8733 15.7124 10.5874L15.6939 23.3859C15.6919 24.7991 16.8368 25.9473 18.2499 25.9493L25.0758 25.9591C26.489 25.9612 27.6371 24.8163 27.6392 23.4031L27.649 16.5773C27.651 15.1641 26.5062 14.0159 25.093 14.0139Z" fill="#E85123"/>
</g>
<defs>
<clipPath id="clip0_1_670">
<rect width="26.9661" height="26.9661" fill="white" transform="translate(27.9595 27.998) scale(1.03681) rotate(-179.918)"/>
</clipPath>
</defs>
</svg>
