<svg width="29" height="29" viewBox="0 0 29 29" fill="none" xmlns="http://www.w3.org/2000/svg">
<path d="M14.4996 25.3312C8.51836 25.3312 3.66992 20.4828 3.66992 14.5016C3.66992 8.52031 8.51836 3.67188 14.4996 3.67188C20.4809 3.67188 25.3293 8.52031 25.3293 14.5016C25.3293 20.4828 20.4809 25.3312 14.4996 25.3312ZM14.4996 4.85C9.19805 4.85 4.84805 9.2 4.84805 14.5016C4.84805 19.8031 9.19805 24.1531 14.4996 24.1531C19.8012 24.1531 24.1512 19.8031 24.1512 14.5016C24.1512 9.2 19.8012 4.85 14.4996 4.85Z" fill="#E85123"/>
<path d="M14.2727 20.7086L13.457 19.8477L18.7586 14.5008L13.457 9.15392L14.2727 8.29297L20.4805 14.5008L14.2727 20.7086Z" fill="#E85123"/>
<path d="M19.6191 15.1359H8.74414V13.8672H19.6191V15.1359Z" fill="#E85123"/>
</svg>
