<svg width="20" height="25" viewBox="0 0 20 25" fill="none" xmlns="http://www.w3.org/2000/svg">
<path d="M10 10.9781C10.4945 10.9781 10.9778 10.8315 11.3889 10.5568C11.8 10.2821 12.1205 9.89166 12.3097 9.43484C12.4989 8.97803 12.5484 8.47536 12.452 7.99041C12.3555 7.50546 12.1174 7.06 11.7678 6.71037C11.4181 6.36074 10.9727 6.12264 10.4877 6.02617C10.0028 5.92971 9.50011 5.97922 9.04329 6.16844C8.58648 6.35766 8.19603 6.67809 7.92133 7.08921C7.64662 7.50033 7.5 7.98368 7.5 8.47814C7.5 9.14118 7.76339 9.77706 8.23223 10.2459C8.70107 10.7147 9.33696 10.9781 10 10.9781ZM9.1125 19.6156C9.2287 19.7328 9.36695 19.8258 9.51928 19.8893C9.6716 19.9527 9.83498 19.9854 10 19.9854C10.165 19.9854 10.3284 19.9527 10.4807 19.8893C10.633 19.8258 10.7713 19.7328 10.8875 19.6156L16 14.4906C17.1874 13.3038 17.9962 11.7915 18.3241 10.145C18.6519 8.49843 18.4841 6.79165 17.8419 5.2405C17.1996 3.68935 16.1117 2.36352 14.7159 1.43071C13.32 0.497895 11.6789 0 10 0C8.32114 0 6.68 0.497895 5.28414 1.43071C3.88828 2.36352 2.80042 3.68935 2.15815 5.2405C1.51588 6.79165 1.34806 8.49843 1.67591 10.145C2.00376 11.7915 2.81256 13.3038 4 14.4906L9.1125 19.6156ZM4.0375 7.90314C4.12291 7.01191 4.40627 6.151 4.86691 5.38328C5.32754 4.61556 5.95381 3.9604 6.7 3.46564C7.68025 2.82201 8.82733 2.47909 10 2.47909C11.1727 2.47909 12.3197 2.82201 13.3 3.46564C14.0412 3.9587 14.6639 4.60989 15.1234 5.37237C15.5829 6.13485 15.8677 6.98967 15.9573 7.87537C16.047 8.76107 15.9392 9.65562 15.6419 10.4947C15.3445 11.3338 14.8649 12.0966 14.2375 12.7281L10 16.9656L5.7625 12.7281C5.1344 12.1027 4.65366 11.3451 4.35526 10.5104C4.05685 9.67573 3.9483 8.78504 4.0375 7.90314ZM18.75 22.4781H1.25C0.918479 22.4781 0.600537 22.6098 0.366117 22.8443C0.131696 23.0787 0 23.3966 0 23.7281C0 24.0597 0.131696 24.3776 0.366117 24.612C0.600537 24.8464 0.918479 24.9781 1.25 24.9781H18.75C19.0815 24.9781 19.3995 24.8464 19.6339 24.612C19.8683 24.3776 20 24.0597 20 23.7281C20 23.3966 19.8683 23.0787 19.6339 22.8443C19.3995 22.6098 19.0815 22.4781 18.75 22.4781Z" fill="#E85123"/>
</svg>
