<svg width="41" height="41" viewBox="0 0 41 41" fill="none" xmlns="http://www.w3.org/2000/svg">
<path d="M39.3564 28.9274C41.1641 24.7418 41.4916 20.0623 40.2846 15.6645C39.0775 11.2667 36.4084 7.41464 32.7197 4.74673C33.0506 3.93764 33.0619 3.03253 32.7514 2.21535C32.4409 1.39818 31.8318 0.73026 31.0479 0.347354C30.264 -0.0355514 29.3641 -0.104713 28.5312 0.153927C27.6983 0.412567 26.9949 0.9796 26.5638 1.73978C23.0222 0.708496 19.2646 0.684336 15.7101 1.66999C12.1556 2.65565 8.94394 4.61237 6.43344 7.32189C6.10682 7.15618 5.7463 7.06881 5.38029 7.06666C4.91028 7.06477 4.45016 7.20198 4.05753 7.46113C3.6649 7.72028 3.35722 8.08984 3.173 8.52354C2.98878 8.95725 2.93622 9.43583 3.02189 9.89935C3.10757 10.3629 3.32766 10.7908 3.65463 11.1294C1.95993 14.1321 1.06848 17.5234 1.06693 20.9738C1.06693 21.4946 1.09238 22.0155 1.13184 22.5364C0.720164 22.7914 0.395557 23.1661 0.201101 23.6105C0.00664584 24.055 -0.0484637 24.5482 0.0430871 25.0248C0.134638 25.5014 0.36852 25.9388 0.713694 26.2789C1.05887 26.6191 1.49901 26.8459 1.97572 26.9293C3.07113 30.4651 5.12687 33.6248 7.91243 36.0544C7.54414 36.7836 7.46175 37.6248 7.68152 38.4119C7.90129 39.1991 8.40725 39.875 9.09955 40.3064C9.79185 40.7377 10.6202 40.8931 11.4211 40.7418C12.222 40.5906 12.9374 40.1438 13.4259 39.4895C15.8378 40.4903 18.423 41.0037 21.0332 41C23.685 40.9948 26.3094 40.4617 28.7544 39.4317C31.1993 38.4017 33.416 36.8952 35.2762 34.9996C36.0785 35.4604 37.025 35.5996 37.9254 35.3893C38.8258 35.1789 39.6135 34.6346 40.1302 33.8656C40.6469 33.0966 40.8543 32.16 40.7108 31.244C40.5672 30.3279 40.0834 29.5003 39.3564 28.9274ZM39.8757 20.9748C39.8791 23.5172 39.3668 26.0336 38.3697 28.3711C37.5759 28.069 36.7011 28.0579 35.8999 28.3398C34.1449 25.3409 32.003 22.5875 29.5296 20.1508C29.8096 19.777 30.006 19.3471 30.1055 18.8904C30.2049 18.4337 30.2051 17.9608 30.1059 17.504C30.0068 17.0471 29.8107 16.6171 29.5309 16.2432C29.2511 15.8692 28.8943 15.5601 28.4847 15.337C29.2984 12.5707 29.8103 9.72396 30.0115 6.84686C30.8294 6.73448 31.5793 6.3298 32.1235 5.70721C34.5231 7.45993 36.4759 9.7564 37.8228 12.4096C39.1698 15.0627 39.8728 17.9975 39.8747 20.9748H39.8757ZM34.6422 29.0873C31.9565 27.3534 29.0702 25.9541 26.0471 24.9204C26.0502 24.8683 26.0622 24.8203 26.0622 24.7683C26.0617 24.4433 25.9952 24.1219 25.8667 23.8236C25.7382 23.5252 25.5505 23.2563 25.3149 23.0333C25.6099 22.4874 25.8922 21.9335 26.1619 21.3717C26.5944 21.479 27.0444 21.4949 27.4834 21.4184C27.9223 21.3419 28.3406 21.1747 28.7117 20.9274C31.1155 23.2903 33.198 25.9609 34.9054 28.8701C34.814 28.9385 34.7263 29.0109 34.6422 29.0873ZM4.63197 23.7338C4.49461 23.3666 4.26937 23.039 3.97608 22.7796C5.9245 19.3164 8.39809 16.1782 11.3082 13.4775C11.6588 13.7626 12.067 13.9678 12.5046 14.0791C12.9421 14.1903 13.3985 14.2049 13.8422 14.1217C14.286 14.0386 14.7064 13.8598 15.0744 13.5976C15.4424 13.3355 15.7492 12.9963 15.9736 12.6035C18.7848 13.7268 21.4545 15.1779 23.9278 16.9266C23.6312 17.6282 23.5888 18.4118 23.8082 19.1414C24.0275 19.871 24.4946 20.5005 25.1285 20.9206C24.8761 21.4443 24.6121 21.9617 24.3365 22.4728C24.1196 22.4045 23.894 22.3682 23.6666 22.365C23.228 22.3665 22.7983 22.4891 22.4246 22.7193C22.0508 22.9496 21.7475 23.2786 21.5479 23.6703C15.9694 22.4795 10.2014 22.5012 4.63197 23.7338ZM15.2684 11.0424C15.269 11.4391 15.1523 11.827 14.933 12.1571C14.7137 12.4873 14.4018 12.7447 14.0365 12.8969C13.6713 13.0491 13.2693 13.0892 12.8814 13.0122C12.4934 12.9351 12.137 12.7444 11.8571 12.4641C11.5773 12.1838 11.3867 11.8265 11.3094 11.4375C11.232 11.0485 11.2715 10.6452 11.4228 10.2787C11.5741 9.9122 11.8303 9.59895 12.1592 9.37858C12.488 9.15821 12.8746 9.04064 13.2701 9.04074C13.7995 9.04129 14.307 9.25228 14.6816 9.62747C15.0561 10.0027 15.2672 10.5115 15.2684 11.0424ZM29.0549 18.2012C29.0549 18.6236 28.9301 19.0365 28.6961 19.3876C28.4622 19.7388 28.1296 20.0125 27.7406 20.1742C27.3515 20.3358 26.9234 20.3781 26.5104 20.2957C26.0974 20.2133 25.718 20.0099 25.4202 19.7113C25.1225 19.4126 24.9197 19.0321 24.8375 18.6178C24.7554 18.2036 24.7976 17.7742 24.9587 17.384C25.1199 16.9937 25.3928 16.6602 25.7429 16.4256C26.093 16.1909 26.5047 16.0656 26.9258 16.0656C27.4903 16.0663 28.0314 16.2916 28.4306 16.6919C28.8297 17.0922 29.0543 17.635 29.0549 18.2012ZM22.3969 24.7677C22.3969 24.5158 22.4714 24.2695 22.611 24.06C22.7505 23.8505 22.9489 23.6872 23.1809 23.5907C23.413 23.4943 23.6684 23.469 23.9148 23.5181C24.1611 23.5673 24.3875 23.6886 24.5651 23.8667C24.7428 24.0448 24.8638 24.2718 24.9129 24.5189C24.962 24.766 24.9369 25.0221 24.8408 25.2549C24.7448 25.4877 24.582 25.6868 24.3732 25.8268C24.1644 25.9669 23.9189 26.0417 23.6677 26.0418C23.3308 26.0416 23.0077 25.9074 22.7694 25.6685C22.5312 25.4296 22.3972 25.1056 22.3969 24.7677ZM29.5441 1.12724C30.0006 1.12724 30.4468 1.263 30.8263 1.51734C31.2058 1.77169 31.5016 2.1332 31.6763 2.55616C31.8509 2.97912 31.8966 3.44453 31.8076 3.89354C31.7185 4.34256 31.4987 4.755 31.176 5.07872C30.8532 5.40244 30.442 5.6229 29.9944 5.71221C29.5467 5.80153 29.0827 5.75569 28.661 5.58049C28.2393 5.40529 27.8788 5.10861 27.6253 4.72796C27.3717 4.3473 27.2363 3.89977 27.2363 3.44196C27.2369 2.82823 27.4802 2.23979 27.9129 1.80582C28.3456 1.37184 28.9322 1.12779 29.5441 1.12724ZM28.8856 6.81977C28.6887 9.58427 28.1963 12.3196 27.4171 14.9786C26.8927 14.8935 26.3554 14.9407 25.8538 15.1162C25.3522 15.2916 24.9021 15.5896 24.5442 15.9834C21.9962 14.1853 19.2461 12.6942 16.3506 11.5409C16.4574 10.9136 16.3648 10.2686 16.0858 9.69703C19.2615 7.5643 22.7367 5.91882 26.3966 4.81496C26.6193 5.32583 26.9621 5.77501 27.3955 6.12414C27.829 6.47326 28.3402 6.71193 28.8856 6.81977ZM21.0332 2.0799C22.7721 2.08232 24.5022 2.32633 26.1744 2.80495C26.134 3.01576 26.1133 3.2299 26.1126 3.44457C26.1126 3.53728 26.1193 3.62791 26.1266 3.71854C22.3266 4.85796 18.7191 6.56431 15.4252 8.78031C15.0678 8.4365 14.6339 8.18308 14.1594 8.04106C13.6849 7.89903 13.1834 7.87249 12.6967 7.96363C12.2099 8.05478 11.7518 8.26098 11.3603 8.56514C10.9688 8.86931 10.6552 9.26269 10.4456 9.71266C9.55447 9.51213 8.65296 9.34076 7.74884 9.20221C7.70332 8.78444 7.54834 8.3862 7.29964 8.04797C9.06137 6.16538 11.1887 4.66444 13.5506 3.63761C15.9125 2.61077 18.459 2.07976 21.0332 2.0773V2.0799ZM5.38029 8.19746C5.63139 8.19757 5.87682 8.27234 6.08556 8.41234C6.29429 8.55234 6.45695 8.75127 6.55297 8.98398C6.64899 9.2167 6.67406 9.47274 6.62501 9.71975C6.57596 9.96675 6.45499 10.1936 6.2774 10.3717C6.09981 10.5497 5.87357 10.671 5.62728 10.7201C5.381 10.7692 5.12573 10.7439 4.89375 10.6475C4.66178 10.5511 4.46351 10.3879 4.32401 10.1785C4.18452 9.96903 4.11006 9.72283 4.11006 9.47098C4.11048 9.13326 4.24445 8.80949 4.48259 8.57074C4.72073 8.33198 5.04358 8.19774 5.38029 8.19746ZM2.19227 20.9748C2.1943 17.7375 3.02658 14.5551 4.60912 11.7336C4.85728 11.8231 5.11865 11.8703 5.38237 11.8732C5.86732 11.8721 6.34051 11.7234 6.73927 11.4466C7.13804 11.1697 7.44356 10.778 7.61538 10.3231C8.4686 10.4549 9.31923 10.6158 10.16 10.8049C10.1543 10.8836 10.148 10.9612 10.148 11.0424C10.1483 11.5973 10.2966 12.1421 10.5775 12.6201C7.56039 15.4127 4.99775 18.6618 2.98265 22.2494C2.79091 22.1974 2.5934 22.1699 2.3948 22.1676C2.34287 22.1676 2.29093 22.1801 2.23485 22.1837C2.2094 21.7811 2.19227 21.3774 2.19227 20.9748ZM1.12509 24.5688C1.12499 24.3167 1.19941 24.0704 1.33895 23.8608C1.47848 23.6512 1.67686 23.4878 1.90898 23.3913C2.14111 23.2948 2.39655 23.2695 2.643 23.3187C2.88944 23.3678 3.11582 23.4892 3.2935 23.6674C3.47117 23.8456 3.59216 24.0726 3.64116 24.3198C3.69015 24.567 3.66495 24.8232 3.56875 25.056C3.47254 25.2889 3.30966 25.4878 3.10069 25.6278C2.89172 25.7677 2.64607 25.8424 2.3948 25.8423C2.05845 25.8419 1.73597 25.7078 1.49798 25.4694C1.26 25.231 1.12592 24.9077 1.12509 24.5703V24.5688ZM3.13221 26.8429C3.56345 26.7016 3.94567 26.4401 4.23416 26.0889C4.52265 25.7378 4.70548 25.3115 4.76128 24.8599C10.1943 23.64 15.8254 23.6073 21.2721 24.7641C21.2736 25.3663 21.5019 25.9456 21.9114 26.3861C19.5046 29.8062 16.5541 32.8065 13.1777 35.2673C12.5849 34.6418 11.7689 34.2779 10.9089 34.2554C10.0488 34.233 9.21501 34.5538 8.59064 35.1475C6.06101 32.9215 4.17555 30.0534 3.13221 26.8444V26.8429ZM10.8216 39.6702C10.3989 39.6702 9.98577 39.5445 9.63436 39.309C9.28294 39.0735 9.00904 38.7387 8.8473 38.3471C8.68556 37.9554 8.64324 37.5245 8.72569 37.1087C8.80815 36.6929 9.01167 36.311 9.31053 36.0113C9.60939 35.7115 9.99016 35.5074 10.4047 35.4247C10.8192 35.342 11.2489 35.3844 11.6394 35.5466C12.0298 35.7089 12.3636 35.9836 12.5984 36.3361C12.8332 36.6885 12.9585 37.1029 12.9585 37.5269C12.9578 38.0951 12.7325 38.6399 12.3319 39.0417C11.9313 39.4435 11.3881 39.6695 10.8216 39.6702ZM21.0332 39.8718C18.6016 39.8748 16.1927 39.4028 13.9411 38.4821C14.1709 37.7315 14.1221 36.9227 13.8034 36.2054C17.3019 33.6627 20.3577 30.5581 22.8477 27.0168C23.3682 27.2157 23.9424 27.2225 24.4674 27.0358C24.9925 26.8492 25.4342 26.4813 25.7137 25.998C28.5997 26.9885 31.3572 28.3215 33.9276 29.9686C33.5327 30.6441 33.365 31.4291 33.4491 32.2076C33.5333 32.9861 33.8649 33.7168 34.395 34.2918C30.8548 37.855 26.0486 39.8622 21.0332 39.8718ZM37.0928 34.3579C36.5906 34.3579 36.0997 34.2085 35.6822 33.9287C35.2646 33.6489 34.9392 33.2511 34.7471 32.7858C34.5549 32.3204 34.5047 31.8084 34.6027 31.3144C34.7007 30.8204 34.9426 30.3667 35.2977 30.0106C35.6528 29.6544 36.1052 29.412 36.5978 29.3138C37.0903 29.2156 37.6008 29.2661 38.0647 29.4589C38.5286 29.6517 38.9251 29.9782 39.204 30.397C39.4829 30.8159 39.6318 31.3082 39.6317 31.8119C39.631 32.487 39.3632 33.1343 38.8872 33.6116C38.4112 34.089 37.7659 34.3574 37.0928 34.3579Z" fill="#E85123"/>
</svg>
