<svg width="43" height="40" viewBox="0 0 43 40" fill="none" xmlns="http://www.w3.org/2000/svg">
<path d="M40.4286 0H2.5714C1.15368 0 0 1.15889 0 2.58359V28.8607C0 30.2854 1.15321 31.4447 2.5714 31.4447H15.9168L13.7368 35.8998H10.8557C9.73091 35.8998 8.81562 36.8196 8.81562 37.9499C8.81562 39.0802 9.73044 40 10.8557 40H32.1448C33.2696 40 34.1848 39.0802 34.1848 37.9499C34.1848 36.8196 33.2696 35.8998 32.1448 35.8998H29.2636L27.0836 31.4447H40.4291C41.8468 31.4447 43 30.2859 43 28.8607V2.58359C43 1.15889 41.8463 0 40.4286 0ZM32.9197 37.9494C32.9197 38.3789 32.5721 38.7286 32.1443 38.7286H10.8557C10.4283 38.7286 10.0803 38.3793 10.0803 37.9494C10.0803 37.52 10.4279 37.1703 10.8557 37.1703H32.1448C32.5721 37.1703 32.9197 37.52 32.9197 37.9494ZM27.8539 35.8993H15.1461L17.3261 31.4443H25.6743L27.8539 35.8993ZM41.7353 28.8607C41.7353 29.5845 41.1494 30.1738 40.4291 30.1738H2.5714C1.85111 30.1738 1.26471 29.585 1.26471 28.8607V2.58359C1.26471 1.85976 1.85064 1.27094 2.5714 1.27094H40.4291C41.1494 1.27094 41.7353 1.85976 41.7353 2.58359V28.8607ZM39.8123 2.56765H3.18766C2.83824 2.56765 2.55554 2.85222 2.55554 3.20289V28.2414C2.55554 28.5925 2.83871 28.8766 3.18766 28.8766H39.8123C40.1618 28.8766 40.4445 28.5921 40.4445 28.2414V3.20336C40.4449 2.85222 40.1618 2.56765 39.8123 2.56765ZM39.1802 27.6057H3.81978V3.83859H39.1798L39.1802 27.6057ZM11.6287 18.2535H12.801C13.2545 18.2535 13.6291 18.5047 13.8031 18.9262C13.9766 19.3472 13.8889 19.7916 13.5679 20.1137L12.739 20.9468C12.4982 21.1887 12.3658 21.5107 12.3658 21.8534C12.3658 22.1961 12.4982 22.5187 12.739 22.7601L14.4963 24.5261C14.9936 25.0263 15.8035 25.0263 16.3008 24.5261L17.1297 23.693C17.4507 23.3705 17.8925 23.2823 18.3114 23.4567C18.7303 23.6311 18.9809 24.0076 18.9809 24.4637V25.6419C18.9809 26.3488 19.5533 26.9245 20.2572 26.9245H22.7428C23.4463 26.9245 24.0187 26.3493 24.0187 25.6419V24.4637C24.0187 24.0081 24.2687 23.6316 24.6881 23.4567C25.1075 23.2823 25.5493 23.3705 25.8698 23.693L26.6988 24.5261C27.1961 25.0258 28.0059 25.0258 28.5032 24.5261L30.2606 22.7601C30.5013 22.5182 30.6338 22.1961 30.6338 21.8534C30.6338 21.5107 30.5013 21.1882 30.2606 20.9468L29.4316 20.1137C29.1106 19.7911 29.0229 19.3472 29.1965 18.9262C29.37 18.5047 29.7446 18.2535 30.1985 18.2535H31.3709C32.0744 18.2535 32.6472 17.6782 32.6472 16.9713V14.4739C32.6472 13.767 32.0748 13.1913 31.3709 13.1913H30.1985C29.7446 13.1913 29.3705 12.94 29.1965 12.5185C29.0229 12.0971 29.1106 11.6531 29.4316 11.3311L30.2606 10.498C30.5013 10.2561 30.6338 9.93401 30.6338 9.59132C30.6338 9.24815 30.5013 8.92608 30.2606 8.68464L28.5032 6.91865C28.2625 6.67675 27.942 6.5436 27.601 6.5436C27.2595 6.5436 26.939 6.67675 26.6988 6.91865L25.8698 7.75172C25.5488 8.07426 25.107 8.16239 24.6881 7.988C24.2687 7.8136 24.0187 7.43715 24.0187 6.981V5.80289C24.0187 5.09593 23.4463 4.52023 22.7428 4.52023H20.2572C19.5537 4.52023 18.9809 5.09546 18.9809 5.80289V6.981C18.9809 7.43715 18.7308 7.81313 18.3114 7.988C17.8925 8.16239 17.4507 8.07426 17.1297 7.75172L16.3008 6.91865C16.06 6.67675 15.7395 6.5436 15.3985 6.5436C15.057 6.5436 14.7366 6.67675 14.4963 6.91865L12.739 8.68464C12.4982 8.92655 12.3658 9.24862 12.3658 9.59132C12.3658 9.93448 12.4982 10.2566 12.739 10.498L13.5679 11.3311C13.8889 11.6536 13.9766 12.0976 13.8031 12.5185C13.6295 12.9395 13.2549 13.1913 12.801 13.1913H11.6287C10.9252 13.1913 10.3523 13.7665 10.3523 14.4739V16.9713C10.3528 17.6782 10.9252 18.2535 11.6287 18.2535ZM11.6287 14.4618H12.801C13.769 14.4618 14.6008 13.9034 14.9712 13.0042C15.3416 12.1055 15.1466 11.1196 14.4618 10.4314L13.6328 9.59835C13.6295 9.5946 13.6295 9.58569 13.6328 9.58194L15.3901 7.81595C15.3939 7.8122 15.4023 7.8122 15.4065 7.81595L16.2354 8.64902C16.9198 9.33675 17.9009 9.53318 18.7956 9.16095C19.6899 8.78872 20.2456 7.95284 20.2456 6.98006V5.80195C20.2456 5.79726 20.2521 5.79023 20.2572 5.79023H22.7428C22.7474 5.79023 22.754 5.79679 22.754 5.80195V6.98006C22.754 7.95284 23.3096 8.78872 24.2044 9.16095C25.0987 9.53318 26.0797 9.33722 26.7646 8.64902L27.5935 7.81595C27.5968 7.8122 27.6061 7.81266 27.6099 7.81595L29.3672 9.58194C29.3705 9.58569 29.3705 9.5946 29.3672 9.59835L28.5382 10.4314C27.8534 11.1192 27.6584 12.1051 28.0288 13.0042C28.3992 13.9029 29.231 14.4613 30.199 14.4613H31.3713C31.376 14.4613 31.383 14.4678 31.383 14.473V16.9703C31.383 16.975 31.3765 16.9816 31.3713 16.9816H30.199C29.231 16.9816 28.3992 17.5399 28.0288 18.4391C27.6584 19.3378 27.8534 20.3237 28.5382 21.0119L29.3672 21.845C29.3709 21.8487 29.3709 21.8572 29.3672 21.8614L27.6099 23.6274C27.6066 23.6307 27.5968 23.6307 27.5935 23.6274L26.7646 22.7943C26.0797 22.1066 25.0991 21.9102 24.2044 22.2829C23.3101 22.6551 22.754 23.491 22.754 24.4637V25.6419C22.754 25.6465 22.7474 25.6536 22.7428 25.6536H20.2572C20.2526 25.6536 20.2456 25.647 20.2456 25.6419V24.4637C20.2456 23.491 19.6899 22.6551 18.7956 22.2829C18.4957 22.1581 18.1864 22.0972 17.8818 22.0972C17.2772 22.0972 16.6908 22.3372 16.2354 22.7948L15.4065 23.6279C15.4027 23.6316 15.3943 23.6316 15.3901 23.6279L13.6328 21.8619C13.6291 21.8581 13.6291 21.8497 13.6328 21.8455L14.4618 21.0124C15.1461 20.3242 15.3416 19.3387 14.9712 18.4396C14.6008 17.5409 13.769 16.9821 12.801 16.9821H11.6287C11.6235 16.9821 11.6175 16.9755 11.6175 16.9708V14.4735C11.617 14.4688 11.624 14.4618 11.6287 14.4618ZM21.5 21.5257C23.0427 21.5257 24.4931 20.9219 25.5838 19.8263C26.6745 18.7302 27.2749 17.2727 27.2749 15.7224C27.2749 14.172 26.6745 12.7145 25.5838 11.6184C24.4931 10.5224 23.0427 9.91901 21.5 9.91901C19.9573 9.91901 18.5069 10.5228 17.4162 11.6184C16.3255 12.7145 15.7251 14.172 15.7251 15.7224C15.7251 17.2727 16.3255 18.7302 17.4162 19.8263C18.5069 20.9219 19.9573 21.5257 21.5 21.5257ZM18.3105 12.5171C19.1623 11.6611 20.295 11.1899 21.5 11.1899C22.705 11.1899 23.8377 11.6616 24.6895 12.5171C25.5414 13.3732 26.0102 14.5114 26.0102 15.7224C26.0102 16.9333 25.5409 18.0716 24.6895 18.9276C23.8377 19.7836 22.705 20.2548 21.5 20.2548C20.295 20.2548 19.1623 19.7832 18.3105 18.9276C17.4586 18.0716 16.9898 16.9333 16.9898 15.7224C16.9898 14.5114 17.4591 13.3732 18.3105 12.5171ZM20.5161 16.9563L21.2621 14.1589C21.3526 13.82 21.6997 13.6188 22.0365 13.7098C22.3738 13.8007 22.5739 14.1491 22.4834 14.488L21.7379 17.2854C21.6623 17.5695 21.4067 17.7565 21.1277 17.7565C21.0736 17.7565 21.0186 17.7495 20.9635 17.7345C20.6262 17.644 20.4261 17.2952 20.5161 16.9563ZM19.2122 17.6187L17.5132 16.2127C17.3672 16.0923 17.2828 15.9122 17.2828 15.7224C17.2828 15.5325 17.3672 15.3525 17.5132 15.232L19.2122 13.826C19.4819 13.6029 19.8803 13.6418 20.1023 13.9128C20.3244 14.1837 20.2857 14.5841 20.016 14.8073L18.9099 15.7224L20.016 16.6375C20.2857 16.8606 20.3244 17.261 20.1023 17.532C19.9773 17.6843 19.7963 17.7636 19.6139 17.7636C19.4721 17.7636 19.3298 17.7162 19.2122 17.6187ZM22.984 16.6375L24.0901 15.7224L22.984 14.8073C22.7143 14.5841 22.6756 14.1837 22.8977 13.9128C23.1197 13.6418 23.5181 13.6029 23.7878 13.826L25.4868 15.232C25.6328 15.353 25.7172 15.5325 25.7172 15.7224C25.7172 15.9122 25.6328 16.0923 25.4868 16.2127L23.7878 17.6187C23.6702 17.7162 23.5274 17.7636 23.3861 17.7636C23.2037 17.7636 23.0227 17.6848 22.8977 17.532C22.6756 17.261 22.7143 16.8606 22.984 16.6375Z" fill="#E85123"/>
</svg>
