<svg width="48" height="48" viewBox="0 0 48 48" fill="none" xmlns="http://www.w3.org/2000/svg">
<path fill-rule="evenodd" clip-rule="evenodd" d="M27.4733 37.9003L25.8131 36.2412V37.9003H27.4733ZM28.2488 38.9994V46.9009H19.7539V35.4642H24.7077V38.0736C24.709 38.3186 24.8072 38.5532 24.9811 38.7265C25.1549 38.8998 25.3904 38.9979 25.6364 38.9994H28.2488ZM25.6782 34.5565L29.1903 38.0635C29.2413 38.1141 29.2818 38.1743 29.3094 38.2406C29.3369 38.3068 29.3511 38.3779 29.351 38.4496V47.1734C29.3497 47.3919 29.2622 47.6011 29.1072 47.7558C28.9523 47.9104 28.7424 47.9982 28.523 48H19.4797C19.26 47.9986 19.0497 47.911 18.8944 47.7563C18.7391 47.6016 18.6514 47.3921 18.6501 47.1734V35.1916C18.6512 34.9728 18.7389 34.7632 18.8942 34.6084C19.0496 34.4535 19.2599 34.3659 19.4797 34.3645H25.2599C25.3395 34.3644 25.4181 34.3816 25.4904 34.4147C25.5627 34.4479 25.6264 34.4962 25.6782 34.5565ZM46.1229 37.9003L44.4627 36.2412V37.9003H46.1229ZM46.8984 38.9994V46.9009H38.404V35.4642H43.3578V38.0736C43.3591 38.3187 43.4574 38.5533 43.6313 38.7267C43.8053 38.9 44.0409 38.998 44.287 38.9994H46.8984ZM44.3277 34.5565L47.8393 38.0635C47.8904 38.1141 47.9308 38.1743 47.9584 38.2406C47.986 38.3068 48.0001 38.3779 48 38.4496V47.1734C47.9987 47.3917 47.9113 47.6007 47.7566 47.7554C47.6019 47.91 47.3923 47.9979 47.1731 48H38.1298C37.9101 47.9986 37.6998 47.911 37.5445 47.7563C37.3892 47.6016 37.3015 47.3921 37.3002 47.1734V35.1916C37.3013 34.9728 37.389 34.7632 37.5443 34.6084C37.6996 34.4535 37.91 34.3659 38.1298 34.3645H43.91C43.9897 34.3645 44.0684 34.3816 44.1408 34.4148C44.2132 34.4479 44.2775 34.4962 44.3293 34.5565H44.3277ZM8.82056 37.9003L7.16034 36.2412V37.9003H8.82056ZM9.59604 38.9994V46.9009H1.10377V35.4642H6.06032V38.0736C6.06158 38.3186 6.15979 38.5532 6.33364 38.7265C6.5075 38.8998 6.74296 38.9979 6.98897 38.9994H9.59604ZM7.02538 34.5565L10.537 38.0635C10.588 38.1141 10.6285 38.1743 10.6561 38.2406C10.6836 38.3068 10.6978 38.3779 10.6977 38.4496V47.1734C10.6964 47.3913 10.6093 47.6 10.455 47.7546C10.3008 47.9092 10.0918 47.9973 9.87292 48H0.829571C0.609897 47.9986 0.399627 47.911 0.24434 47.7563C0.0890537 47.6016 0.0012637 47.3921 0 47.1734V35.1916C0.00112325 34.9728 0.0888512 34.7632 0.244153 34.6084C0.399454 34.4535 0.609804 34.3659 0.829571 34.3645H6.60979C6.68946 34.3645 6.76819 34.3816 6.84057 34.4148C6.91296 34.4479 6.97728 34.4962 7.02913 34.5565H7.02538ZM29.8855 1.96575C27.9853 1.35704 25.9971 1.06513 24.0013 1.10179C22.0056 1.06513 20.0174 1.35704 18.1172 1.96575C16.7901 2.43985 15.9697 3.02862 15.9697 3.61899C15.9697 4.20936 16.7901 4.79866 18.1172 5.27223C20.0175 5.88048 22.0056 6.17221 24.0013 6.13565C25.9971 6.17204 27.9852 5.88013 29.8855 5.2717C31.2126 4.79759 32.033 4.20882 32.033 3.61845C32.033 3.02809 31.2126 2.43985 29.8855 1.96575ZM18.7909 7.92968C18.9295 7.97142 19.046 8.06569 19.1154 8.19219C19.1847 8.31868 19.2014 8.46725 19.1617 8.60586C19.1221 8.74448 19.0294 8.86203 18.9035 8.93317C18.7776 9.00431 18.6287 9.02334 18.4889 8.98616C18.3427 8.94403 18.1917 8.89763 18.0374 8.84697C17.9053 8.80359 17.7625 8.75346 17.609 8.69657C17.4723 8.64594 17.3615 8.54332 17.3008 8.41131C17.2402 8.27929 17.2347 8.12868 17.2855 7.99261C17.3364 7.85655 17.4394 7.74617 17.572 7.68576C17.7046 7.62535 17.8558 7.61986 17.9924 7.6705C18.0995 7.71103 18.2302 7.75529 18.378 7.80382C18.5034 7.84471 18.641 7.88666 18.7909 7.92968ZM18.7909 12.8291C18.8606 12.8489 18.9256 12.8821 18.9823 12.9269C19.0391 12.9717 19.0864 13.0271 19.1216 13.0901C19.1568 13.1531 19.1792 13.2224 19.1876 13.294C19.1959 13.3656 19.1899 13.4382 19.1701 13.5075C19.1503 13.5768 19.1169 13.6416 19.072 13.6981C19.027 13.7546 18.9713 13.8017 18.908 13.8368C18.8448 13.8719 18.7752 13.8942 18.7033 13.9025C18.6314 13.9107 18.5585 13.9048 18.4889 13.8851C18.3427 13.8435 18.1917 13.7971 18.0374 13.7464C17.9053 13.7034 17.7625 13.6533 17.609 13.596C17.474 13.5442 17.365 13.4414 17.3055 13.31C17.2461 13.1786 17.2411 13.0292 17.2915 12.8941C17.342 12.7591 17.4438 12.6493 17.575 12.5885C17.7062 12.5277 17.8562 12.5209 17.9924 12.5694C18.0995 12.6105 18.2302 12.6548 18.378 12.7033C18.5034 12.7444 18.641 12.7859 18.7909 12.8291ZM18.7909 17.7286C18.8606 17.7484 18.9256 17.7816 18.9823 17.8264C19.0391 17.8711 19.0864 17.9266 19.1216 17.9896C19.1568 18.0526 19.1792 18.1219 19.1876 18.1935C19.1959 18.2651 19.1899 18.3376 19.1701 18.407C19.1503 18.4763 19.1169 18.5411 19.072 18.5976C19.027 18.6541 18.9713 18.7012 18.908 18.7363C18.8448 18.7713 18.7752 18.7936 18.7033 18.8019C18.6314 18.8102 18.5585 18.8043 18.4889 18.7845C18.3427 18.7424 18.1917 18.6966 18.0374 18.6459C17.9053 18.6029 17.7625 18.5526 17.609 18.495C17.4723 18.4443 17.3615 18.3417 17.3008 18.2097C17.2402 18.0777 17.2347 17.9271 17.2855 17.791C17.3364 17.6549 17.4394 17.5446 17.572 17.4842C17.7046 17.4237 17.8558 17.4183 17.9924 17.4689C18.0995 17.5094 18.2302 17.5542 18.378 17.6027C18.5034 17.6433 18.641 17.6852 18.7909 17.7286ZM32.0346 8.51258C32.0346 9.10295 31.2142 9.69172 29.8871 10.1658C27.9863 10.7747 25.9976 11.0666 24.0013 11.0298C22.0056 11.0664 20.0174 10.7745 18.1172 10.1658C16.7901 9.69172 15.9697 9.10295 15.9697 8.51258V5.40556C16.5159 5.78742 17.1141 6.08965 17.7461 6.30311C19.7652 6.95562 21.8789 7.2708 24.0013 7.23586C26.1238 7.2708 28.2375 6.95562 30.2566 6.30311C30.8892 6.08979 31.4879 5.78755 32.0346 5.40556V8.51258ZM32.0346 13.4115V10.2986C31.4884 10.6805 30.8902 10.9827 30.2582 11.1962C28.2386 11.8491 26.1244 12.1643 24.0013 12.1289C21.8788 12.1641 19.7651 11.8489 17.7461 11.1962C17.1135 10.9829 16.5148 10.6806 15.968 10.2986V13.4115C15.968 14.0024 16.7885 14.5912 18.1156 15.0648C20.0163 15.6738 22.005 15.9659 24.0013 15.9292C25.9971 15.9659 27.9853 15.674 29.8855 15.0653C31.2126 14.5912 32.033 14.0024 32.033 13.412L32.0346 13.4115ZM32.0346 18.311V15.1981C31.4884 15.5799 30.8902 15.8822 30.2582 16.0956C28.2386 16.7483 26.1244 17.0635 24.0013 17.0284C21.8789 17.0633 19.7652 16.7481 17.7461 16.0956C17.1135 15.8823 16.5148 15.5801 15.968 15.1981V18.311C15.968 18.9019 16.7885 19.4901 18.1156 19.9642C20.0163 20.5731 22.005 20.865 24.0013 20.8282C25.9971 20.8648 27.9853 20.5729 29.8855 19.9642C31.2126 19.4906 32.033 18.9019 32.033 18.311H32.0346ZM33.1384 18.311V18.327C33.1277 19.4234 32.0293 20.3621 30.2582 20.9935C28.2386 21.6465 26.1244 21.9621 24.0013 21.9273C21.8789 21.9624 19.7652 21.6474 17.7461 20.9951C15.975 20.3621 14.8766 19.4234 14.8659 18.3286V3.60352C14.8766 2.50705 15.975 1.5679 17.7461 0.937003C19.765 0.283688 21.8787 -0.0320356 24.0013 0.00265477C26.1238 -0.0325519 28.2375 0.282631 30.2566 0.935403C32.0271 1.5679 33.1256 2.50652 33.1368 3.60192V18.311H33.1384ZM24.087 26.3868C24.0303 26.396 23.9724 26.396 23.9156 26.3868C23.6588 26.4088 23.4205 26.5287 23.2503 26.7215C23.0802 26.9143 22.9913 27.1651 23.0024 27.4215C23.0134 27.678 23.1235 27.9202 23.3096 28.0978C23.4958 28.2754 23.7436 28.3745 24.0013 28.3745C24.2591 28.3745 24.5069 28.2754 24.693 28.0978C24.8792 27.9202 24.9892 27.678 25.0003 27.4215C25.0114 27.1651 24.9225 26.9143 24.7524 26.7215C24.5822 26.5287 24.3438 26.4088 24.087 26.3868ZM23.4492 23.7832C23.4537 23.6404 23.5138 23.505 23.6168 23.4055C23.7198 23.3061 23.8576 23.2505 24.0011 23.2505C24.1445 23.2505 24.2824 23.3061 24.3854 23.4055C24.4884 23.505 24.5485 23.6404 24.553 23.7832V25.357C24.8305 25.4325 25.0895 25.5637 25.3142 25.7425C25.539 25.9213 25.7246 26.144 25.8597 26.3969H42.6514C42.7978 26.3971 42.9382 26.455 43.0417 26.5581C43.1452 26.6612 43.2034 26.801 43.2036 26.9468V30.9748C43.2036 31.1206 43.1454 31.2605 43.0419 31.3636C42.9383 31.4667 42.7979 31.5246 42.6514 31.5246C42.505 31.5246 42.3646 31.4667 42.261 31.3636C42.1575 31.2605 42.0993 31.1206 42.0993 30.9748V27.4961H26.1018C26.0768 27.9352 25.9138 28.3554 25.6359 28.6973C25.3579 29.0391 24.9791 29.2853 24.553 29.401V30.9748C24.5553 31.0484 24.5427 31.1217 24.516 31.1904C24.4893 31.2591 24.449 31.3217 24.3975 31.3746C24.3461 31.4275 24.2844 31.4695 24.2163 31.4983C24.1482 31.527 24.075 31.5418 24.0011 31.5418C23.9271 31.5418 23.8539 31.527 23.7858 31.4983C23.7177 31.4695 23.6561 31.4275 23.6046 31.3746C23.5531 31.3217 23.5128 31.2591 23.4862 31.1904C23.4595 31.1217 23.4469 31.0484 23.4492 30.9748V29.401C23.0231 29.2854 22.6443 29.0392 22.3664 28.6973C22.0885 28.3554 21.9257 27.9352 21.9009 27.4961H5.9034V30.9748C5.9034 31.1206 5.84523 31.2605 5.74168 31.3636C5.63813 31.4667 5.49769 31.5246 5.35124 31.5246C5.2048 31.5246 5.06436 31.4667 4.96081 31.3636C4.85726 31.2605 4.79909 31.1206 4.79909 30.9748V26.9468C4.79923 26.801 4.85745 26.6612 4.96097 26.5581C5.06449 26.455 5.20485 26.3971 5.35124 26.3969H22.143C22.2779 26.144 22.4633 25.9212 22.688 25.7423C22.9126 25.5635 23.1717 25.4323 23.4492 25.357V23.7832Z" fill="#E85123"/>
</svg>
