<svg width="47" height="40" viewBox="0 0 47 40" fill="none" xmlns="http://www.w3.org/2000/svg">
<path d="M2.57717 39.1667H44.4228C45.1063 39.1667 45.7619 38.8951 46.2452 38.4118C46.7285 37.9285 47 37.273 47 36.5895V2.57717C47 1.89366 46.7285 1.23815 46.2452 0.754835C45.7619 0.271522 45.1063 0 44.4228 0H2.57717C1.89366 0 1.23815 0.271522 0.754835 0.754835C0.271522 1.23815 0 1.89366 0 2.57717V36.5895C0 37.273 0.271522 37.9285 0.754835 38.4118C1.23815 38.8951 1.89366 39.1667 2.57717 39.1667ZM1.56667 2.57717C1.56667 2.30917 1.67313 2.05214 1.86264 1.86264C2.05214 1.67313 2.30917 1.56667 2.57717 1.56667H44.4228C44.6908 1.56667 44.9479 1.67313 45.1374 1.86264C45.3269 2.05214 45.4333 2.30917 45.4333 2.57717V6.26667H1.56667V2.57717ZM1.56667 7.83333H45.4333V36.5895C45.4333 36.8575 45.3269 37.1145 45.1374 37.304C44.9479 37.4935 44.6908 37.6 44.4228 37.6H2.57717C2.30917 37.6 2.05214 37.4935 1.86264 37.304C1.67313 37.1145 1.56667 36.8575 1.56667 36.5895V7.83333Z" fill="#E85123"/>
<path d="M18.7995 3.13281H3.13281V4.69948H18.7995V3.13281Z" fill="#E85123"/>
<path d="M42.2991 3.13281H40.7324V4.69948H42.2991V3.13281Z" fill="#E85123"/>
<path d="M36.8167 3.13281H35.25V4.69948H36.8167V3.13281Z" fill="#E85123"/>
<path d="M12.5334 25.5583H13.5752C13.8272 25.5569 14.0739 25.6306 14.2839 25.7699C14.4939 25.9093 14.6576 26.108 14.7543 26.3407C14.8509 26.5735 14.876 26.8298 14.8265 27.0768C14.7769 27.3239 14.6549 27.5507 14.476 27.7282L13.7397 28.4645C13.5921 28.6091 13.5076 28.8062 13.5047 29.0128C13.5051 29.1165 13.5261 29.219 13.5665 29.3145C13.6068 29.4099 13.6657 29.4965 13.7397 29.569L16.6459 32.4752C16.7184 32.5492 16.8049 32.6081 16.9004 32.6484C16.9959 32.6888 17.0984 32.7097 17.202 32.7102C17.4087 32.7072 17.6057 32.6228 17.7504 32.4752L18.4867 31.7467C18.6607 31.5626 18.8872 31.4368 19.1353 31.3863C19.3835 31.3359 19.6412 31.3632 19.8732 31.4647C20.1074 31.5582 20.3076 31.7206 20.4475 31.9304C20.5874 32.1402 20.6603 32.3876 20.6565 32.6397V33.6815C20.6565 33.8893 20.7391 34.0885 20.886 34.2354C21.0329 34.3823 21.2321 34.4648 21.4399 34.4648H25.5524C25.7601 34.4648 25.9594 34.3823 26.1063 34.2354C26.2532 34.0885 26.3357 33.8893 26.3357 33.6815V32.6397C26.3309 32.3873 26.4033 32.1395 26.5433 31.9295C26.6834 31.7195 26.8842 31.5573 27.119 31.4647C27.3511 31.3632 27.6087 31.3359 27.8569 31.3863C28.1051 31.4368 28.3316 31.5626 28.5055 31.7467L29.2419 32.4752C29.3886 32.6211 29.5872 32.703 29.7941 32.703C30.0011 32.703 30.1996 32.6211 30.3464 32.4752L33.2525 29.569C33.3266 29.4965 33.3854 29.4099 33.4258 29.3145C33.4661 29.219 33.4871 29.1165 33.4875 29.0128C33.4846 28.8062 33.4001 28.6091 33.2525 28.4645L32.524 27.7282C32.34 27.5542 32.2142 27.3277 32.1637 27.0795C32.1132 26.8314 32.1406 26.5737 32.242 26.3417C32.3347 26.1069 32.4968 25.906 32.7069 25.766C32.9169 25.626 33.1647 25.5535 33.417 25.5583H34.4667C34.6745 25.5583 34.8737 25.4758 35.0206 25.3289C35.1675 25.182 35.25 24.9828 35.25 24.775V20.6625C35.25 20.4548 35.1675 20.2555 35.0206 20.1086C34.8737 19.9617 34.6745 19.8792 34.4667 19.8792H33.4249C33.1729 19.8784 32.9268 19.8031 32.7176 19.6627C32.5084 19.5224 32.3454 19.3232 32.249 19.0904C32.1527 18.8576 32.1275 18.6015 32.1764 18.3544C32.2253 18.1072 32.3463 17.8801 32.524 17.7015L33.2604 16.9652C33.408 16.8205 33.4924 16.6235 33.4954 16.4168C33.4949 16.3132 33.474 16.2107 33.4336 16.1152C33.3933 16.0197 33.3344 15.9332 33.2604 15.8607L30.3542 12.9545C30.2817 12.8805 30.1951 12.8216 30.0997 12.7813C30.0042 12.7409 29.9017 12.7199 29.798 12.7195C29.5914 12.7225 29.3943 12.8069 29.2497 12.9545L28.5134 13.683C28.3394 13.867 28.1129 13.9929 27.8647 14.0434C27.6166 14.0938 27.3589 14.0665 27.1269 13.965C26.8921 13.8724 26.6912 13.7102 26.5512 13.5002C26.4112 13.2902 26.3387 13.0424 26.3435 12.79V11.7482C26.3435 11.5404 26.261 11.3412 26.1141 11.1943C25.9672 11.0474 25.768 10.9648 25.5602 10.9648H21.4477C21.24 10.9648 21.0407 11.0474 20.8938 11.1943C20.7469 11.3412 20.6644 11.5404 20.6644 11.7482V12.79C20.6681 13.0421 20.5952 13.2895 20.4553 13.4993C20.3155 13.7091 20.1152 13.8715 19.881 13.965C19.649 14.0665 19.3913 14.0938 19.1432 14.0434C18.895 13.9929 18.6685 13.867 18.4945 13.683L17.7582 12.9545C17.6114 12.8086 17.4129 12.7267 17.206 12.7267C16.999 12.7267 16.8005 12.8086 16.6537 12.9545L13.7475 15.8607C13.6735 15.9332 13.6146 16.0197 13.5743 16.1152C13.534 16.2107 13.513 16.3132 13.5125 16.4168C13.5155 16.6235 13.5999 16.8205 13.7475 16.9652L14.476 17.7015C14.6601 17.8755 14.7859 18.102 14.8364 18.3501C14.8869 18.5983 14.8595 18.856 14.758 19.088C14.6645 19.3222 14.5021 19.5224 14.2923 19.6623C14.0825 19.8022 13.8352 19.8751 13.583 19.8713H12.5334C12.3256 19.8713 12.1264 19.9539 11.9795 20.1008C11.8326 20.2477 11.75 20.4469 11.75 20.6547V24.7672C11.749 24.8707 11.7685 24.9734 11.8074 25.0694C11.8463 25.1653 11.9038 25.2526 11.9767 25.3261C12.0495 25.3997 12.1362 25.4581 12.2318 25.498C12.3273 25.5378 12.4298 25.5584 12.5334 25.5583ZM13.3167 21.4458H13.5752C14.1361 21.4438 14.6838 21.2758 15.1494 20.9633C15.6151 20.6507 15.9779 20.2074 16.1922 19.6891C16.4066 19.1708 16.4629 18.6007 16.354 18.0505C16.2452 17.5003 15.9761 16.9946 15.5805 16.597L15.4004 16.4482L17.202 14.6465L17.3822 14.8267C17.7798 15.2222 18.2855 15.4913 18.8357 15.6002C19.3859 15.709 19.956 15.6527 20.4743 15.4384C20.9926 15.224 21.4359 14.8612 21.7485 14.3956C22.061 13.9299 22.2289 13.3822 22.231 12.8213V12.5315H24.7769V12.79C24.7768 13.3509 24.9431 13.8992 25.2546 14.3656C25.5662 14.832 26.0091 15.1956 26.5273 15.4102C27.0455 15.6249 27.6157 15.681 28.1659 15.5716C28.716 15.4621 29.2213 15.192 29.6179 14.7953L29.798 14.6152L31.5997 16.4168L31.4195 16.597C31.024 16.9946 30.7549 17.5003 30.646 18.0505C30.5372 18.6007 30.5935 19.1708 30.8078 19.6891C31.0222 20.2074 31.385 20.6507 31.8507 20.9633C32.3163 21.2758 32.864 21.4438 33.4249 21.4458H33.6834V23.9917H33.4249C32.864 23.9916 32.3156 24.1579 31.8492 24.4694C31.3828 24.781 31.0193 25.2239 30.8047 25.7421C30.59 26.2603 30.5338 26.8306 30.6433 27.3807C30.7527 27.9308 31.0229 28.4361 31.4195 28.8327L31.5997 29.0128L29.7667 30.8145L29.5865 30.6343C29.19 30.2377 28.6847 29.9675 28.1345 29.8581C27.5844 29.7486 27.0142 29.8048 26.496 30.0195C25.9778 30.2341 25.5349 30.5976 25.2233 31.064C24.9117 31.5304 24.7455 32.0788 24.7455 32.6397V32.8982H22.231V32.6397C22.2289 32.0788 22.061 31.5311 21.7485 31.0655C21.4359 30.5998 20.9926 30.237 20.4743 30.0226C19.956 29.8083 19.3859 29.752 18.8357 29.8609C18.2855 29.9697 17.7798 30.2388 17.3822 30.6343L17.202 30.8145L15.4004 28.9815L15.5805 28.8013C15.9772 28.4048 16.2473 27.8995 16.3568 27.3493C16.4662 26.7992 16.4101 26.229 16.1954 25.7108C15.9808 25.1926 15.6172 24.7497 15.1508 24.4381C14.6844 24.1265 14.1361 23.9603 13.5752 23.9603H13.3167V21.4458Z" fill="#E85123"/>
<path d="M23.4991 28.9826C24.7385 28.9826 25.9501 28.615 26.9807 27.9264C28.0112 27.2378 28.8144 26.2591 29.2887 25.114C29.763 23.969 29.8871 22.7089 29.6453 21.4933C29.4035 20.2777 28.8067 19.1611 27.9303 18.2847C27.0539 17.4083 25.9373 16.8114 24.7217 16.5696C23.506 16.3278 22.246 16.4519 21.1009 16.9262C19.9559 17.4006 18.9771 18.2038 18.2885 19.2343C17.6 20.2649 17.2324 21.4765 17.2324 22.7159C17.2324 24.3779 17.8927 25.9719 19.0679 27.1471C20.2431 28.3223 21.8371 28.9826 23.4991 28.9826ZM23.4991 18.0159C24.4287 18.0159 25.3374 18.2915 26.1103 18.808C26.8832 19.3244 27.4856 20.0585 27.8413 20.9173C28.1971 21.7761 28.2901 22.7211 28.1088 23.6328C27.9274 24.5445 27.4798 25.382 26.8225 26.0393C26.1652 26.6966 25.3277 27.1442 24.416 27.3256C23.5043 27.5069 22.5593 27.4139 21.7005 27.0581C20.8417 26.7024 20.1076 26.1 19.5912 25.3271C19.0747 24.5542 18.7991 23.6455 18.7991 22.7159C18.7991 21.4694 19.2943 20.2739 20.1757 19.3925C21.0571 18.5111 22.2526 18.0159 23.4991 18.0159Z" fill="#E85123"/>
</svg>
