<svg width="34" height="33" viewBox="0 0 34 33" fill="none" xmlns="http://www.w3.org/2000/svg">
<path d="M33.6411 29.2248H31.8903V12.4416C31.8903 11.2757 30.9423 10.3273 29.7767 10.3273H23.902V8.55075H25.9977C26.1957 8.55075 26.3559 8.38992 26.3559 8.19117V6.06094C27.8636 5.8817 29.0372 4.59284 29.0372 3.03197C28.8844 -1.01105 23.1088 -1.01028 22.9564 3.03202C22.9564 4.59357 24.1311 5.88295 25.6395 6.06127V7.83158H23.5438C23.3458 7.83158 23.1856 7.99241 23.1856 8.19117V10.1781L22.6654 9.65584C22.3583 9.34682 21.8745 9.32365 21.5456 9.59825L20.6488 10.3273H19.2838L19.1068 8.57709C19.0567 8.15219 18.6975 7.83158 18.2711 7.83158H17.3612V6.15593C19.1057 5.71722 18.8162 3.13875 17.0015 3.11309C15.1847 3.13923 14.8976 5.72093 16.6448 6.15681V7.83158H15.7279C15.2966 7.83158 14.9387 8.15465 14.895 8.58235L14.7156 10.3273H13.3535L12.4642 9.60106C12.1297 9.32189 11.6334 9.34928 11.3416 9.65514L10.8169 10.1798V8.19117C10.8169 7.99241 10.6567 7.83158 10.4587 7.83158H8.35947V6.06131C9.86799 5.88314 11.0429 4.59368 11.0429 3.03197C10.8899 -1.01142 5.11434 -1.00991 4.96209 3.03202C4.96209 4.59273 6.13558 5.88152 7.64305 6.0609V8.19117C7.64305 8.38992 7.80327 8.55075 8.00126 8.55075H10.1005V10.3273H4.22224C3.05666 10.3273 2.10867 11.2757 2.10867 12.4416V29.2248H0.358208C0.160214 29.2248 0 29.3856 0 29.5843C0 31.4672 1.52623 32.9993 3.40193 32.9993H30.5974C32.4249 33.0376 34.0381 31.4196 33.9993 29.5843C33.9993 29.3856 33.8391 29.2248 33.6411 29.2248ZM23.6729 3.03197C23.6729 1.74568 24.7153 0.699238 25.9967 0.699238C29.0729 0.808623 29.0718 5.2562 25.9966 5.36506C24.7153 5.36506 23.6729 4.31861 23.6729 3.03197ZM5.6785 3.03197C5.6785 1.74568 6.72095 0.699238 8.00266 0.699238C11.0784 0.808733 11.0772 5.25609 8.00261 5.36506C6.72095 5.36506 5.6785 4.31861 5.6785 3.03197ZM16.1788 4.65818C16.2072 3.56929 17.7957 3.56915 17.824 4.6582C17.7954 5.74692 16.2072 5.74635 16.1788 4.65818ZM10.0382 11.9735L11.8527 10.1587C11.8912 10.119 11.9611 10.1169 12.0094 10.1569L13.5458 11.4116C13.6304 11.4794 13.744 11.5036 13.849 11.483C14.2048 11.3304 14.5509 11.1333 14.9062 11.0278C15.1132 10.962 15.3855 10.9057 15.4036 10.6408L15.6079 8.65575C15.6139 8.595 15.6646 8.55075 15.7279 8.55075H18.2711C18.3354 8.55075 18.3879 8.5971 18.3945 8.6554L18.5953 10.6401C18.6126 10.9071 18.8856 10.961 19.0928 11.0278C19.4588 11.1285 19.8092 11.3554 20.1795 11.4866C20.2743 11.501 20.376 11.4718 20.4525 11.4123L22.0001 10.1541C22.0462 10.1155 22.1134 10.119 22.1589 10.1643L22.9317 10.9403C22.9321 10.9411 23.9598 11.9724 23.9604 11.9731C24.0095 12.0237 23.9994 12.0999 23.9559 12.1508L22.7147 13.678C22.6231 13.7904 22.608 13.947 22.6766 14.0751C22.884 14.4639 23.0533 14.8726 23.1796 15.2898C23.2216 15.4282 23.3423 15.5279 23.4854 15.543L25.4555 15.7481C25.5194 15.7538 25.5678 15.8076 25.5678 15.872V18.4288C25.5678 18.4867 25.5192 18.5398 25.4555 18.5454L23.4854 18.7505C23.3423 18.7655 23.2219 18.8653 23.1796 19.0033C23.0971 19.2784 22.9582 19.6522 22.8015 19.9707C22.704 20.1722 22.5344 20.4117 22.7147 20.6193L23.9705 22.1647C24.0139 22.2171 23.9936 22.2919 23.9618 22.3263L22.1589 24.1326C22.1137 24.1776 22.0476 24.1825 21.9966 24.14L20.4525 22.8815C20.3402 22.7898 20.1842 22.7751 20.0575 22.8439C19.6703 23.0521 19.2631 23.2221 18.8475 23.3488C18.7094 23.391 18.61 23.5125 18.5953 23.6565L18.3952 25.6286C18.3875 25.6956 18.334 25.7462 18.2711 25.7462H15.7279C15.667 25.7462 15.6142 25.697 15.6079 25.6335L15.4036 23.6558C15.3886 23.5121 15.2893 23.391 15.1514 23.3488C14.7358 23.2221 14.3287 23.0521 13.9414 22.8439C13.8147 22.7753 13.6578 22.7897 13.5458 22.8822L12.0066 24.1425C11.9615 24.1804 11.8915 24.1786 11.8467 24.1319L10.0463 22.3354C9.99974 22.2859 9.99414 22.2079 10.0302 22.1619L11.2839 20.6193C11.3748 20.508 11.3902 20.3528 11.3238 20.225C11.1246 19.8436 10.9361 19.3872 10.8274 19.0071C10.7865 18.867 10.6651 18.7655 10.5203 18.7505L8.53752 18.545C8.4798 18.5398 8.43118 18.4867 8.43118 18.4288V15.872C8.43118 15.8078 8.4791 15.7544 8.54312 15.7481L10.5203 15.543C10.6658 15.5279 10.7872 15.4257 10.8277 15.2849C10.9442 14.8786 11.1107 14.4716 11.3224 14.0748C11.3906 13.947 11.3755 13.7904 11.2839 13.678L10.0442 12.1522C10.0023 12.1023 9.98933 12.0219 10.0382 11.9735ZM8.46966 19.261L10.2124 19.4415C10.3056 19.7221 10.4398 20.0534 10.5825 20.3447L9.47222 21.7114C9.21266 22.0397 9.23505 22.5198 9.53344 22.8376L11.3357 24.6355C11.6337 24.9484 12.1297 24.9743 12.4617 24.6976L13.8165 23.5883C14.1083 23.733 14.4091 23.8587 14.7149 23.9634L14.895 25.7072C14.9391 26.1395 15.2969 26.4654 15.7279 26.4654H18.2711C18.6971 26.4654 19.0564 26.1419 19.1075 25.7072L19.2845 23.963C19.5905 23.8587 19.891 23.733 20.1828 23.588L21.5418 24.6955C21.8741 24.974 22.3576 24.9505 22.6654 24.6411L24.4746 22.8284C24.7706 22.5127 24.7905 22.0295 24.5232 21.7075L23.4164 20.3454C23.5622 20.0598 23.7008 19.702 23.7907 19.4419L25.5237 19.2614C25.9501 19.2238 26.2842 18.8583 26.2842 18.4288V15.872C26.2842 15.4376 25.9596 15.0766 25.5293 15.0324L23.7918 14.8516C23.6875 14.5446 23.5623 14.2427 23.4178 13.9498L24.4381 12.6933H29.5294V27.5764H4.4692V12.6933H9.55954L10.5808 13.9501C10.4346 14.2472 10.3107 14.5489 10.2114 14.8519L8.47001 15.0324C8.03939 15.0766 7.71476 15.4376 7.71476 15.872V18.4288C7.71476 18.8583 8.04883 19.2238 8.46966 19.261ZM2.82508 12.4416C2.82508 11.6722 3.45195 11.0464 4.22224 11.0464H9.95006C9.71639 11.2908 9.30484 11.602 9.29487 11.9742H4.22224C3.96337 11.9742 3.75279 12.1838 3.75279 12.4416V27.936C3.75279 28.1348 3.913 28.2956 4.111 28.2956H29.8876C30.0856 28.2956 30.2458 28.1348 30.2458 27.936V12.4416C30.2458 12.1838 30.0352 11.9742 29.7767 11.9742H24.7048C24.6951 11.6039 24.2821 11.2897 24.0504 11.0464H29.7767C30.547 11.0464 31.1739 11.6722 31.1739 12.4416V29.2233H2.82508V12.4416ZM22.6507 29.9439C22.3999 30.4313 21.8941 30.7544 21.3228 30.7544H12.6765C12.1053 30.7544 11.5994 30.4313 11.3486 29.9439H22.6507ZM32.4965 31.4908C31.9889 31.9999 31.3145 32.2802 30.5974 32.2802H3.40193C2.04255 32.2802 0.915809 31.2611 0.740203 29.9439H10.5809C10.8742 30.8447 11.7091 31.4736 12.6765 31.4736H21.3228C22.2902 31.4736 23.1251 30.8447 23.4185 29.9439H33.2595C33.1825 30.5275 32.918 31.0673 32.4965 31.4908ZM26.1765 4.99845L27.603 4.17148C27.7139 4.10721 27.7821 3.98852 27.7821 3.86V2.2043C27.7821 2.07577 27.7139 1.95708 27.603 1.89282L26.1765 1.06549C26.0659 1.00158 25.9288 1.00158 25.8183 1.06549L24.3907 1.89282C24.2798 1.95708 24.2116 2.07577 24.2116 2.2043V3.86C24.2116 3.98852 24.2798 4.10721 24.3907 4.17148L25.8183 4.99845C25.9153 5.04682 26.0269 5.06517 26.1284 5.01833C26.1444 5.01114 26.1609 5.00633 26.1765 4.99845ZM27.0657 3.65247L26.3556 4.06402V3.24021C26.4328 3.19533 27.0049 2.86293 27.0657 2.82764V3.65247ZM25.6391 4.06437L24.928 3.65247V2.8276C25.0571 2.90253 25.5187 3.17033 25.6391 3.24023V4.06437ZM25.9579 2.59439L25.2861 2.20452L25.9974 1.79204L26.7081 2.2046C26.5335 2.30602 26.1732 2.51518 25.9974 2.61726L25.9579 2.59439ZM14.3185 20.2506C16.915 22.5471 21.1264 20.6239 21.0901 17.1484C21.0902 14.886 19.2537 13.0456 16.996 13.0456C13.2519 13.0307 11.4914 17.7969 14.3185 20.2506ZM16.996 13.7647C20.0934 13.7508 21.5556 17.6861 19.2113 19.707H19.211C17.0727 21.5997 13.6001 20.0197 13.6322 17.1484C13.6322 15.2828 15.1413 13.7647 16.996 13.7647ZM9.7881 3.86V2.2043C9.7881 2.07577 9.71989 1.95708 9.609 1.89282L8.18246 1.06549C8.07192 1.00158 7.93479 1.00158 7.82425 1.06549L6.39632 1.89282C6.28543 1.95708 6.21722 2.07577 6.21722 2.2043V3.86C6.21722 3.98852 6.28543 4.10721 6.39632 4.17148C6.48806 4.20429 7.93659 5.11771 8.00336 5.04656C8.06471 5.12149 9.52259 4.20075 9.609 4.1715C9.71989 4.10721 9.7881 3.98852 9.7881 3.86ZM7.64515 4.06437L6.93363 3.65247V2.82749L7.64515 3.24025V4.06437ZM8.00336 2.61726C7.88538 2.54887 7.41838 2.27795 7.29193 2.20458L8.00336 1.79204L8.71409 2.2046C8.53953 2.30602 8.17923 2.51518 8.00336 2.61726ZM9.07168 3.65247L8.36157 4.06402V3.24021C8.43879 3.19533 9.01091 2.86293 9.07168 2.82764V3.65247Z" fill="#E85123"/>
</svg>
