<svg width="32" height="27" viewBox="0 0 32 27" fill="none" xmlns="http://www.w3.org/2000/svg">
<path d="M1.75467 26.6667H30.2453C30.7107 26.6667 31.157 26.4818 31.4861 26.1527C31.8151 25.8237 32 25.3774 32 24.912V1.75467C32 1.2893 31.8151 0.842994 31.4861 0.51393C31.157 0.184866 30.7107 0 30.2453 0H1.75467C1.2893 0 0.842994 0.184866 0.51393 0.51393C0.184866 0.842994 0 1.2893 0 1.75467V24.912C0 25.3774 0.184866 25.8237 0.51393 26.1527C0.842994 26.4818 1.2893 26.6667 1.75467 26.6667ZM1.06667 1.75467C1.06667 1.5722 1.13915 1.3972 1.26818 1.26818C1.3972 1.13915 1.5722 1.06667 1.75467 1.06667H30.2453C30.4278 1.06667 30.6028 1.13915 30.7318 1.26818C30.8609 1.3972 30.9333 1.5722 30.9333 1.75467V4.26667H1.06667V1.75467ZM1.06667 5.33333H30.9333V24.912C30.9333 25.0945 30.8609 25.2695 30.7318 25.3985C30.6028 25.5275 30.4278 25.6 30.2453 25.6H1.75467C1.5722 25.6 1.3972 25.5275 1.26818 25.3985C1.13915 25.2695 1.06667 25.0945 1.06667 24.912V5.33333Z" fill="#E85122"/>
<path d="M12.7995 2.13281H2.13281V3.19948H12.7995V2.13281Z" fill="#E85122"/>
<path d="M28.7991 2.13281H27.7324V3.19948H28.7991V2.13281Z" fill="#E85122"/>
<path d="M25.0667 2.13281H24V3.19948H25.0667V2.13281Z" fill="#E85122"/>
<path d="M8.53336 17.4008H9.24269C9.41427 17.3999 9.58225 17.45 9.72522 17.5449C9.86819 17.6398 9.97968 17.7751 10.0455 17.9335C10.1113 18.092 10.1284 18.2665 10.0946 18.4347C10.0609 18.603 9.97783 18.7573 9.85603 18.8782L9.35469 19.3795C9.25421 19.478 9.1967 19.6122 9.19469 19.7528C9.19499 19.8234 9.20928 19.8932 9.23674 19.9582C9.26421 20.0232 9.3043 20.0821 9.35469 20.1315L11.3334 22.1102C11.3828 22.1606 11.4417 22.2007 11.5067 22.2281C11.5717 22.2556 11.6415 22.2699 11.712 22.2702C11.8527 22.2682 11.9869 22.2107 12.0854 22.1102L12.5867 21.6142C12.7051 21.4889 12.8594 21.4032 13.0283 21.3688C13.1973 21.3345 13.3727 21.3531 13.5307 21.4222C13.6901 21.4859 13.8265 21.5964 13.9217 21.7393C14.0169 21.8821 14.0666 22.0505 14.064 22.2222V22.9315C14.064 23.073 14.1202 23.2086 14.2202 23.3086C14.3203 23.4087 14.4559 23.4648 14.5974 23.4648H17.3974C17.5388 23.4648 17.6745 23.4087 17.7745 23.3086C17.8745 23.2086 17.9307 23.073 17.9307 22.9315V22.2222C17.9274 22.0504 17.9767 21.8816 18.0721 21.7386C18.1674 21.5957 18.3042 21.4852 18.464 21.4222C18.622 21.3531 18.7974 21.3345 18.9664 21.3688C19.1354 21.4032 19.2896 21.4889 19.408 21.6142L19.9094 22.1102C20.0093 22.2095 20.1445 22.2653 20.2854 22.2653C20.4263 22.2653 20.5614 22.2095 20.6614 22.1102L22.64 20.1315C22.6904 20.0821 22.7305 20.0232 22.758 19.9582C22.7854 19.8932 22.7997 19.8234 22.8 19.7528C22.798 19.6122 22.7405 19.478 22.64 19.3795L22.144 18.8782C22.0187 18.7597 21.933 18.6055 21.8987 18.4366C21.8643 18.2676 21.8829 18.0922 21.952 17.9342C22.0151 17.7743 22.1255 17.6375 22.2685 17.5422C22.4115 17.4469 22.5802 17.3976 22.752 17.4008H23.4667C23.6081 17.4008 23.7438 17.3447 23.8438 17.2446C23.9438 17.1446 24 17.009 24 16.8675V14.0675C24 13.9261 23.9438 13.7904 23.8438 13.6904C23.7438 13.5904 23.6081 13.5342 23.4667 13.5342H22.7574C22.5858 13.5336 22.4183 13.4824 22.2758 13.3868C22.1334 13.2912 22.0224 13.1557 21.9568 12.9972C21.8912 12.8386 21.874 12.6643 21.9073 12.496C21.9406 12.3277 22.023 12.1731 22.144 12.0515L22.6454 11.5502C22.7458 11.4517 22.8034 11.3175 22.8054 11.1768C22.8051 11.1063 22.7908 11.0365 22.7633 10.9715C22.7358 10.9065 22.6958 10.8476 22.6454 10.7982L20.6667 8.81951C20.6173 8.76912 20.5584 8.72903 20.4934 8.70156C20.4284 8.6741 20.3586 8.6598 20.288 8.65951C20.1474 8.66151 20.0132 8.71902 19.9147 8.81951L19.4134 9.31551C19.2949 9.44081 19.1407 9.52649 18.9717 9.56086C18.8028 9.59522 18.6273 9.57659 18.4694 9.50751C18.3095 9.44446 18.1727 9.33403 18.0774 9.19104C17.9821 9.04805 17.9327 8.87933 17.936 8.70751V7.99818C17.936 7.85673 17.8798 7.72107 17.7798 7.62105C17.6798 7.52103 17.5441 7.46484 17.4027 7.46484H14.6027C14.4612 7.46484 14.3256 7.52103 14.2256 7.62105C14.1256 7.72107 14.0694 7.85673 14.0694 7.99818V8.70751C14.0719 8.87917 14.0223 9.04756 13.927 9.1904C13.8318 9.33325 13.6955 9.44382 13.536 9.50751C13.3781 9.57659 13.2026 9.59522 13.0337 9.56086C12.8647 9.52649 12.7105 9.44081 12.592 9.31551L12.0907 8.81951C11.9908 8.72018 11.8556 8.66442 11.7147 8.66442C11.5738 8.66442 11.4386 8.72018 11.3387 8.81951L9.36003 10.7982C9.30963 10.8476 9.26954 10.9065 9.24208 10.9715C9.21461 11.0365 9.20032 11.1063 9.20003 11.1768C9.20203 11.3175 9.25954 11.4517 9.36003 11.5502L9.85603 12.0515C9.98133 12.1699 10.067 12.3242 10.1014 12.4931C10.1357 12.6621 10.1171 12.8375 10.048 12.9955C9.98434 13.1549 9.87376 13.2913 9.73092 13.3865C9.58807 13.4817 9.41969 13.5314 9.24803 13.5288H8.53336C8.39191 13.5288 8.25626 13.585 8.15624 13.6851C8.05622 13.7851 8.00003 13.9207 8.00003 14.0622V16.8622C7.99932 16.9327 8.0126 17.0026 8.03908 17.0679C8.06557 17.1332 8.10474 17.1927 8.15434 17.2428C8.20393 17.2928 8.26297 17.3326 8.32802 17.3597C8.39308 17.3869 8.46287 17.4008 8.53336 17.4008ZM9.06669 14.6008H9.24269C9.62455 14.5994 9.99745 14.4851 10.3145 14.2723C10.6315 14.0594 10.8786 13.7576 11.0245 13.4048C11.1704 13.0519 11.2088 12.6637 11.1347 12.2891C11.0606 11.9145 10.8773 11.5702 10.608 11.2995L10.4854 11.1982L11.712 9.97151L11.8347 10.0942C12.1054 10.3635 12.4497 10.5467 12.8243 10.6208C13.1989 10.6949 13.5871 10.6566 13.9399 10.5107C14.2928 10.3647 14.5946 10.1177 14.8075 9.80064C15.0203 9.4836 15.1346 9.1107 15.136 8.72884V8.53151H16.8694V8.70751C16.8693 9.0894 16.9825 9.46273 17.1946 9.78028C17.4068 10.0978 17.7083 10.3453 18.0612 10.4915C18.414 10.6376 18.8022 10.6759 19.1768 10.6014C19.5513 10.5268 19.8954 10.3429 20.1654 10.0728L20.288 9.95018L21.5147 11.1768L21.392 11.2995C21.1227 11.5702 20.9395 11.9145 20.8654 12.2891C20.7913 12.6637 20.8296 13.0519 20.9755 13.4048C21.1215 13.7576 21.3685 14.0594 21.6856 14.2723C22.0026 14.4851 22.3755 14.5994 22.7574 14.6008H22.9334V16.3342H22.7574C22.3755 16.3341 22.0021 16.4473 21.6846 16.6595C21.367 16.8716 21.1195 17.1732 20.9734 17.526C20.8272 17.8788 20.789 18.267 20.8635 18.6416C20.938 19.0161 21.122 19.3602 21.392 19.6302L21.5147 19.7528L20.2667 20.9795L20.144 20.8568C19.874 20.5868 19.53 20.4029 19.1554 20.3283C18.7809 20.2538 18.3926 20.292 18.0398 20.4382C17.687 20.5844 17.3855 20.8319 17.1733 21.1494C16.9612 21.467 16.848 21.8403 16.848 22.2222V22.3982H15.136V22.2222C15.1346 21.8403 15.0203 21.4674 14.8075 21.1504C14.5946 20.8333 14.2928 20.5863 13.9399 20.4404C13.5871 20.2944 13.1989 20.2561 12.8243 20.3302C12.4497 20.4043 12.1054 20.5875 11.8347 20.8568L11.712 20.9795L10.4854 19.7315L10.608 19.6088C10.8781 19.3388 11.062 18.9948 11.1365 18.6202C11.2111 18.2457 11.1728 17.8575 11.0267 17.5046C10.8805 17.1518 10.633 16.8503 10.3155 16.6381C9.99792 16.426 9.62459 16.3128 9.24269 16.3128H9.06669V14.6008Z" fill="#E85122"/>
<path d="M15.9991 19.7326C16.843 19.7326 17.6679 19.4823 18.3695 19.0135C19.0712 18.5447 19.618 17.8783 19.941 17.0987C20.2639 16.319 20.3484 15.4612 20.1838 14.6335C20.0191 13.8059 19.6128 13.0456 19.0161 12.4489C18.4194 11.8522 17.6591 11.4458 16.8315 11.2812C16.0038 11.1166 15.1459 11.2011 14.3663 11.524C13.5867 11.8469 12.9203 12.3938 12.4515 13.0955C11.9827 13.7971 11.7324 14.622 11.7324 15.4659C11.7324 16.5975 12.1819 17.6827 12.9821 18.4829C13.7823 19.283 14.8675 19.7326 15.9991 19.7326ZM15.9991 12.2659C16.632 12.2659 17.2507 12.4536 17.7769 12.8052C18.3032 13.1568 18.7133 13.6566 18.9555 14.2413C19.1977 14.826 19.2611 15.4694 19.1376 16.0902C19.0141 16.7109 18.7094 17.2811 18.2618 17.7286C17.8143 18.1762 17.2441 18.4809 16.6234 18.6044C16.0026 18.7279 15.3592 18.6645 14.7745 18.4223C14.1898 18.1801 13.69 17.7699 13.3384 17.2437C12.9868 16.7175 12.7991 16.0988 12.7991 15.4659C12.7991 14.6172 13.1362 13.8033 13.7363 13.2031C14.3365 12.603 15.1504 12.2659 15.9991 12.2659Z" fill="#E85122"/>
</svg>
