<svg width="40" height="39" viewBox="0 0 40 39" fill="none" xmlns="http://www.w3.org/2000/svg">
<path d="M39.7586 16.5518L33.1517 10.9524V2.34796C33.1517 2.16641 33.079 1.9923 32.9497 1.86393C32.8204 1.73556 32.6449 1.66344 32.462 1.66344H27.731C27.5481 1.66344 27.3727 1.73556 27.2434 1.86393C27.114 1.9923 27.0414 2.16641 27.0414 2.34796V5.77057L20.4483 0.16433C20.3234 0.0582777 20.1644 0 20 0C19.8356 0 19.6766 0.0582777 19.5517 0.16433L0.241432 16.5518C0.134283 16.6428 0.0577915 16.7641 0.0222606 16.8995C-0.0132703 17.035 -0.00613319 17.1779 0.0427105 17.3092C0.0915541 17.4405 0.179758 17.5537 0.295439 17.6337C0.41112 17.7137 0.548722 17.7566 0.689707 17.7566H5.51728V33.8566C5.51728 35.0439 5.99247 36.1826 6.83833 37.0221C7.68418 37.8617 8.8314 38.3333 10.0276 38.3333H16.3586C16.5415 38.3333 16.717 38.2612 16.8463 38.1328C16.9756 38.0045 17.0483 37.8304 17.0483 37.6488C17.0483 37.4673 16.9756 37.2932 16.8463 37.1648C16.717 37.0364 16.5415 36.9643 16.3586 36.9643H10.0276C9.19721 36.9643 8.40082 36.6369 7.81364 36.0541C7.22646 35.4712 6.89659 34.6808 6.89659 33.8566V17.7566H33.1034V33.8566C33.1034 34.6808 32.7735 35.4712 32.1864 36.0541C31.5992 36.6369 30.8028 36.9643 29.9724 36.9643H23.8207C22.9903 36.9643 22.1939 36.6369 21.6067 36.0541C21.0195 35.4712 20.6897 34.6808 20.6897 33.8566V31.7551C21.7045 31.5926 22.628 31.0772 23.2951 30.3009C23.9622 29.5246 24.3294 28.5382 24.331 27.5179V24.5128C24.331 24.3313 24.2584 24.1572 24.129 24.0288C23.9997 23.9004 23.8243 23.8283 23.6414 23.8283H22.5862V22.0622C22.5862 21.8807 22.5135 21.7066 22.3842 21.5782C22.2549 21.4498 22.0795 21.3777 21.8965 21.3777C21.7136 21.3777 21.5382 21.4498 21.4089 21.5782C21.2796 21.7066 21.2069 21.8807 21.2069 22.0622V23.8283H18.7931V22.0622C18.7931 21.8807 18.7204 21.7066 18.5911 21.5782C18.4618 21.4498 18.2864 21.3777 18.1035 21.3777C17.9205 21.3777 17.7451 21.4498 17.6158 21.5782C17.4865 21.7066 17.4138 21.8807 17.4138 22.0622V23.8283H16.3586C16.1757 23.8283 16.0003 23.9004 15.871 24.0288C15.7416 24.1572 15.669 24.3313 15.669 24.5128V27.5179C15.6706 28.5382 16.0378 29.5246 16.7049 30.3009C17.372 31.0772 18.2955 31.5926 19.3103 31.7551V33.8566C19.3103 35.0439 19.7855 36.1826 20.6314 37.0221C21.4772 37.8617 22.6245 38.3333 23.8207 38.3333H29.9724C31.1686 38.3333 32.3158 37.8617 33.1617 37.0221C34.0075 36.1826 34.4827 35.0439 34.4827 33.8566V17.7566H39.3103C39.4513 17.7566 39.5889 17.7137 39.7046 17.6337C39.8202 17.5537 39.9084 17.4405 39.9573 17.3092C40.0061 17.1779 40.0133 17.035 39.9777 16.8995C39.9422 16.7641 39.8657 16.6428 39.7586 16.5518ZM17.0483 27.5042V25.1973H22.9517V27.5179C22.9517 28.2949 22.6407 29.0401 22.0872 29.5895C21.5336 30.139 20.7828 30.4476 20 30.4476C19.2172 30.4476 18.4664 30.139 17.9128 29.5895C17.3593 29.0401 17.0483 28.2949 17.0483 27.5179V27.5042ZM28.4207 3.03248H31.7724V9.77503L28.4207 6.92742V3.03248ZM33.7931 16.3875H2.55867L20 1.58814L37.4413 16.3875H33.7931Z" fill="#E85123"/>
</svg>
