<svg width="29" height="29" viewBox="0 0 29 29" fill="none" xmlns="http://www.w3.org/2000/svg">
<path d="M14.5004 3.67071C20.4816 3.67071 25.3301 8.51914 25.3301 14.5004C25.3301 20.4816 20.4816 25.3301 14.5004 25.3301C8.51914 25.3301 3.6707 20.4816 3.6707 14.5004C3.6707 8.51914 8.51914 3.67071 14.5004 3.67071ZM14.5004 24.152C19.802 24.152 24.152 19.802 24.152 14.5004C24.152 9.19883 19.802 4.84884 14.5004 4.84884C9.19883 4.84884 4.84883 9.19883 4.84883 14.5004C4.84883 19.802 9.19883 24.152 14.5004 24.152Z" fill="#030303" fill-opacity="0.9"/>
<path d="M14.7273 8.29335L15.543 9.1543L10.2414 14.5012L15.543 19.848L14.7273 20.709L8.51953 14.5012L14.7273 8.29335Z" fill="#030303" fill-opacity="0.9"/>
<path d="M9.38086 13.866L20.2559 13.866V15.1348L9.38086 15.1348V13.866Z" fill="#030303" fill-opacity="0.9"/>
</svg>
