<svg width="30" height="30" viewBox="0 0 30 30" fill="none" xmlns="http://www.w3.org/2000/svg">
<path d="M30 23.6871C30 22.3539 28.9153 21.2692 27.5822 21.2692C26.249 21.2692 25.1643 22.3539 25.1643 23.6871C25.1643 24.8925 26.0521 25.8918 27.2075 26.0728V29.2204H24.2106V2.69661C24.2106 2.48954 24.043 2.32199 23.836 2.32199H20.3521V0.37462C20.3521 0.167555 20.1845 0 19.9774 0C19.7704 0 19.6028 0.167555 19.6028 0.37462V2.32199H16.1186C15.9115 2.32199 15.7439 2.48954 15.7439 2.69661V29.2204H14.2257V2.69661C14.2257 2.48954 14.0581 2.32199 13.8511 2.32199H10.3668V0.37462C10.3668 0.167555 10.1993 0 9.9922 0C9.78513 0 9.61757 0.167555 9.61757 0.37462V2.32199H6.13368C5.92661 2.32199 5.75906 2.48954 5.75906 2.69661V29.2204H2.79246V26.0732C3.94787 25.8922 4.83568 24.8928 4.83568 23.6874C4.83568 22.3543 3.75096 21.2696 2.41784 21.2696C1.08472 21.2696 0 22.3543 0 23.6874C0 24.8928 0.887803 25.8922 2.04322 26.0732V29.2204H0.37462C0.167555 29.2204 0 29.3879 0 29.595C0 29.8021 0.167555 29.9696 0.37462 29.9696H29.595C29.8021 29.9696 29.9696 29.8021 29.9696 29.595C29.9696 29.3879 29.8021 29.2204 29.595 29.2204H27.9568V26.0728C29.1122 25.8918 30 24.8925 30 23.6871ZM0.749241 23.6874C0.749241 22.7673 1.49775 22.0188 2.41784 22.0188C3.33793 22.0188 4.08644 22.7673 4.08644 23.6874C4.08644 24.6071 3.33859 25.3552 2.41905 25.3559C2.41862 25.3559 2.41827 25.3557 2.41784 25.3557C2.4174 25.3557 2.41706 25.3559 2.41663 25.3559C1.49709 25.3552 0.749241 24.6071 0.749241 23.6874ZM23.4613 17.6426H16.4932V13.5024H23.4613V17.6426ZM23.4613 12.7532H16.4932V8.40774H23.4613V12.7532ZM16.4932 18.3919H23.4613V22.7373H16.4932V18.3919ZM23.4613 3.07123V7.6585H16.4932V3.07123H23.4613ZM16.4932 23.4866H23.4613V29.2204H22.0163V25.7274C22.0163 25.5203 21.8487 25.3527 21.6416 25.3527H18.3129C18.1058 25.3527 17.9382 25.5203 17.9382 25.7274V29.2204H16.4932V23.4866ZM21.267 29.2204H18.6875V26.102H21.267V29.2204ZM13.4765 17.6426H6.5083V13.5024H13.4765V17.6426ZM13.4765 12.7532H6.5083V8.40774H13.4765V12.7532ZM6.5083 18.3919H13.4765V22.7373H6.5083V18.3919ZM13.4765 3.07123V7.6585H6.5083V3.07123H13.4765ZM6.5083 23.4866H13.4765V29.2204H12.0314V25.7274C12.0314 25.5203 11.8638 25.3527 11.6568 25.3527H8.32799C8.12092 25.3527 7.95337 25.5203 7.95337 25.7274V29.2204H6.5083V23.4866ZM11.2821 29.2204H8.70261V26.102H11.2821V29.2204ZM25.9136 23.6871C25.9136 22.767 26.6621 22.0185 27.5822 22.0185C28.5022 22.0185 29.2508 22.767 29.2508 23.6871C29.2508 24.6071 28.5022 25.3557 27.5822 25.3557C26.6621 25.3557 25.9136 24.6071 25.9136 23.6871Z" fill="white"/>
<path d="M8.06798 11.4288C8.27505 11.4288 8.4426 11.2613 8.4426 11.0542V10.107C8.4426 9.89998 8.27505 9.73242 8.06798 9.73242C7.86091 9.73242 7.69336 9.89998 7.69336 10.107V11.0542C7.69336 11.2613 7.86091 11.4288 8.06798 11.4288Z" fill="white"/>
<path d="M9.99181 11.4288C10.1989 11.4288 10.3664 11.2613 10.3664 11.0542V10.107C10.3664 9.89998 10.1989 9.73242 9.99181 9.73242C9.78474 9.73242 9.61719 9.89998 9.61719 10.107V11.0542C9.61719 11.2613 9.78474 11.4288 9.99181 11.4288Z" fill="white"/>
<path d="M11.9156 11.4288C12.1227 11.4288 12.2903 11.2613 12.2903 11.0542V10.107C12.2903 9.89998 12.1227 9.73242 11.9156 9.73242C11.7086 9.73242 11.541 9.89998 11.541 10.107V11.0542C11.541 11.2613 11.7086 11.4288 11.9156 11.4288Z" fill="white"/>
<path d="M8.06798 6.33507C8.27505 6.33507 8.4426 6.16752 8.4426 5.96045V5.01329C8.4426 4.80623 8.27505 4.63867 8.06798 4.63867C7.86091 4.63867 7.69336 4.80623 7.69336 5.01329V5.96045C7.69336 6.16752 7.86091 6.33507 8.06798 6.33507Z" fill="white"/>
<path d="M9.99181 6.33507C10.1989 6.33507 10.3664 6.16752 10.3664 5.96045V5.01329C10.3664 4.80623 10.1989 4.63867 9.99181 4.63867C9.78474 4.63867 9.61719 4.80623 9.61719 5.01329V5.96045C9.61719 6.16752 9.78474 6.33507 9.99181 6.33507Z" fill="white"/>
<path d="M11.9156 6.33507C12.1227 6.33507 12.2903 6.16752 12.2903 5.96045V5.01329C12.2903 4.80623 12.1227 4.63867 11.9156 4.63867C11.7086 4.63867 11.541 4.80623 11.541 5.01329V5.96045C11.541 6.16752 11.7086 6.33507 11.9156 6.33507Z" fill="white"/>
<path d="M8.06798 16.4894C8.27505 16.4894 8.4426 16.3218 8.4426 16.1147V15.1676C8.4426 14.9605 8.27505 14.793 8.06798 14.793C7.86091 14.793 7.69336 14.9605 7.69336 15.1676V16.1147C7.69336 16.3218 7.86091 16.4894 8.06798 16.4894Z" fill="white"/>
<path d="M9.99181 16.4894C10.1989 16.4894 10.3664 16.3218 10.3664 16.1147V15.1676C10.3664 14.9605 10.1989 14.793 9.99181 14.793C9.78474 14.793 9.61719 14.9605 9.61719 15.1676V16.1147C9.61719 16.3218 9.78474 16.4894 9.99181 16.4894Z" fill="white"/>
<path d="M11.9156 16.4894C12.1227 16.4894 12.2903 16.3218 12.2903 16.1147V15.1676C12.2903 14.9605 12.1227 14.793 11.9156 14.793C11.7086 14.793 11.541 14.9605 11.541 15.1676V16.1147C11.541 16.3218 11.7086 16.4894 11.9156 16.4894Z" fill="white"/>
<path d="M8.06798 19.7168C7.86091 19.7168 7.69336 19.8844 7.69336 20.0914V21.0386C7.69336 21.2456 7.86091 21.4132 8.06798 21.4132C8.27505 21.4132 8.4426 21.2456 8.4426 21.0386V20.0914C8.4426 19.8844 8.27505 19.7168 8.06798 19.7168Z" fill="white"/>
<path d="M9.99181 19.7168C9.78474 19.7168 9.61719 19.8844 9.61719 20.0914V21.0386C9.61719 21.2456 9.78474 21.4132 9.99181 21.4132C10.1989 21.4132 10.3664 21.2456 10.3664 21.0386V20.0914C10.3664 19.8844 10.1989 19.7168 9.99181 19.7168Z" fill="white"/>
<path d="M11.9156 19.7168C11.7086 19.7168 11.541 19.8844 11.541 20.0914V21.0386C11.541 21.2456 11.7086 21.4132 11.9156 21.4132C12.1227 21.4132 12.2903 21.2456 12.2903 21.0386V20.0914C12.2903 19.8844 12.1227 19.7168 11.9156 19.7168Z" fill="white"/>
<path d="M18.0543 11.4288C18.2614 11.4288 18.4289 11.2613 18.4289 11.0542V10.107C18.4289 9.89998 18.2614 9.73242 18.0543 9.73242C17.8472 9.73242 17.6797 9.89998 17.6797 10.107V11.0542C17.6797 11.2613 17.8472 11.4288 18.0543 11.4288Z" fill="white"/>
<path d="M19.9781 11.4288C20.1852 11.4288 20.3528 11.2613 20.3528 11.0542V10.107C20.3528 9.89998 20.1852 9.73242 19.9781 9.73242C19.7711 9.73242 19.6035 9.89998 19.6035 10.107V11.0542C19.6035 11.2613 19.7711 11.4288 19.9781 11.4288Z" fill="white"/>
<path d="M21.9 11.4288C22.1071 11.4288 22.2746 11.2613 22.2746 11.0542V10.107C22.2746 9.89998 22.1071 9.73242 21.9 9.73242C21.6929 9.73242 21.5254 9.89998 21.5254 10.107V11.0542C21.5254 11.2613 21.6929 11.4288 21.9 11.4288Z" fill="white"/>
<path d="M18.0543 6.33507C18.2614 6.33507 18.4289 6.16752 18.4289 5.96045V5.01329C18.4289 4.80623 18.2614 4.63867 18.0543 4.63867C17.8472 4.63867 17.6797 4.80623 17.6797 5.01329V5.96045C17.6797 6.16752 17.8472 6.33507 18.0543 6.33507Z" fill="white"/>
<path d="M19.9781 6.33507C20.1852 6.33507 20.3528 6.16752 20.3528 5.96045V5.01329C20.3528 4.80623 20.1852 4.63867 19.9781 4.63867C19.7711 4.63867 19.6035 4.80623 19.6035 5.01329V5.96045C19.6035 6.16752 19.7711 6.33507 19.9781 6.33507Z" fill="white"/>
<path d="M21.9 6.33507C22.1071 6.33507 22.2746 6.16752 22.2746 5.96045V5.01329C22.2746 4.80623 22.1071 4.63867 21.9 4.63867C21.6929 4.63867 21.5254 4.80623 21.5254 5.01329V5.96045C21.5254 6.16752 21.6929 6.33507 21.9 6.33507Z" fill="white"/>
<path d="M18.0543 16.4894C18.2614 16.4894 18.4289 16.3218 18.4289 16.1147V15.1676C18.4289 14.9605 18.2614 14.793 18.0543 14.793C17.8472 14.793 17.6797 14.9605 17.6797 15.1676V16.1147C17.6797 16.3218 17.8472 16.4894 18.0543 16.4894Z" fill="white"/>
<path d="M19.9781 16.4894C20.1852 16.4894 20.3528 16.3218 20.3528 16.1147V15.1676C20.3528 14.9605 20.1852 14.793 19.9781 14.793C19.7711 14.793 19.6035 14.9605 19.6035 15.1676V16.1147C19.6035 16.3218 19.7711 16.4894 19.9781 16.4894Z" fill="white"/>
<path d="M21.9 16.4894C22.1071 16.4894 22.2746 16.3218 22.2746 16.1147V15.1676C22.2746 14.9605 22.1071 14.793 21.9 14.793C21.6929 14.793 21.5254 14.9605 21.5254 15.1676V16.1147C21.5254 16.3218 21.6929 16.4894 21.9 16.4894Z" fill="white"/>
<path d="M18.0543 19.7168C17.8472 19.7168 17.6797 19.8844 17.6797 20.0914V21.0386C17.6797 21.2456 17.8472 21.4132 18.0543 21.4132C18.2614 21.4132 18.4289 21.2456 18.4289 21.0386V20.0914C18.4289 19.8844 18.2614 19.7168 18.0543 19.7168Z" fill="white"/>
<path d="M19.9781 19.7168C19.7711 19.7168 19.6035 19.8844 19.6035 20.0914V21.0386C19.6035 21.2456 19.7711 21.4132 19.9781 21.4132C20.1852 21.4132 20.3528 21.2456 20.3528 21.0386V20.0914C20.3528 19.8844 20.1852 19.7168 19.9781 19.7168Z" fill="white"/>
<path d="M21.9 19.7168C21.6929 19.7168 21.5254 19.8844 21.5254 20.0914V21.0386C21.5254 21.2456 21.6929 21.4132 21.9 21.4132C22.1071 21.4132 22.2746 21.2456 22.2746 21.0386V20.0914C22.2746 19.8844 22.1071 19.7168 21.9 19.7168Z" fill="white"/>
</svg>
