<svg width="50" height="50" viewBox="0 0 50 50" fill="none" xmlns="http://www.w3.org/2000/svg">
<path d="M32.8462 21.5938H17.1528C15.9088 21.5938 14.8965 20.5816 14.8965 19.337V14.7764C14.8965 13.5318 15.9088 12.5195 17.1528 12.5195H32.8462C34.0902 12.5195 35.1024 13.5318 35.1024 14.7764V19.337C35.1024 20.5816 34.0902 21.5938 32.8462 21.5938ZM17.1528 13.6499C16.5316 13.6499 16.0269 14.1558 16.0269 14.7764V19.337C16.0269 19.9582 16.5322 20.4634 17.1528 20.4634H32.8462C33.4673 20.4634 33.972 19.9576 33.972 19.337V14.7764C33.972 14.1552 33.4668 13.6499 32.8462 13.6499H17.1528Z" fill="#E85123"/>
<path d="M19.8086 18.8158C18.8392 18.8158 18.0508 18.0267 18.0508 17.058C18.0508 16.0892 18.8398 15.3008 19.8086 15.3008C20.7773 15.3008 21.5658 16.0892 21.5658 17.058C21.5658 18.0267 20.7779 18.8158 19.8086 18.8158ZM19.8086 16.4312C19.4627 16.4312 19.1812 16.7127 19.1812 17.058C19.1812 17.4039 19.4627 17.6854 19.8086 17.6854C20.1539 17.6854 20.4354 17.4039 20.4354 17.058C20.4359 16.7127 20.1545 16.4312 19.8086 16.4312Z" fill="#E85123"/>
<path d="M24.6314 17.6226H23.8543C23.5417 17.6226 23.2891 17.3699 23.2891 17.0574C23.2891 16.7448 23.5417 16.4922 23.8543 16.4922H24.6314C24.944 16.4922 25.1966 16.7448 25.1966 17.0574C25.1966 17.3699 24.9434 17.6226 24.6314 17.6226Z" fill="#E85123"/>
<path d="M28.005 17.6226H27.2273C26.9148 17.6226 26.6621 17.3699 26.6621 17.0574C26.6621 16.7448 26.9148 16.4922 27.2273 16.4922H28.005C28.3176 16.4922 28.5702 16.7448 28.5702 17.0574C28.5702 17.3699 28.3176 17.6226 28.005 17.6226Z" fill="#E85123"/>
<path d="M31.3814 17.6226H30.6043C30.2917 17.6226 30.0391 17.3699 30.0391 17.0574C30.0391 16.7448 30.2917 16.4922 30.6043 16.4922H31.3814C31.694 16.4922 31.9466 16.7448 31.9466 17.0574C31.9466 17.3699 31.694 17.6226 31.3814 17.6226Z" fill="#E85123"/>
<path d="M32.8462 29.5392H17.1528C15.9088 29.5392 14.8965 28.5269 14.8965 27.2823V22.7217C14.8965 21.4771 15.9088 20.4648 17.1528 20.4648H32.8462C34.0902 20.4648 35.1024 21.4771 35.1024 22.7217V27.2823C35.1024 28.5269 34.0902 29.5392 32.8462 29.5392ZM17.1528 21.5947C16.5316 21.5947 16.0269 22.1005 16.0269 22.7211V27.2817C16.0269 27.9029 16.5322 28.4082 17.1528 28.4082H32.8462C33.4673 28.4082 33.972 27.9023 33.972 27.2817V22.7211C33.972 22.1 33.4668 21.5947 32.8462 21.5947H17.1528Z" fill="#E85123"/>
<path d="M19.8086 26.7572C18.8392 26.7572 18.0508 25.9682 18.0508 24.9994C18.0508 24.0306 18.8398 23.2422 19.8086 23.2422C20.7773 23.2422 21.5658 24.0306 21.5658 24.9994C21.5658 25.9682 20.7779 26.7572 19.8086 26.7572ZM19.8086 24.372C19.4627 24.372 19.1812 24.6535 19.1812 24.9988C19.1812 25.3447 19.4627 25.6262 19.8086 25.6262C20.1539 25.6262 20.4354 25.3447 20.4354 24.9988C20.4359 24.6535 20.1545 24.372 19.8086 24.372Z" fill="#E85123"/>
<path d="M24.6314 25.564H23.8543C23.5417 25.564 23.2891 25.3114 23.2891 24.9988C23.2891 24.6862 23.5417 24.4336 23.8543 24.4336H24.6314C24.944 24.4336 25.1966 24.6862 25.1966 24.9988C25.1966 25.3114 24.9434 25.564 24.6314 25.564Z" fill="#E85123"/>
<path d="M28.005 25.564H27.2273C26.9148 25.564 26.6621 25.3114 26.6621 24.9988C26.6621 24.6862 26.9148 24.4336 27.2273 24.4336H28.005C28.3176 24.4336 28.5702 24.6862 28.5702 24.9988C28.5702 25.3114 28.3176 25.564 28.005 25.564Z" fill="#E85123"/>
<path d="M31.3814 25.564H30.6043C30.2917 25.564 30.0391 25.3114 30.0391 24.9988C30.0391 24.6862 30.2917 24.4336 30.6043 24.4336H31.3814C31.694 24.4336 31.9466 24.6862 31.9466 24.9988C31.9466 25.3114 31.694 25.564 31.3814 25.564Z" fill="#E85123"/>
<path d="M32.8462 37.4806H17.1528C15.9088 37.4806 14.8965 36.4683 14.8965 35.2237V30.6631C14.8965 29.4185 15.9088 28.4062 17.1528 28.4062H32.8462C34.0902 28.4062 35.1024 29.4185 35.1024 30.6631V35.2237C35.1024 36.4683 34.0902 37.4806 32.8462 37.4806ZM17.1528 29.5361C16.5316 29.5361 16.0269 30.0419 16.0269 30.6625V35.2231C16.0269 35.8443 16.5322 36.3496 17.1528 36.3496H32.8462C33.4673 36.3496 33.972 35.8437 33.972 35.2231V30.6625C33.972 30.0414 33.4668 29.5361 32.8462 29.5361H17.1528Z" fill="#E85123"/>
<path d="M19.8086 34.7031C18.8392 34.7031 18.0508 33.914 18.0508 32.9453C18.0508 31.9765 18.8398 31.1875 19.8086 31.1875C20.7773 31.1875 21.5658 31.9765 21.5658 32.9453C21.5658 33.914 20.7779 34.7031 19.8086 34.7031ZM19.8086 32.3173C19.4627 32.3173 19.1812 32.5988 19.1812 32.9447C19.1812 33.2906 19.4627 33.5721 19.8086 33.5721C20.1539 33.5721 20.4354 33.2906 20.4354 32.9447C20.4354 32.5988 20.1545 32.3173 19.8086 32.3173Z" fill="#E85123"/>
<path d="M24.6314 33.5093H23.8543C23.5417 33.5093 23.2891 33.2567 23.2891 32.9441C23.2891 32.6316 23.5417 32.3789 23.8543 32.3789H24.6314C24.944 32.3789 25.1966 32.6316 25.1966 32.9441C25.1966 33.2567 24.9434 33.5093 24.6314 33.5093Z" fill="#E85123"/>
<path d="M28.005 33.5093H27.2273C26.9148 33.5093 26.6621 33.2567 26.6621 32.9441C26.6621 32.6316 26.9148 32.3789 27.2273 32.3789H28.005C28.3176 32.3789 28.5702 32.6316 28.5702 32.9441C28.5702 33.2567 28.3176 33.5093 28.005 33.5093Z" fill="#E85123"/>
<path d="M31.3814 33.5093H30.6043C30.2917 33.5093 30.0391 33.2567 30.0391 32.9441C30.0391 32.6316 30.2917 32.3789 30.6043 32.3789H31.3814C31.694 32.3789 31.9466 32.6316 31.9466 32.9441C31.9466 33.2567 31.694 33.5093 31.3814 33.5093Z" fill="#E85123"/>
<path d="M24.996 4.96756C23.6293 4.96756 22.5176 3.85298 22.5176 2.48349C22.5176 1.11401 23.6293 0 24.996 0C26.3655 0 27.4795 1.11401 27.4795 2.48349C27.4795 3.85298 26.3655 4.96756 24.996 4.96756ZM24.996 1.13096C24.2527 1.13096 23.648 1.73799 23.648 2.48406C23.648 3.23012 24.2522 3.83772 24.996 3.83772C25.7415 3.83772 26.3491 3.23069 26.3491 2.48406C26.3491 1.73799 25.7415 1.13096 24.996 1.13096Z" fill="#E85123"/>
<path d="M25.0016 49.9988C23.6322 49.9988 22.5176 48.8848 22.5176 47.5153C22.5176 46.1458 23.6322 45.0312 25.0016 45.0312C26.3677 45.0312 27.4795 46.1458 27.4795 47.5153C27.4795 48.8848 26.3677 49.9988 25.0016 49.9988ZM25.0016 46.1622C24.2556 46.1622 23.648 46.7692 23.648 47.5159C23.648 48.2614 24.255 48.869 25.0016 48.869C25.7443 48.869 26.3491 48.2619 26.3491 47.5159C26.3491 46.7698 25.7443 46.1622 25.0016 46.1622Z" fill="#E85123"/>
<path d="M25.0004 10.2133C24.7274 10.2133 24.5059 9.99173 24.5059 9.71874V4.40471C24.5059 4.13172 24.7274 3.91016 25.0004 3.91016C25.2734 3.91016 25.495 4.13172 25.495 4.40471V9.71874C25.495 9.99173 25.2734 10.2133 25.0004 10.2133Z" fill="#E85123"/>
<path d="M25.0004 46.1013C24.7274 46.1013 24.5059 45.8927 24.5059 45.6192V40.2797C24.5059 40.0067 24.7274 39.7852 25.0004 39.7852C25.2734 39.7852 25.495 40.0067 25.495 40.2797V45.5937C25.495 45.8673 25.2734 46.1013 25.0004 46.1013Z" fill="#E85123"/>
<path d="M40.9189 11.5596C40.283 11.5596 39.6471 11.3177 39.1628 10.8338C38.1968 9.86735 38.1985 8.29383 39.1667 7.32564C40.136 6.35632 41.709 6.35519 42.6749 7.32112C43.6437 8.28987 43.6437 9.86509 42.6749 10.8338C42.1906 11.3177 41.5547 11.5596 40.9189 11.5596ZM40.9245 7.72749C40.578 7.72749 40.2304 7.85976 39.9659 8.12427C39.4386 8.65217 39.4369 9.50845 39.962 10.0341C40.4893 10.562 41.3473 10.5631 41.8757 10.0341C42.4036 9.50619 42.4036 8.64764 41.8757 8.11974C41.6141 7.85862 41.2693 7.72749 40.9245 7.72749Z" fill="#E85123"/>
<path d="M9.07411 43.4021C8.43939 43.4021 7.80637 43.1613 7.32368 42.6792C6.854 42.2101 6.5957 41.5861 6.5957 40.9231C6.5957 40.2602 6.85457 39.6367 7.32368 39.1676C8.29244 38.2 9.86822 38.1989 10.8358 39.1671C11.8018 40.1336 11.8001 41.7071 10.8319 42.6753C10.3469 43.1596 9.70996 43.4021 9.07411 43.4021ZM9.08033 39.57C8.73386 39.57 8.38683 39.7017 8.12288 39.9657C7.86684 40.2212 7.72611 40.5614 7.72611 40.922C7.72611 41.2837 7.86684 41.6234 8.12288 41.8789C8.64852 42.404 9.50536 42.4023 10.0327 41.8744C10.56 41.3465 10.5617 40.4902 10.0361 39.9646C9.77327 39.7017 9.4268 39.57 9.08033 39.57Z" fill="#E85123"/>
<path d="M36.0844 14.4094C35.9578 14.4094 35.8318 14.3613 35.7351 14.2647C35.5418 14.0719 35.5412 13.7583 35.7345 13.5655L39.2111 10.0828C39.4038 9.89002 39.7169 9.88833 39.9102 10.0822C40.1035 10.2749 40.1041 10.5886 39.9108 10.7813L36.4343 14.2641C36.3382 14.3608 36.2116 14.4094 36.0844 14.4094Z" fill="#E85123"/>
<path d="M10.7871 39.9186L10.418 39.5879L10.084 39.2228L13.6103 35.6971C13.8036 35.5043 14.1303 35.4936 14.3224 35.6852C14.5152 35.8791 14.5276 36.1781 14.3349 36.3713L14.3066 36.399C14.3049 36.4007 14.2659 36.4403 14.2642 36.442L10.7871 39.9186Z" fill="#E85123"/>
<path d="M47.5173 27.4809C46.1478 27.4809 45.0332 26.3669 45.0332 24.9974C45.0332 23.6313 46.1478 22.5195 47.5173 22.5195C48.8867 22.5195 50.0008 23.6313 50.0008 24.9974C50.0002 26.3669 48.8867 27.4809 47.5173 27.4809ZM47.5173 23.6499C46.7712 23.6499 46.1636 24.2541 46.1636 24.9974C46.1636 25.7429 46.7706 26.3505 47.5173 26.3505C48.2628 26.3505 48.8704 25.7434 48.8704 24.9974C48.8698 24.2547 48.2628 23.6499 47.5173 23.6499Z" fill="#E85123"/>
<path d="M2.48406 27.4814C1.11458 27.4814 0 26.3697 0 25.0036C0 23.6341 1.11401 22.5195 2.48406 22.5195C3.85411 22.5195 4.96812 23.6335 4.96812 25.003C4.96756 26.3697 3.85355 27.4814 2.48406 27.4814ZM2.48406 23.6499C1.738 23.6499 1.1304 24.257 1.1304 25.0036C1.1304 25.7463 1.73743 26.351 2.48406 26.351C3.23069 26.351 3.83772 25.7468 3.83772 25.003C3.83715 24.2575 3.23013 23.6499 2.48406 23.6499Z" fill="#E85123"/>
<path d="M45.5951 25.493H38.2153C37.9423 25.493 37.7207 25.2715 37.7207 24.9985C37.7207 24.7255 37.9423 24.5039 38.2153 24.5039H45.5957C45.8687 24.5039 46.0902 24.7255 46.0902 24.9985C46.0902 25.2715 45.8686 25.493 45.5951 25.493Z" fill="#E85123"/>
<path d="M11.7412 25.493H4.40599C4.133 25.493 3.89844 25.2715 3.89844 24.9985C3.89844 24.7255 4.107 24.5039 4.38055 24.5039H11.7412C12.0142 24.5039 12.2357 24.7255 12.2357 24.9985C12.2357 25.2715 12.0142 25.493 11.7412 25.493Z" fill="#E85123"/>
<path d="M40.9236 43.4032C40.2878 43.4032 39.6514 43.1607 39.1675 42.6769C38.1994 41.7087 38.1994 40.1335 39.1675 39.1647C40.134 38.1982 41.7081 38.2011 42.6758 39.1687C43.6445 40.1374 43.6462 41.711 42.6803 42.6769C42.1959 43.1607 41.5595 43.4032 40.9236 43.4032ZM40.918 39.5711C40.5732 39.5711 40.2284 39.7017 39.9662 39.9634C39.4388 40.4913 39.4388 41.3492 39.9662 41.8771C40.4941 42.405 41.3526 42.405 41.8805 41.8771C42.4062 41.3515 42.4039 40.4952 41.876 39.9673C41.612 39.7034 41.2644 39.5711 40.918 39.5711Z" fill="#E85123"/>
<path d="M9.08146 11.5613C9.08089 11.5613 9.07977 11.5613 9.0792 11.5613C8.41622 11.5607 7.7928 11.3024 7.32425 10.8333C6.85513 10.3647 6.59683 9.74075 6.5957 9.07833C6.59514 8.41535 6.85231 7.79306 7.31973 7.32507C7.78885 6.85595 8.41283 6.59766 9.07581 6.59766C9.73936 6.59766 10.3628 6.85595 10.8319 7.32507C11.8001 8.29326 11.8006 9.86848 10.8325 10.8372C10.365 11.3041 9.74331 11.5613 9.08146 11.5613ZM9.07581 7.7275C8.71465 7.7275 8.37496 7.86824 8.11892 8.12371C7.86515 8.37748 7.72554 8.71603 7.72611 9.07663C7.72611 9.43836 7.86741 9.77805 8.12344 10.0335C8.37948 10.289 8.71917 10.4303 9.08033 10.4303C9.0809 10.4303 9.08146 10.4303 9.08146 10.4303C9.44149 10.4303 9.77949 10.2907 10.0333 10.0375C10.5606 9.50958 10.5606 8.65161 10.0327 8.12371C9.77666 7.86824 9.43697 7.7275 9.07581 7.7275Z" fill="#E85123"/>
<path d="M39.5666 40.0539C39.44 40.0539 39.3134 40.0058 39.2167 39.9092L35.7153 36.4072C35.522 36.2139 35.522 35.9008 35.7153 35.7075C35.9086 35.5142 36.2217 35.5142 36.415 35.7075L39.9164 39.2095C40.1097 39.4028 40.1097 39.7159 39.9164 39.9092C39.8203 40.0058 39.6932 40.0539 39.5666 40.0539Z" fill="#E85123"/>
<path d="M13.9353 14.4357C13.8087 14.4357 13.6821 14.3877 13.5854 14.291L10.084 10.789L10.4141 10.42L10.7792 10.0859L14.2851 13.5913C14.4784 13.7846 14.4784 14.0977 14.2851 14.291C14.1885 14.3877 14.0619 14.4357 13.9353 14.4357Z" fill="#E85123"/>
</svg>
