<svg width="24" height="24" viewBox="0 0 24 24" fill="none" xmlns="http://www.w3.org/2000/svg">
<path d="M7.43424 18.842C7.51699 18.9247 7.51918 19.0575 7.43762 19.1414L7.139 19.4483C7.05547 19.5342 6.91622 19.5359 6.83141 19.4512C6.52777 19.1481 6.23925 18.8346 5.96287 18.5158C5.36278 18.8897 4.75884 19.0712 4.10244 19.0712C3.99153 19.0712 3.87894 19.0662 3.76469 19.0559C2.86109 18.9751 2.12073 18.6012 1.43433 17.8791C1.34939 17.7899 1.30709 17.6682 1.31797 17.5455C1.32886 17.4226 1.39207 17.3106 1.49167 17.2378C2.29524 16.649 3.09337 16.4122 3.99363 16.4935C4.17487 16.5097 4.34797 16.5411 4.51696 16.5813C4.24961 16.159 4.01437 15.7362 3.81161 15.3174C3.64824 15.3383 3.48684 15.3522 3.32896 15.3522C2.76813 15.3522 2.23996 15.2203 1.7306 14.9546C0.924117 14.5288 0.383775 13.8984 0.0284469 12.9696C-0.0159102 12.8544 -0.00798163 12.7259 0.0493612 12.6168C0.106704 12.5077 0.207975 12.4286 0.327675 12.3995C1.29573 12.1656 2.11979 12.2521 2.92421 12.6721C2.92747 12.6738 2.9303 12.6758 2.93351 12.6776C2.86066 12.2781 2.81806 11.8793 2.80092 11.4822C1.97262 11.2987 1.33597 10.9187 0.817789 10.2983C0.235618 9.60151 -0.023453 8.81323 0.00166122 7.81767C0.00500407 7.69435 0.0611039 7.57858 0.155261 7.49942C0.249847 7.42049 0.373746 7.38635 0.495503 7.40479C1.47946 7.5568 2.20854 7.9521 2.79071 8.64845C2.8766 8.75119 2.95323 8.85675 3.02519 8.96391C3.1286 8.49348 3.2663 8.0358 3.43649 7.59234C2.74002 7.1043 2.29709 6.50794 2.05619 5.73449C1.78666 4.86812 1.84987 4.04091 2.255 3.13055C2.3048 3.0179 2.40106 2.93227 2.51866 2.89561C2.63712 2.85938 2.76431 2.87469 2.8694 2.93875C3.71986 3.45737 4.24134 4.10265 4.5113 4.9694C4.55926 5.12334 4.59286 5.27586 4.61977 5.42799C4.85381 5.10927 5.10894 4.80531 5.38485 4.51652C5.00754 3.86313 4.85527 3.18346 4.92148 2.44839C5.00728 1.53889 5.38143 0.798755 6.0992 0.117711C6.18834 0.0328965 6.31095 -0.0089533 6.43318 0.00172352C6.5558 0.0130435 6.66757 0.0764613 6.74038 0.17594C7.32881 0.982233 7.56572 1.77742 7.48537 2.67852C7.43805 3.22664 7.28029 3.7107 7.0028 4.15814C6.98188 4.19184 6.95634 4.22263 6.92702 4.24921C6.656 4.46626 6.43305 4.66415 6.23715 4.85912L6.22138 4.87438C4.53436 6.51068 3.64289 8.66989 3.64289 11.1183C3.64289 11.9613 3.7853 12.8207 4.06571 13.6729C4.06721 13.677 4.07094 13.6804 4.07227 13.6845C4.17363 14.0006 4.3004 14.3313 4.44873 14.6673L4.4498 14.6673C5.07311 16.0627 6.12903 17.5385 7.43424 18.842ZM23.9506 12.6167C23.8933 12.5076 23.792 12.4285 23.6723 12.3994C22.7043 12.1655 21.8802 12.252 21.0758 12.672C21.0725 12.6737 21.0697 12.6757 21.0665 12.6775C21.1393 12.278 21.1819 11.8792 21.1991 11.4821C22.0274 11.2986 22.664 10.9186 23.1822 10.2982C23.7644 9.60143 24.0234 8.81314 23.9983 7.81758C23.995 7.69427 23.9389 7.57849 23.8447 7.49934C23.7501 7.4204 23.6262 7.38627 23.5045 7.40471C22.5205 7.55671 21.7914 7.95201 21.2093 8.64836C21.1234 8.7511 21.0468 8.85667 20.9748 8.96382C20.8714 8.4934 20.7337 8.03571 20.5635 7.59226C21.26 7.10421 21.7029 6.50785 21.9438 5.7344C22.2133 4.86804 22.1501 4.04082 21.745 3.13046C21.6952 3.01782 21.5989 2.93219 21.4813 2.89553C21.3629 2.8593 21.2357 2.8746 21.1306 2.93866C20.2801 3.45728 19.7586 4.10257 19.4887 4.96932C19.4407 5.12325 19.4071 5.27577 19.3802 5.42791C19.1462 5.10919 18.8911 4.80522 18.6151 4.51643C18.9925 3.86305 19.1447 3.18337 19.0785 2.4483C18.9927 1.5388 18.6186 0.798669 17.9008 0.117625C17.8117 0.0328106 17.689 -0.00903897 17.5668 0.00163785C17.4442 0.0129579 17.3324 0.0763754 17.2596 0.175854C16.6712 0.982147 16.4343 1.77733 16.5146 2.67843C16.5619 3.22655 16.7197 3.71061 16.9972 4.15805C17.0181 4.19175 17.0437 4.22254 17.073 4.24913C17.344 4.46618 17.5669 4.66406 17.7628 4.85903L17.7786 4.8743C19.4657 6.51073 20.3572 8.66997 20.3572 11.1183C20.3572 11.9614 20.2147 12.8208 19.9343 13.6729C19.9328 13.6771 19.9291 13.6804 19.9278 13.6846C19.8264 14.0006 19.6996 14.3314 19.5513 14.6673L19.5502 14.6673C18.927 16.0627 17.871 17.5386 16.5658 18.8421C16.483 18.9247 16.4809 19.0576 16.5624 19.1414L16.861 19.4484C16.9446 19.5343 17.0838 19.536 17.1686 19.4513C17.4723 19.1482 17.7608 18.8346 18.0372 18.5158C18.6373 18.8898 19.2412 19.0713 19.8976 19.0713C20.0085 19.0713 20.1211 19.0662 20.2354 19.056C21.139 18.9752 21.8793 18.6013 22.5657 17.8791C22.6506 17.7899 22.6929 17.6683 22.6821 17.5456C22.6712 17.4227 22.608 17.3107 22.5084 17.2378C21.7048 16.6491 20.9067 16.4123 20.0064 16.4936C19.8252 16.5098 19.6521 16.5411 19.4831 16.5814C19.7504 16.1591 19.9857 15.7363 20.1884 15.3175C20.3518 15.3384 20.5132 15.3523 20.6711 15.3523C21.2319 15.3523 21.7601 15.2204 22.2694 14.9547C23.0759 14.5288 23.6163 13.8984 23.9716 12.9697C24.0159 12.8543 24.008 12.7258 23.9506 12.6167ZM15.2695 15.8822C15.8768 15.2884 16.3903 14.6277 16.7934 13.9217C17.5828 12.5639 18 11.0067 18 9.41817C18 8.16383 17.7485 6.95199 17.2525 5.81617C17.1843 5.65997 17.0303 5.55907 16.86 5.55907H7.14011C6.96975 5.55907 6.81577 5.66001 6.74754 5.81617C6.25155 6.95203 6.00003 8.16383 6.00003 9.41817C6.00003 11.0067 6.41728 12.5639 7.20495 13.9188C7.60965 14.6277 8.12321 15.2884 8.73675 15.8883C9.20844 16.3443 9.72868 16.7474 10.2857 17.0893C10.2857 17.105 10.2857 17.1207 10.2857 17.1364C10.2857 18.3348 10.0192 19.5008 9.51898 20.5697H14.481C13.9809 19.5008 13.7143 18.3348 13.7143 17.1363C13.7143 17.1207 13.7143 17.105 13.7143 17.0892C14.2714 16.7474 14.7924 16.3435 15.2695 15.8822ZM15 21.4273H9.00002C8.29104 21.4273 7.71431 22.0043 7.71431 22.7136V23.5712C7.71431 23.808 7.90601 24 8.14288 24H15.8572C16.094 24 16.2857 23.808 16.2857 23.5712V22.7136C16.2857 22.0043 15.709 21.4273 15 21.4273Z" fill="#E85123"/>
</svg>
