<svg width="46" height="45" viewBox="0 0 46 45" fill="none" xmlns="http://www.w3.org/2000/svg">
<path d="M15.7401 37.5369C15.7401 34.001 13.3639 31.0076 10.1151 30.0455C11.2307 29.317 11.9694 28.0633 11.9694 26.6411C11.9694 24.3959 10.1306 22.5694 7.8703 22.5694C5.61 22.5694 3.77121 24.3959 3.77121 26.6411C3.77121 28.0633 4.50993 29.317 5.62553 30.0455C2.37574 31.0081 0 34.0015 0 37.5369C0 37.8111 0.223605 38.0337 0.500079 38.0337H15.24C15.516 38.0337 15.7401 37.8111 15.7401 37.5369ZM4.77088 26.6411C4.77088 24.9437 6.16101 23.5629 7.86982 23.5629C9.57862 23.5629 10.9688 24.9437 10.9688 26.6411C10.9688 28.3384 9.57862 29.7193 7.86982 29.7193C6.16101 29.7193 4.77088 28.3389 4.77088 26.6411ZM1.01762 37.0402C1.27469 33.5081 4.24946 30.7127 7.86982 30.7127C11.4897 30.7127 14.4649 33.5081 14.722 37.0402H1.01762ZM40.3745 30.0455C41.4901 29.317 42.2288 28.0633 42.2288 26.6411C42.2288 24.3959 40.39 22.5694 38.1297 22.5694C35.8694 22.5694 34.0306 24.3959 34.0306 26.6411C34.0306 28.0633 34.7693 29.317 35.8849 30.0455C32.6361 31.0081 30.2599 34.001 30.2599 37.5369C30.2599 37.8111 30.4835 38.0337 30.76 38.0337H45.4999C45.7759 38.0337 46 37.8111 46 37.5369C45.9995 34.0015 43.6233 31.0081 40.3745 30.0455ZM35.0303 26.6411C35.0303 24.9437 36.4204 23.5629 38.1292 23.5629C39.838 23.5629 41.2282 24.9437 41.2282 26.6411C41.2282 28.3384 39.838 29.7193 38.1292 29.7193C36.4209 29.7198 35.0303 28.3389 35.0303 26.6411ZM31.2775 37.0402C31.5346 33.5081 34.5093 30.7127 38.1297 30.7127C41.7496 30.7127 44.7248 33.5081 44.9819 37.0402H31.2775ZM14.3573 14.9676C14.3573 15.2417 14.5809 15.4643 14.8573 15.4643H29.5973C29.8733 15.4643 30.0974 15.2417 30.0974 14.9676C30.0974 11.4316 27.7212 8.43822 24.4723 7.47607C25.5879 6.74759 26.3267 5.49395 26.3267 4.07168C26.3267 1.8265 24.4879 0 22.2276 0C19.9673 0 18.1285 1.8265 18.1285 4.07168C18.1285 5.49395 18.8672 6.74759 19.9828 7.47607C16.7335 8.43822 14.3573 11.4316 14.3573 14.9676ZM19.1281 4.07168C19.1281 2.3743 20.5183 0.993469 22.2276 0.993469C23.9364 0.993469 25.3265 2.3743 25.3265 4.07168C25.3265 5.76906 23.9364 7.14989 22.2276 7.14989C20.5188 7.14989 19.1281 5.76906 19.1281 4.07168ZM22.2276 8.14336C25.8474 8.14336 28.8227 10.9388 29.0798 14.4708H15.3754C15.6324 10.9388 18.6077 8.14336 22.2276 8.14336ZM4.37266 19.4285C4.90718 16.7343 6.06643 14.149 7.72479 11.952C9.17652 10.0291 11.0226 8.38763 13.1063 7.16001L12.1047 6.73506C11.8511 6.62714 11.7327 6.33565 11.8413 6.08319C11.95 5.83073 12.2439 5.71413 12.4976 5.82157L14.4349 6.64352C14.5372 6.68592 14.6265 6.76253 14.6827 6.86756C14.6856 6.87286 14.6881 6.87768 14.691 6.88298C14.739 6.9803 14.7521 7.0863 14.7346 7.18603L14.4043 9.22548C14.3607 9.49625 14.1036 9.6803 13.8315 9.63694C13.5589 9.59309 13.3736 9.33871 13.4173 9.06745L13.5851 8.03207C9.30215 10.5557 6.32496 14.7281 5.3539 19.6208C5.30685 19.8573 5.0978 20.0216 4.86401 20.0216C4.832 20.0216 4.7995 20.0187 4.76652 20.012C4.49538 19.959 4.31931 19.6979 4.37266 19.4285ZM30.0799 7.30407C30.1687 7.04438 30.4524 6.90514 30.7139 6.99331C33.3317 7.87645 35.7583 9.3599 37.731 11.2837C39.4577 12.9676 40.8513 15.0027 41.8 17.2166L42.3568 16.2867C42.498 16.0511 42.805 15.9736 43.0422 16.1138C43.2794 16.254 43.3575 16.5585 43.2163 16.7945L42.1395 18.5936C42.0833 18.6895 41.9945 18.767 41.882 18.8085C41.8776 18.8099 41.8728 18.8118 41.8684 18.8133C41.8155 18.8311 41.7612 18.8393 41.7079 18.8393C41.6569 18.8393 41.6065 18.8316 41.5585 18.8167L39.5674 18.2216C39.303 18.1426 39.1531 17.8656 39.2327 17.603C39.3122 17.3404 39.5916 17.1915 39.8555 17.2706L40.8663 17.5726C38.915 13.0216 35.1457 9.53817 30.3918 7.93426C30.1313 7.84561 29.9912 7.56376 30.0799 7.30407ZM30.8608 41.6876C30.9899 41.9305 30.8963 42.2306 30.6518 42.3588C28.2067 43.6399 25.4536 44.3703 22.6908 44.4705C20.2724 44.5577 17.8268 44.1646 15.5558 43.3267L15.8531 44.3679C15.9283 44.6319 15.7741 44.9065 15.5083 44.9812C15.4627 44.9942 15.4166 45 15.3715 45C15.1537 45 14.9534 44.8574 14.8908 44.6386L14.316 42.6252C14.285 42.5192 14.2889 42.4026 14.3354 42.2933C14.3379 42.288 14.3398 42.2827 14.3422 42.2778C14.3878 42.1796 14.4625 42.1025 14.5513 42.0533L16.3556 41.0261C16.5953 40.8898 16.9008 40.9722 17.0381 41.2102C17.1754 41.4482 17.0924 41.7517 16.8528 41.8881L15.937 42.4094C20.6061 44.1308 25.7436 43.8071 30.1842 41.48C30.4292 41.3523 30.7318 41.4448 30.8608 41.6876ZM18.9196 31.0847C19.1102 31.181 19.312 31.2287 19.5118 31.2287C19.7771 31.2287 20.0395 31.1449 20.269 30.9797L21.907 29.7993C22.2426 30.2873 22.8057 30.6024 23.4281 30.6024H24.5553L27.2807 32.5667C27.4757 32.7074 27.6989 32.7782 27.9244 32.7782C28.0946 32.7782 28.2659 32.7377 28.4279 32.6558C28.8043 32.465 29.0288 32.1008 29.0288 31.6812V30.6024H29.5692C30.5849 30.6024 31.4109 29.7819 31.4109 28.773V24.7751C31.4109 23.7662 30.5849 22.9457 29.5692 22.9457H27.7401V20.7964C27.7401 19.5499 26.7191 18.5358 25.4643 18.5358H17.3354C16.0806 18.5358 15.0596 19.5499 15.0596 20.7964V26.0884C15.0596 27.3349 16.0806 28.349 17.3354 28.349H18.2124V29.9375C18.2124 30.4314 18.4767 30.8602 18.9196 31.0847ZM27.7401 26.0884V23.9391H29.5692C30.0334 23.9391 30.4112 24.314 30.4112 24.7751V28.773C30.4112 29.2341 30.0334 29.6089 29.5692 29.6089H28.5292C28.2533 29.6089 28.0292 29.8315 28.0292 30.1057V31.6812C28.0292 31.725 28.0132 31.751 27.9739 31.7708C27.9356 31.7905 27.9035 31.7881 27.8686 31.7626L25.0117 29.7039C24.9263 29.6422 24.8235 29.6089 24.7183 29.6089H23.429C23.1341 29.6089 22.8678 29.4543 22.7165 29.2163L23.9199 28.349H25.4647C26.7191 28.349 27.7401 27.3349 27.7401 26.0884ZM17.3354 27.3561C16.6316 27.3561 16.0593 26.7875 16.0593 26.0884V20.7964C16.0593 20.0973 16.6316 19.5287 17.3354 19.5287H25.4643C26.1681 19.5287 26.7404 20.0973 26.7404 20.7964V26.0884C26.7404 26.7875 26.1681 27.3561 25.4643 27.3561H23.7574C23.6521 27.3561 23.5493 27.3893 23.4639 27.451L19.6826 30.176C19.5865 30.2454 19.4798 30.2536 19.3741 30.2001C19.2683 30.1466 19.2125 30.0561 19.2125 29.938V27.8528C19.2125 27.5786 18.9889 27.3561 18.7125 27.3561H17.3354ZM23.639 23.4424C23.639 23.1683 23.8626 22.9457 24.1391 22.9457H24.5373C24.8133 22.9457 25.0374 23.1683 25.0374 23.4424C25.0374 23.7165 24.8138 23.9391 24.5373 23.9391H24.1391C23.8631 23.9391 23.639 23.7165 23.639 23.4424ZM18.6606 23.9391H18.2623C17.9864 23.9391 17.7623 23.7165 17.7623 23.4424C17.7623 23.1683 17.9859 22.9457 18.2623 22.9457H18.6606C18.9366 22.9457 19.1606 23.1683 19.1606 23.4424C19.1606 23.7165 18.937 23.9391 18.6606 23.9391ZM20.7007 23.4424C20.7007 23.1683 20.9243 22.9457 21.2007 22.9457H21.599C21.8749 22.9457 22.099 23.1683 22.099 23.4424C22.099 23.7165 21.8754 23.9391 21.599 23.9391H21.2007C20.9247 23.9391 20.7007 23.7165 20.7007 23.4424Z" fill="#E85123"/>
</svg>
