<svg width="43" height="42" viewBox="0 0 43 42" fill="none" xmlns="http://www.w3.org/2000/svg">
<path d="M21.5003 41.324C13.0858 41.324 6.2403 34.5089 6.2403 26.1318V21.5256C6.2403 21.2297 6.48109 20.9905 6.77779 20.9905H9.87214V13.1208L4.82346 10.7128C4.3107 11.2024 3.61518 11.5037 2.85086 11.5037C1.2787 11.5037 0 10.2307 0 8.66548C0 7.1003 1.2787 5.82729 2.85086 5.82729C4.42303 5.82729 5.70173 7.1003 5.70173 8.66548C5.70173 9.07858 5.6125 9.47188 5.45233 9.82612L10.6413 12.301C10.8278 12.3898 10.9466 12.5776 10.9466 12.7836V20.9905H32.0518V12.7836C32.0518 12.5776 32.1706 12.3898 32.3571 12.301L37.5461 9.82612C37.3859 9.47188 37.2967 9.07912 37.2967 8.66548C37.2967 7.1003 38.5754 5.82729 40.1475 5.82729C41.7197 5.82729 43 7.10084 43 8.66602C43 10.2312 41.7208 11.5042 40.1486 11.5042C39.3837 11.5042 38.6888 11.2029 38.176 10.7133L33.1273 13.1213V20.9911H36.2222C36.5194 20.9911 36.7597 21.2303 36.7597 21.5262V26.1324C36.7602 34.5089 29.9142 41.324 21.5003 41.324ZM7.31528 22.0607V26.1318C7.31528 33.9187 13.6787 40.2538 21.5003 40.2538C29.3219 40.2538 35.6853 33.9187 35.6853 26.1318V22.0607H7.31528ZM40.1486 6.8975C39.1698 6.8975 38.3727 7.69052 38.3727 8.66548C38.3727 9.64044 39.1693 10.4335 40.1486 10.4335C41.1279 10.4335 41.925 9.64044 41.925 8.66548C41.925 7.69052 41.1284 6.8975 40.1486 6.8975ZM2.8514 6.8975C1.87209 6.8975 1.07552 7.69052 1.07552 8.66548C1.07552 9.64044 1.87209 10.4335 2.8514 10.4335C3.83071 10.4335 4.62728 9.64044 4.62728 8.66548C4.62728 7.69052 3.83071 6.8975 2.8514 6.8975ZM22.4726 39.0701C22.1958 39.0701 21.9609 38.8587 21.9373 38.58C21.9125 38.2851 22.1324 38.0267 22.428 38.002C22.6419 37.9839 22.8537 37.9598 23.0638 37.9293C23.3568 37.88 23.6304 38.0893 23.6728 38.382C23.7158 38.6741 23.5121 38.946 23.2181 38.9882C22.987 39.022 22.7537 39.0487 22.5183 39.068C22.5027 39.0696 22.4876 39.0701 22.4726 39.0701ZM25.5745 38.3606C25.3589 38.3606 25.1552 38.2305 25.0724 38.0176C24.966 37.7415 25.1042 37.4322 25.381 37.3257C28.0915 36.287 30.3001 34.1643 31.4401 31.5027C31.5568 31.2298 31.875 31.1051 32.1459 31.2207C32.4189 31.3368 32.5458 31.6514 32.4291 31.9233C31.1751 34.8492 28.7468 37.1823 25.7669 38.3253C25.704 38.3493 25.639 38.3606 25.5745 38.3606ZM28.3001 19.496C28.0029 19.496 27.7626 19.2563 27.7626 18.9609V18.7517C27.7626 18.4563 28.0029 18.2166 28.3001 18.2166C28.5973 18.2166 28.8376 18.4563 28.8376 18.7517V18.9609C28.8376 19.2568 28.5973 19.496 28.3001 19.496ZM14.6999 19.496C14.4032 19.496 14.1624 19.2563 14.1624 18.9609V18.7517C14.1624 18.4563 14.4032 18.2166 14.6999 18.2166C14.9966 18.2166 15.2374 18.4563 15.2374 18.7517V18.9609C15.2374 19.2568 14.9966 19.496 14.6999 19.496ZM21.5003 17.0527C21.2036 17.0527 20.9628 16.813 20.9628 16.5176V16.3078C20.9628 16.0125 21.2036 15.7727 21.5003 15.7727C21.797 15.7727 22.0378 16.0125 22.0378 16.3078V16.5176C22.0378 16.8135 21.797 17.0527 21.5003 17.0527ZM28.3001 16.8435C28.0029 16.8435 27.7626 16.6038 27.7626 16.3084V7.82858C27.7626 7.68464 27.8207 7.54711 27.9239 7.44651L31.0504 4.39749C30.7532 3.94961 30.5807 3.41397 30.5807 2.83819C30.5807 1.27301 31.8594 0 33.4315 0C35.0037 0 36.2829 1.27301 36.2829 2.83819C36.2829 4.40337 35.0037 5.67639 33.4315 5.67639C32.8253 5.67639 32.2625 5.48696 31.8003 5.16429L28.8376 8.05332V16.3084C28.8376 16.6038 28.5973 16.8435 28.3001 16.8435ZM33.4315 1.07021C32.4528 1.07021 31.6557 1.86323 31.6557 2.83819C31.6557 3.81315 32.4522 4.60618 33.4315 4.60618C34.4109 4.60618 35.208 3.81315 35.208 2.83819C35.208 1.86323 34.4114 1.07021 33.4315 1.07021ZM14.6999 16.8435C14.4032 16.8435 14.1624 16.6038 14.1624 16.3084V8.05332L11.2003 5.16483C10.738 5.4875 10.1747 5.67692 9.56846 5.67692C7.99629 5.67692 6.71759 4.40391 6.71759 2.83873C6.71759 1.27355 7.99629 0.000534811 9.56846 0.000534811C11.1406 0.000534811 12.4193 1.27355 12.4193 2.83873C12.4193 3.41397 12.2462 3.95014 11.9495 4.39802L15.0756 7.44651C15.1788 7.54711 15.2369 7.68517 15.2369 7.82858V16.3084C15.2374 16.6038 14.9966 16.8435 14.6999 16.8435ZM9.56899 1.07021C8.58968 1.07021 7.79312 1.86323 7.79312 2.83819C7.79312 3.81315 8.58968 4.60618 9.56899 4.60618C10.5483 4.60618 11.3449 3.81315 11.3449 2.83819C11.3449 1.86323 10.5483 1.07021 9.56899 1.07021ZM21.5003 13.8255C21.2036 13.8255 20.9628 13.5858 20.9628 13.2904V13.0812C20.9628 12.7858 21.2036 12.5461 21.5003 12.5461C21.797 12.5461 22.0378 12.7858 22.0378 13.0812V13.2904C22.0378 13.5858 21.797 13.8255 21.5003 13.8255ZM21.5003 11.1034C21.2036 11.1034 20.9628 10.8637 20.9628 10.5683V6.46299C19.647 6.21203 18.6494 5.05781 18.6494 3.67563C18.6494 2.11045 19.9281 0.837438 21.5003 0.837438C23.0724 0.837438 24.3517 2.11045 24.3517 3.67563C24.3517 5.05781 23.3541 6.21256 22.0378 6.46299V10.5683C22.0378 10.8637 21.797 11.1034 21.5003 11.1034ZM21.5003 1.90765C20.521 1.90765 19.7244 2.70067 19.7244 3.67563C19.7244 4.65059 20.521 5.44362 21.5003 5.44362C22.4796 5.44362 23.2767 4.65059 23.2767 3.67563C23.2767 2.70067 22.4796 1.90765 21.5003 1.90765Z" fill="white"/>
</svg>
