<svg width="38" height="34" viewBox="0 0 38 34" fill="none" xmlns="http://www.w3.org/2000/svg">
<path d="M24.4709 22.2317C23.16 21.4754 21.7831 20.9197 20.3766 20.581C20.2303 20.5433 20.0816 20.5775 19.9672 20.6695C19.8504 20.7591 19.7819 20.8972 19.7796 21.0447C19.7631 22.3851 19.1413 23.6204 18.0758 24.4322L17.2546 25.0575L16.4488 24.4121C15.4046 23.5732 14.8146 22.3225 14.8323 20.9821C14.8335 20.8358 14.7686 20.6954 14.6553 20.6022C14.5408 20.5102 14.3922 20.4737 14.247 20.5031C13.7077 20.6189 13.1732 20.7763 12.6422 20.9546C12.5779 20.8243 12.5096 20.698 12.4359 20.5751L13.1698 19.8695C13.362 19.6842 13.368 19.3787 13.1827 19.1863L12.0382 17.9947C11.9497 17.9027 11.8282 17.8495 11.6996 17.8461C11.5686 17.8461 11.4483 17.8921 11.3551 17.9818L10.6413 18.6685C10.3392 18.4645 10.0218 18.2887 9.6938 18.1458L9.87197 17.1429C9.91918 16.8798 9.74451 16.6297 9.48141 16.5824L7.85557 16.2922C7.73056 16.2709 7.59953 16.298 7.49449 16.3712C7.38952 16.4444 7.31743 16.5565 7.29509 16.6827L7.1216 17.6549C6.76178 17.6679 6.40299 17.7139 6.04785 17.7942L5.60303 16.8762C5.48625 16.6367 5.19955 16.5411 4.95651 16.652L3.47104 17.3717C3.23156 17.4885 3.13126 17.7776 3.24685 18.0182L3.67987 18.9103C3.39428 19.1321 3.13008 19.3799 2.8917 19.6501L1.99144 19.1699C1.75782 19.0448 1.464 19.1333 1.3378 19.3681L0.559061 20.8241C0.498929 20.9373 0.484676 21.0695 0.522462 21.1921C0.560174 21.3148 0.644061 21.4175 0.757271 21.4777L1.62925 21.9438C1.53014 22.2918 1.4617 22.6482 1.42629 23.008L0.417492 23.1473C0.290029 23.1649 0.175632 23.2322 0.0977579 23.3349C0.0210721 23.4363 -0.0131507 23.5661 0.00459174 23.6924L0.23116 25.3289C0.267758 25.5932 0.513183 25.7691 0.776275 25.7419L1.7556 25.6062C1.82642 25.8033 1.90422 25.9896 1.99041 26.1667C2.05996 26.3119 2.13672 26.4498 2.21809 26.5855L1.483 27.2911C1.39095 27.3795 1.33794 27.5011 1.33438 27.6297C1.33201 27.7582 1.38041 27.8821 1.47009 27.9742L2.61466 29.1647C2.79995 29.3594 3.1055 29.3641 3.29785 29.1777L4.01163 28.4922C4.3137 28.6963 4.62987 28.871 4.9591 29.0149L4.78094 30.0166C4.73372 30.2797 4.9084 30.5299 5.17149 30.5771L6.79734 30.8686C6.82562 30.8732 6.85398 30.8768 6.88226 30.8768C6.98025 30.8768 7.07698 30.8461 7.15835 30.7895C7.26332 30.7164 7.33532 30.6042 7.35774 30.478L7.44623 29.982V33.5151C7.44623 33.7817 7.66337 33.9989 7.93003 33.9989H26.5098C26.7765 33.9989 26.9924 33.7817 26.9936 33.5151L26.9972 26.6635C27.0194 24.8428 26.0519 23.1449 24.4709 22.2317ZM7.44601 26.4227V28.5284C7.3449 28.5309 7.24357 28.5427 7.14276 28.5406C6.95279 28.4993 6.69318 28.701 6.65072 28.9382L6.49141 29.8313L5.81646 29.711L5.97926 28.7966C6.02053 28.5641 5.88839 28.3352 5.66539 28.2561C5.1663 28.0791 4.69549 27.8184 4.26596 27.4821C4.07718 27.3335 3.80703 27.3476 3.63355 27.5152L2.97633 28.1465L2.50085 27.6533L3.17454 27.0055C3.34566 26.8415 3.37164 26.5784 3.23713 26.3826C3.09905 26.182 2.96928 25.9731 2.85956 25.7454C2.74153 25.5023 2.64242 25.238 2.55631 24.9372C2.48905 24.7071 2.27072 24.5607 2.02537 24.5927L1.12273 24.7177L1.02831 24.0392L1.94987 23.9118C2.18349 23.8787 2.36047 23.6828 2.36641 23.4457C2.38178 22.9077 2.48318 22.3791 2.66848 21.8752C2.7511 21.6487 2.6543 21.3962 2.44191 21.2829L1.63838 20.8535L1.96168 20.2493L2.78406 20.6882C2.99059 20.8003 3.2513 20.7437 3.39525 20.5561C3.72092 20.1326 4.11259 19.7655 4.55986 19.4647C4.76045 19.3301 4.8312 19.0694 4.72623 18.8523L4.32743 18.0311L4.94337 17.7326L5.35033 18.5726C5.45418 18.7862 5.69835 18.8912 5.92373 18.8251C6.44523 18.6694 6.97743 18.6057 7.50829 18.6198C7.7431 18.6552 7.95898 18.4593 8.00152 18.2222L8.16083 17.3278L8.83578 17.4481L8.67298 18.3637C8.63171 18.5962 8.76385 18.8251 8.98685 18.9042C9.48475 19.0811 9.95556 19.3408 10.3863 19.6782C10.5739 19.8245 10.8441 19.8116 11.0187 19.6451L11.6759 19.0127L12.1514 19.5083L11.4788 20.1548C11.3089 20.3188 11.2817 20.5808 11.4151 20.7754C11.5274 20.9396 11.6274 21.1157 11.7225 21.2958C11.1784 21.5178 10.6393 21.7631 10.1114 22.0497C9.99297 22.1143 9.88474 22.1916 9.77286 22.2644C9.07037 20.9601 7.45737 20.4176 6.11036 21.0728C4.72867 21.7429 4.14934 23.4136 4.81835 24.7966C5.29153 25.77 6.27553 26.3682 7.32679 26.3682C7.36799 26.3682 7.40986 26.358 7.45136 26.3561C7.45084 26.3786 7.44638 26.4002 7.44601 26.4227ZM7.58401 25.3701C6.80394 25.481 6.03449 25.0888 5.68914 24.3744C5.25137 23.4718 5.63012 22.3803 6.53276 21.9427C7.43539 21.5014 8.52436 21.8825 8.96451 22.7875C8.97743 22.8141 8.98359 22.844 8.99524 22.8713C8.29015 23.552 7.80405 24.4216 7.58401 25.3701ZM26.0271 33.0313H8.4136V26.4286C8.43127 24.9678 9.25841 23.6157 10.574 22.8995C11.6478 22.3154 12.7616 21.8729 13.8919 21.5804C14.0336 22.9857 14.7261 24.2682 15.8447 25.1661L16.9455 26.0487C17.119 26.1868 17.3644 26.1915 17.5402 26.0558L18.6611 25.2015C19.8022 24.332 20.5266 23.0683 20.7047 21.6666C21.828 21.9875 22.93 22.4583 23.9872 23.0694C25.2662 23.8068 26.0485 25.1802 26.0296 26.6575L26.0271 33.0313Z" fill="#E85123"/>
<path d="M13.1365 16.0855C13.4504 17.5143 14.642 19.8707 17.2591 19.8695C17.2697 19.8695 17.2803 19.8695 17.2909 19.8695C17.3381 19.8719 17.3854 19.8719 17.4326 19.8719C19.9894 19.8719 21.2424 17.5923 21.6082 16.1952C22.2382 15.8129 22.6418 15.315 22.8058 14.7133C23.03 13.8944 22.7244 13.1381 22.5757 12.8396L22.5828 12.0656C22.5911 11.8603 22.5935 11.6668 22.5875 11.4875C22.7174 8.77431 20.5628 7.70234 20.479 7.66285C17.0479 5.91837 14.917 7.90768 14.3046 8.61448C14.025 8.61804 13.6073 8.68997 13.2108 9.01327C12.5608 9.54302 12.2445 10.5259 12.2681 11.9194L12.2551 12.7099C12.0994 13.0038 11.7761 13.7518 11.979 14.5765C12.1277 15.1806 12.5171 15.6879 13.1365 16.0855ZM13.1425 13.1028C13.192 13.0273 13.218 12.9388 13.2203 12.8491L13.2357 11.9193C13.2121 10.5671 13.5342 10.0055 13.8091 9.77308C14.0982 9.52765 14.4109 9.58667 14.4179 9.58667C14.6102 9.62438 14.812 9.55007 14.9241 9.3849C14.9949 9.28104 16.7069 6.82866 20.0507 8.52888C20.0672 8.53712 21.7309 9.36367 21.6212 11.4579C21.62 11.4709 21.62 11.4851 21.6212 11.4992C21.6259 11.662 21.6248 11.8378 21.6165 12.0408L21.6083 12.9539C21.6083 13.0424 21.6331 13.1321 21.6778 13.2088C21.6814 13.2147 22.0472 13.8388 21.8714 14.4654C21.7616 14.8559 21.4548 15.1887 20.9593 15.4518C20.8318 15.519 20.7422 15.6394 20.7127 15.7797C20.7056 15.8116 20.0283 18.9053 17.4125 18.9053C17.3759 18.9053 17.3394 18.9041 17.3027 18.9029C17.2945 18.9029 17.2862 18.9029 17.2779 18.9029C14.6279 18.9029 14.0686 15.8328 14.0462 15.7008C14.0214 15.558 13.933 15.4329 13.8067 15.361C13.3171 15.0849 13.0186 14.745 12.9195 14.3522C12.7602 13.721 13.14 13.1075 13.1425 13.1028Z" fill="#E85123"/>
<path d="M35.9166 0H23.4592C22.5247 0 21.7637 0.760993 21.7637 1.69614V7.9437C21.7637 8.8787 22.5247 9.63984 23.4592 9.63984H23.989L23.4521 13.0237C23.4191 13.2326 23.5265 13.4379 23.7152 13.5323C23.7836 13.5666 23.8568 13.5831 23.93 13.5831C24.0585 13.5831 24.186 13.5312 24.2792 13.4332L27.9051 9.63984H35.9166C36.8511 9.63984 37.6122 8.87885 37.6122 7.9437V1.69614C37.6121 0.760993 36.8511 0 35.9166 0ZM36.6447 7.94362C36.6447 8.34532 36.3179 8.67277 35.9166 8.67277H27.6986C27.5665 8.67277 27.4402 8.72644 27.3493 8.82206L24.6497 11.6467L25.0332 9.23147C25.0544 9.09228 25.0142 8.94945 24.9223 8.8421C24.8314 8.73476 24.6969 8.67277 24.5553 8.67277H23.4592C23.0581 8.67277 22.7312 8.34532 22.7312 7.94362V1.69614C22.7312 1.29379 23.058 0.96633 23.4592 0.96633H35.9166C36.3178 0.96633 36.6447 1.29379 36.6447 1.69614V7.94362Z" fill="#E85123"/>
<path d="M35.1661 2.53125H25.1264C24.8597 2.53125 24.6426 2.7478 24.6426 3.01445C24.6426 3.28111 24.8597 3.49765 25.1264 3.49765H35.1661C35.4328 3.49765 35.6499 3.28111 35.6499 3.01445C35.6498 2.7478 35.4327 2.53125 35.1661 2.53125Z" fill="#E85123"/>
<path d="M35.1661 4.23438H25.1264C24.8597 4.23438 24.6426 4.45092 24.6426 4.71758C24.6426 4.98423 24.8597 5.20078 25.1264 5.20078H35.1661C35.4328 5.20078 35.6499 4.98423 35.6499 4.71758C35.6498 4.45092 35.4327 4.23438 35.1661 4.23438Z" fill="#E85123"/>
<path d="M30.1456 5.9375H25.1264C24.8597 5.9375 24.6426 6.15405 24.6426 6.4207C24.6426 6.68736 24.8597 6.9039 25.1264 6.9039H30.1457C30.4124 6.9039 30.6295 6.68736 30.6295 6.4207C30.6293 6.15405 30.4123 5.9375 30.1456 5.9375Z" fill="#E85123"/>
</svg>
