<svg width="27" height="21" viewBox="0 0 27 21" fill="none" xmlns="http://www.w3.org/2000/svg">
<path d="M22.6235 12.0965V19.9535C22.6235 20.2373 22.5198 20.4828 22.3124 20.6901C22.1051 20.8975 21.8596 21.0011 21.5759 21.0011H15.2902V14.7155H11.0998V21.0011H4.81424C4.53051 21.0011 4.28498 20.8975 4.07764 20.6901C3.8703 20.4828 3.76663 20.2373 3.76663 19.9535V12.0965C3.76663 12.0856 3.76936 12.0692 3.77482 12.0474C3.78028 12.0256 3.783 12.0092 3.783 11.9983L13.195 4.23951L22.6071 11.9983C22.618 12.0201 22.6235 12.0529 22.6235 12.0965ZM26.2737 10.9671L25.2588 12.1784C25.1715 12.2766 25.0569 12.3366 24.9151 12.3584H24.866C24.7241 12.3584 24.6095 12.3202 24.5222 12.2438L13.195 2.79906L1.86786 12.2438C1.73691 12.3311 1.60596 12.3693 1.47501 12.3584C1.33315 12.3366 1.21856 12.2766 1.13126 12.1784L0.1164 10.9671C0.0291 10.8579 -0.00909376 10.7297 0.00181875 10.5824C0.0127313 10.4351 0.0727501 10.3178 0.181875 10.2305L11.951 0.425588C12.3002 0.141863 12.7149 0 13.195 0C13.6752 0 14.0899 0.141863 14.4391 0.425588L18.433 3.76482V0.572907C18.433 0.420132 18.4822 0.294638 18.5804 0.196425C18.6786 0.0982126 18.8041 0.0491063 18.9568 0.0491063H22.0997C22.2524 0.0491063 22.3779 0.0982126 22.4761 0.196425C22.5743 0.294638 22.6235 0.420132 22.6235 0.572907V7.25136L26.2082 10.2305C26.3173 10.3178 26.3774 10.4351 26.3883 10.5824C26.3992 10.7297 26.361 10.8579 26.2737 10.9671Z" fill="#030303" fill-opacity="0.9"/>
</svg>
